  0
SECTION
  2
HEADER
  9
$ACADVER
  1
AC1024
  9
$ACADMAINTVER
 70
     6
  9
$DWGCODEPAGE
  3
MAC-ROMAN
  9
$INSBASE
 10
0.0
 20
0.0
 30
0.0
  9
$EXTMIN
 10
1.000000000000000E+20
 20
1.000000000000000E+20
 30
1.000000000000000E+20
  9
$EXTMAX
 10
-1.000000000000000E+20
 20
-1.000000000000000E+20
 30
-1.000000000000000E+20
  9
$LIMMIN
 10
0.0
 20
0.0
  9
$LIMMAX
 10
420.0
 20
297.0
  9
$ORTHOMODE
 70
     0
  9
$REGENMODE
 70
     1
  9
$FILLMODE
 70
     1
  9
$QTEXTMODE
 70
     0
  9
$MIRRTEXT
 70
     1
  9
$LTSCALE
 40
1.0
  9
$ATTMODE
 70
     1
  9
$TEXTSIZE
 40
2.5
  9
$TRACEWID
 40
1.0
  9
$TEXTSTYLE
  7
Standard
  9
$CLAYER
  8
0
  9
$CELTYPE
  6
ByLayer
  9
$CECOLOR
 62
   256
  9
$CELTSCALE
 40
1.0
  9
$DISPSILH
 70
     0
  9
$DIMSCALE
 40
1.0
  9
$DIMASZ
 40
2.5
  9
$DIMEXO
 40
0.625
  9
$DIMDLI
 40
3.75
  9
$DIMRND
 40
0.0
  9
$DIMDLE
 40
0.0
  9
$DIMEXE
 40
1.25
  9
$DIMTP
 40
0.0
  9
$DIMTM
 40
0.0
  9
$DIMTXT
 40
2.5
  9
$DIMCEN
 40
2.5
  9
$DIMTSZ
 40
0.0
  9
$DIMTOL
 70
     0
  9
$DIMLIM
 70
     0
  9
$DIMTIH
 70
     0
  9
$DIMTOH
 70
     0
  9
$DIMSE1
 70
     0
  9
$DIMSE2
 70
     0
  9
$DIMTAD
 70
     1
  9
$DIMZIN
 70
     8
  9
$DIMBLK
  1

  9
$DIMASO
 70
     1
  9
$DIMSHO
 70
     1
  9
$DIMPOST
  1

  9
$DIMAPOST
  1

  9
$DIMALT
 70
     0
  9
$DIMALTD
 70
     3
  9
$DIMALTF
 40
0.03937007874016
  9
$DIMLFAC
 40
1.0
  9
$DIMTOFL
 70
     1
  9
$DIMTVP
 40
0.0
  9
$DIMTIX
 70
     0
  9
$DIMSOXD
 70
     0
  9
$DIMSAH
 70
     0
  9
$DIMBLK1
  1

  9
$DIMBLK2
  1

  9
$DIMSTYLE
  2
ISO-25
  9
$DIMCLRD
 70
     0
  9
$DIMCLRE
 70
     0
  9
$DIMCLRT
 70
     0
  9
$DIMTFAC
 40
1.0
  9
$DIMGAP
 40
0.625
  9
$DIMJUST
 70
     0
  9
$DIMSD1
 70
     0
  9
$DIMSD2
 70
     0
  9
$DIMTOLJ
 70
     0
  9
$DIMTZIN
 70
     8
  9
$DIMALTZ
 70
     0
  9
$DIMALTTZ
 70
     0
  9
$DIMUPT
 70
     0
  9
$DIMDEC
 70
     2
  9
$DIMTDEC
 70
     2
  9
$DIMALTU
 70
     2
  9
$DIMALTTD
 70
     3
  9
$DIMTXSTY
  7
Standard
  9
$DIMAUNIT
 70
     0
  9
$DIMADEC
 70
     0
  9
$DIMALTRND
 40
0.0
  9
$DIMAZIN
 70
     0
  9
$DIMDSEP
 70
    44
  9
$DIMATFIT
 70
     3
  9
$DIMFRAC
 70
     0
  9
$DIMLDRBLK
  1

  9
$DIMLUNIT
 70
     2
  9
$DIMLWD
 70
    -2
  9
$DIMLWE
 70
    -2
  9
$DIMTMOVE
 70
     0
  9
$DIMFXL
 40
1.0
  9
$DIMFXLON
 70
     0
  9
$DIMJOGANG
 40
0.7853981633974483
  9
$DIMTFILL
 70
     0
  9
$DIMTFILLCLR
 70
     0
  9
$DIMARCSYM
 70
     0
  9
$DIMLTYPE
  6

  9
$DIMLTEX1
  6

  9
$DIMLTEX2
  6

  9
$DIMTXTDIRECTION
 70
     0
  9
$LUNITS
 70
     2
  9
$LUPREC
 70
     4
  9
$SKETCHINC
 40
1.0
  9
$FILLETRAD
 40
0.0
  9
$AUNITS
 70
     0
  9
$AUPREC
 70
     0
  9
$MENU
  1
.
  9
$ELEVATION
 40
0.0
  9
$PELEVATION
 40
0.0
  9
$THICKNESS
 40
0.0
  9
$LIMCHECK
 70
     0
  9
$CHAMFERA
 40
0.0
  9
$CHAMFERB
 40
0.0
  9
$CHAMFERC
 40
0.0
  9
$CHAMFERD
 40
0.0
  9
$SKPOLY
 70
     0
  9
$TDCREATE
 40
2460636.498661679
  9
$TDUCREATE
 40
2460636.748661679
  9
$TDUPDATE
 40
2460636.498661979
  9
$TDUUPDATE
 40
2460636.748661979
  9
$TDINDWG
 40
0.0000000116
  9
$TDUSRTIMER
 40
0.0000000116
  9
$USRTIMER
 70
     1
  9
$ANGBASE
 50
0.0
  9
$ANGDIR
 70
     0
  9
$PDMODE
 70
     0
  9
$PDSIZE
 40
0.0
  9
$PLINEWID
 40
0.0
  9
$SPLFRAME
 70
     0
  9
$SPLINETYPE
 70
     6
  9
$SPLINESEGS
 70
     8
  9
$HANDSEED
  5
272
  9
$SURFTAB1
 70
     6
  9
$SURFTAB2
 70
     6
  9
$SURFTYPE
 70
     6
  9
$SURFU
 70
     6
  9
$SURFV
 70
     6
  9
$UCSBASE
  2

  9
$UCSNAME
  2

  9
$UCSORG
 10
0.0
 20
0.0
 30
0.0
  9
$UCSXDIR
 10
1.0
 20
0.0
 30
0.0
  9
$UCSYDIR
 10
0.0
 20
1.0
 30
0.0
  9
$UCSORTHOREF
  2

  9
$UCSORTHOVIEW
 70
     0
  9
$UCSORGTOP
 10
0.0
 20
0.0
 30
0.0
  9
$UCSORGBOTTOM
 10
0.0
 20
0.0
 30
0.0
  9
$UCSORGLEFT
 10
0.0
 20
0.0
 30
0.0
  9
$UCSORGRIGHT
 10
0.0
 20
0.0
 30
0.0
  9
$UCSORGFRONT
 10
0.0
 20
0.0
 30
0.0
  9
$UCSORGBACK
 10
0.0
 20
0.0
 30
0.0
  9
$PUCSBASE
  2

  9
$PUCSNAME
  2

  9
$PUCSORG
 10
0.0
 20
0.0
 30
0.0
  9
$PUCSXDIR
 10
1.0
 20
0.0
 30
0.0
  9
$PUCSYDIR
 10
0.0
 20
1.0
 30
0.0
  9
$PUCSORTHOREF
  2

  9
$PUCSORTHOVIEW
 70
     0
  9
$PUCSORGTOP
 10
0.0
 20
0.0
 30
0.0
  9
$PUCSORGBOTTOM
 10
0.0
 20
0.0
 30
0.0
  9
$PUCSORGLEFT
 10
0.0
 20
0.0
 30
0.0
  9
$PUCSORGRIGHT
 10
0.0
 20
0.0
 30
0.0
  9
$PUCSORGFRONT
 10
0.0
 20
0.0
 30
0.0
  9
$PUCSORGBACK
 10
0.0
 20
0.0
 30
0.0
  9
$USERI1
 70
     0
  9
$USERI2
 70
     0
  9
$USERI3
 70
     0
  9
$USERI4
 70
     0
  9
$USERI5
 70
     0
  9
$USERR1
 40
0.0
  9
$USERR2
 40
0.0
  9
$USERR3
 40
0.0
  9
$USERR4
 40
0.0
  9
$USERR5
 40
0.0
  9
$WORLDVIEW
 70
     1
  9
$SHADEDGE
 70
     3
  9
$SHADEDIF
 70
    70
  9
$TILEMODE
 70
     1
  9
$MAXACTVP
 70
    64
  9
$PINSBASE
 10
0.0
 20
0.0
 30
0.0
  9
$PLIMCHECK
 70
     0
  9
$PEXTMIN
 10
1.000000000000000E+20
 20
1.000000000000000E+20
 30
1.000000000000000E+20
  9
$PEXTMAX
 10
-1.000000000000000E+20
 20
-1.000000000000000E+20
 30
-1.000000000000000E+20
  9
$PLIMMIN
 10
0.0
 20
0.0
  9
$PLIMMAX
 10
420.0
 20
297.0
  9
$UNITMODE
 70
     0
  9
$VISRETAIN
 70
     1
  9
$PLINEGEN
 70
     0
  9
$PSLTSCALE
 70
     1
  9
$TREEDEPTH
 70
  3020
  9
$CMLSTYLE
  2
Standard
  9
$CMLJUST
 70
     0
  9
$CMLSCALE
 40
20.0
  9
$PROXYGRAPHICS
 70
     1
  9
$MEASUREMENT
 70
     1
  9
$CELWEIGHT
370
    -1
  9
$ENDCAPS
280
     0
  9
$JOINSTYLE
280
     0
  9
$LWDISPLAY
290
     0
  9
$INSUNITS
 70
     4
  9
$HYPERLINKBASE
  1

  9
$STYLESHEET
  1

  9
$XEDIT
290
     1
  9
$CEPSNTYPE
380
     0
  9
$PSTYLEMODE
290
     1
  9
$FINGERPRINTGUID
  2
{f54602ab-a365-ee44-ab4b-36bba8d41a4f}
  9
$VERSIONGUID
  2
{FAEB1C32-E019-11D5-929B-00C0DF256EC4}
  9
$EXTNAMES
290
     1
  9
$PSVPSCALE
 40
0.0
  9
$OLESTARTUP
290
     0
  9
$SORTENTS
280
   127
  9
$INDEXCTL
280
     0
  9
$HIDETEXT
280
     1
  9
$XCLIPFRAME
280
     2
  9
$HALOGAP
280
     0
  9
$OBSCOLOR
 70
   257
  9
$OBSLTYPE
280
     0
  9
$INTERSECTIONDISPLAY
280
     0
  9
$INTERSECTIONCOLOR
 70
   257
  9
$DIMASSOC
280
     2
  9
$PROJECTNAME
  1

  9
$CAMERADISPLAY
290
     0
  9
$LENSLENGTH
 40
50.0
  9
$CAMERAHEIGHT
 40
0.0
  9
$STEPSPERSEC
 40
2.0
  9
$STEPSIZE
 40
6.0
  9
$3DDWFPREC
 40
2.0
  9
$PSOLWIDTH
 40
5.0
  9
$PSOLHEIGHT
 40
80.0
  9
$LOFTANG1
 40
1.570796326794897
  9
$LOFTANG2
 40
1.570796326794897
  9
$LOFTMAG1
 40
0.0
  9
$LOFTMAG2
 40
0.0
  9
$LOFTPARAM
 70
     7
  9
$LOFTNORMALS
280
     1
  9
$LATITUDE
 40
37.795
  9
$LONGITUDE
 40
-122.394
  9
$NORTHDIRECTION
 40
0.0
  9
$TIMEZONE
 70
 -8000
  9
$LIGHTGLYPHDISPLAY
280
     1
  9
$TILEMODELIGHTSYNCH
280
     1
  9
$CMATERIAL
347
44
  9
$SOLIDHIST
280
     0
  9
$SHOWHIST
280
     1
  9
$DWFFRAME
280
     2
  9
$DGNFRAME
280
     2
  9
$REALWORLDSCALE
290
     1
  9
$INTERFERECOLOR
 62
   256
  9
$CSHADOW
280
     0
  9
$SHADOWPLANELOCATION
 40
0.0
  0
ENDSEC
  0
SECTION
  2
CLASSES
  0
CLASS
  1
ACDBDICTIONARYWDFLT
  2
AcDbDictionaryWithDefault
  3
ObjectDBX Classes
 90
        0
 91
        3
280
     0
281
     0
  0
CLASS
  1
VISUALSTYLE
  2
AcDbVisualStyle
  3
ObjectDBX Classes
 90
     4095
 91
        3
280
     0
281
     0
  0
CLASS
  1
MATERIAL
  2
AcDbMaterial
  3
ObjectDBX Classes
 90
     1153
 91
        3
280
     0
281
     0
  0
CLASS
  1
SCALE
  2
AcDbScale
  3
ObjectDBX Classes
 90
     1153
 91
        3
280
     0
281
     0
  0
CLASS
  1
TABLESTYLE
  2
AcDbTableStyle
  3
ObjectDBX Classes
 90
     4095
 91
        3
280
     0
281
     0
  0
CLASS
  1
MLEADERSTYLE
  2
AcDbMLeaderStyle
  3
ACDB_MLEADERSTYLE_CLASS
 90
     4095
 91
        3
280
     0
281
     0
  0
CLASS
  1
SUN
  2
AcDbSun
  3
SCENEOE
 90
     1153
 91
        3
280
     0
281
     0
  0
CLASS
  1
DICTIONARYVAR
  2
AcDbDictionaryVar
  3
ObjectDBX Classes
 90
        0
 91
        3
280
     0
281
     0
  0
CLASS
  1
CELLSTYLEMAP
  2
AcDbCellStyleMap
  3
ObjectDBX Classes
 90
     1152
 91
        3
280
     0
281
     0
  0
ENDSEC
  0
SECTION
  2
TABLES
  0
TABLE
  2
VPORT
  5
8
330
0
100
AcDbSymbolTable
 70
     1
  0
VPORT
  5
29
330
8
100
AcDbSymbolTableRecord
100
AcDbViewportTableRecord
  2
*Active
 70
     0
 10
0.0
 20
0.0
 11
1.0
 21
1.0
 12
344.1869158878504
 22
148.5
 13
0.0
 23
0.0
 14
10.0
 24
10.0
 15
10.0
 25
10.0
 16
0.0
 26
0.0
 36
1.0
 17
0.0
 27
0.0
 37
0.0
 40
297.0
 41
1.972972972850329
 42
50.0
 43
0.0
 44
0.0
 50
0.0
 51
0.0
 71
     0
 72
   100
 73
     1
 74
     3
 75
     0
 76
     0
 77
     0
 78
     0
281
     0
 65
     1
110
0.0
120
0.0
130
0.0
111
1.0
121
0.0
131
0.0
112
0.0
122
1.0
132
0.0
 79
     0
146
0.0
348
2F
 60
     3
 61
     5
292
     1
282
     1
141
0.0
142
0.0
 63
   250
361
5D
  0
ENDTAB
  0
TABLE
  2
LTYPE
  5
5
330
0
100
AcDbSymbolTable
 70
     1
  0
LTYPE
  5
14
330
5
100
AcDbSymbolTableRecord
100
AcDbLinetypeTableRecord
  2
ByBlock
 70
     0
  3

 72
    65
 73
     0
 40
0.0
  0
LTYPE
  5
15
330
5
100
AcDbSymbolTableRecord
100
AcDbLinetypeTableRecord
  2
ByLayer
 70
     0
  3

 72
    65
 73
     0
 40
0.0
  0
LTYPE
  5
16
330
5
100
AcDbSymbolTableRecord
100
AcDbLinetypeTableRecord
  2
Continuous
 70
     0
  3
Solid line
 72
    65
 73
     0
 40
0.0
  0
ENDTAB
  0
TABLE
  2
LAYER
  5
2
330
0
100
AcDbSymbolTable
 70
     4
  0
LAYER
  5
10
330
2
100
AcDbSymbolTableRecord
100
AcDbLayerTableRecord
  2
0
 70
     0
 62
     7
  6
Continuous
370
    -3
390
F
347
46
  0
LAYER
  5
5E
330
2
100
AcDbSymbolTableRecord
100
AcDbLayerTableRecord
  2
Sketch 10
 70
     0
 62
     7
  6
Continuous
370
    -3
390
F
347
46
  0
LAYER
  5
D8
330
2
100
AcDbSymbolTableRecord
100
AcDbLayerTableRecord
  2
Dimensions
 70
     0
 62
     7
  6
Continuous
370
    -3
390
F
347
46
  0
LAYER
  5
DA
330
2
100
AcDbSymbolTableRecord
100
AcDbLayerTableRecord
  2
Defpoints
 70
     0
 62
     7
  6
Continuous
290
     0
370
    -3
390
F
347
46
  0
ENDTAB
  0
TABLE
  2
STYLE
  5
3
330
0
100
AcDbSymbolTable
 70
     1
  0
STYLE
  5
11
330
3
100
AcDbSymbolTableRecord
100
AcDbTextStyleTableRecord
  2
Standard
 70
     0
 40
0.0
 41
1.0
 50
0.0
 71
     0
 42
2.5
  3
txt
  4

  0
ENDTAB
  0
TABLE
  2
VIEW
  5
6
330
0
100
AcDbSymbolTable
 70
     0
  0
ENDTAB
  0
TABLE
  2
UCS
  5
7
330
0
100
AcDbSymbolTable
 70
     0
  0
ENDTAB
  0
TABLE
  2
APPID
  5
9
330
0
100
AcDbSymbolTable
 70
     1
  0
APPID
  5
12
330
9
100
AcDbSymbolTableRecord
100
AcDbRegAppTableRecord
  2
ACAD
 70
     0
  0
ENDTAB
  0
TABLE
  2
DIMSTYLE
  5
A
330
0
100
AcDbSymbolTable
 70
     1
100
AcDbDimStyleTable
  0
DIMSTYLE
105
27
102
{ACAD_REACTORS
330
D9
330
E7
330
F4
330
101
330
10E
330
117
330
120
330
129
330
132
330
13B
330
144
330
14D
330
156
330
15F
330
168
330
171
330
17A
330
183
330
18C
330
195
330
19E
330
1A7
330
1B0
330
1B9
330
1C2
330
1CB
330
1D4
330
1DD
330
1E6
330
1EF
330
1F8
330
201
330
20A
330
213
330
21C
330
225
330
22E
102
}
330
A
100
AcDbSymbolTableRecord
100
AcDbDimStyleTableRecord
  2
ISO-25
 70
     0
 41
2.5
 42
0.625
 43
3.75
 44
1.25
 73
     0
 74
     0
 77
     1
 78
     8
140
2.5
141
2.5
143
0.03937007874016
147
0.625
171
     3
172
     1
178
     0
271
     2
272
     2
274
     3
278
    44
283
     0
284
     8
340
11
  0
ENDTAB
  0
TABLE
  2
BLOCK_RECORD
  5
1
330
0
100
AcDbSymbolTable
 70
    38
  0
BLOCK_RECORD
  5
1F
330
1
100
AcDbSymbolTableRecord
100
AcDbBlockTableRecord
  2
*Model_Space
340
22
 70
     0
280
     1
281
     0
  0
BLOCK_RECORD
  5
1B
330
1
100
AcDbSymbolTableRecord
100
AcDbBlockTableRecord
  2
*Paper_Space
340
1E
 70
     0
280
     1
281
     0
  0
BLOCK_RECORD
  5
23
330
1
100
AcDbSymbolTableRecord
100
AcDbBlockTableRecord
  2
*Paper_Space0
340
26
 70
     0
280
     1
281
     0
  0
BLOCK_RECORD
  5
DB
330
1
100
AcDbSymbolTableRecord
100
AcDbBlockTableRecord
  2
*D1
340
0
 70
     0
280
     1
281
     0
  0
BLOCK_RECORD
  5
E8
330
1
100
AcDbSymbolTableRecord
100
AcDbBlockTableRecord
  2
*D2
340
0
 70
     0
280
     1
281
     0
  0
BLOCK_RECORD
  5
F5
330
1
100
AcDbSymbolTableRecord
100
AcDbBlockTableRecord
  2
*D3
340
0
 70
     0
280
     1
281
     0
  0
BLOCK_RECORD
  5
102
330
1
100
AcDbSymbolTableRecord
100
AcDbBlockTableRecord
  2
*D4
340
0
 70
     0
280
     1
281
     0
  0
BLOCK_RECORD
  5
10F
330
1
100
AcDbSymbolTableRecord
100
AcDbBlockTableRecord
  2
*D5
340
0
 70
     0
280
     1
281
     0
  0
BLOCK_RECORD
  5
118
330
1
100
AcDbSymbolTableRecord
100
AcDbBlockTableRecord
  2
*D6
340
0
 70
     0
280
     1
281
     0
  0
BLOCK_RECORD
  5
121
330
1
100
AcDbSymbolTableRecord
100
AcDbBlockTableRecord
  2
*D7
340
0
 70
     0
280
     1
281
     0
  0
BLOCK_RECORD
  5
12A
330
1
100
AcDbSymbolTableRecord
100
AcDbBlockTableRecord
  2
*D8
340
0
 70
     0
280
     1
281
     0
  0
BLOCK_RECORD
  5
133
330
1
100
AcDbSymbolTableRecord
100
AcDbBlockTableRecord
  2
*D9
340
0
 70
     0
280
     1
281
     0
  0
BLOCK_RECORD
  5
13C
330
1
100
AcDbSymbolTableRecord
100
AcDbBlockTableRecord
  2
*D10
340
0
 70
     0
280
     1
281
     0
  0
BLOCK_RECORD
  5
145
330
1
100
AcDbSymbolTableRecord
100
AcDbBlockTableRecord
  2
*D11
340
0
 70
     0
280
     1
281
     0
  0
BLOCK_RECORD
  5
14E
330
1
100
AcDbSymbolTableRecord
100
AcDbBlockTableRecord
  2
*D12
340
0
 70
     0
280
     1
281
     0
  0
BLOCK_RECORD
  5
157
330
1
100
AcDbSymbolTableRecord
100
AcDbBlockTableRecord
  2
*D13
340
0
 70
     0
280
     1
281
     0
  0
BLOCK_RECORD
  5
160
330
1
100
AcDbSymbolTableRecord
100
AcDbBlockTableRecord
  2
*D14
340
0
 70
     0
280
     1
281
     0
  0
BLOCK_RECORD
  5
169
330
1
100
AcDbSymbolTableRecord
100
AcDbBlockTableRecord
  2
*D15
340
0
 70
     0
280
     1
281
     0
  0
BLOCK_RECORD
  5
172
330
1
100
AcDbSymbolTableRecord
100
AcDbBlockTableRecord
  2
*D16
340
0
 70
     0
280
     1
281
     0
  0
BLOCK_RECORD
  5
17B
330
1
100
AcDbSymbolTableRecord
100
AcDbBlockTableRecord
  2
*D17
340
0
 70
     0
280
     1
281
     0
  0
BLOCK_RECORD
  5
184
330
1
100
AcDbSymbolTableRecord
100
AcDbBlockTableRecord
  2
*D18
340
0
 70
     0
280
     1
281
     0
  0
BLOCK_RECORD
  5
18D
330
1
100
AcDbSymbolTableRecord
100
AcDbBlockTableRecord
  2
*D19
340
0
 70
     0
280
     1
281
     0
  0
BLOCK_RECORD
  5
196
330
1
100
AcDbSymbolTableRecord
100
AcDbBlockTableRecord
  2
*D20
340
0
 70
     0
280
     1
281
     0
  0
BLOCK_RECORD
  5
19F
330
1
100
AcDbSymbolTableRecord
100
AcDbBlockTableRecord
  2
*D21
340
0
 70
     0
280
     1
281
     0
  0
BLOCK_RECORD
  5
1A8
330
1
100
AcDbSymbolTableRecord
100
AcDbBlockTableRecord
  2
*D22
340
0
 70
     0
280
     1
281
     0
  0
BLOCK_RECORD
  5
1B1
330
1
100
AcDbSymbolTableRecord
100
AcDbBlockTableRecord
  2
*D23
340
0
 70
     0
280
     1
281
     0
  0
BLOCK_RECORD
  5
1BA
330
1
100
AcDbSymbolTableRecord
100
AcDbBlockTableRecord
  2
*D24
340
0
 70
     0
280
     1
281
     0
  0
BLOCK_RECORD
  5
1C3
330
1
100
AcDbSymbolTableRecord
100
AcDbBlockTableRecord
  2
*D25
340
0
 70
     0
280
     1
281
     0
  0
BLOCK_RECORD
  5
1CC
330
1
100
AcDbSymbolTableRecord
100
AcDbBlockTableRecord
  2
*D26
340
0
 70
     0
280
     1
281
     0
  0
BLOCK_RECORD
  5
1D5
330
1
100
AcDbSymbolTableRecord
100
AcDbBlockTableRecord
  2
*D27
340
0
 70
     0
280
     1
281
     0
  0
BLOCK_RECORD
  5
1DE
330
1
100
AcDbSymbolTableRecord
100
AcDbBlockTableRecord
  2
*D28
340
0
 70
     0
280
     1
281
     0
  0
BLOCK_RECORD
  5
1E7
330
1
100
AcDbSymbolTableRecord
100
AcDbBlockTableRecord
  2
*D29
340
0
 70
     0
280
     1
281
     0
  0
BLOCK_RECORD
  5
1F0
330
1
100
AcDbSymbolTableRecord
100
AcDbBlockTableRecord
  2
*D30
340
0
 70
     0
280
     1
281
     0
  0
BLOCK_RECORD
  5
1F9
330
1
100
AcDbSymbolTableRecord
100
AcDbBlockTableRecord
  2
*D31
340
0
 70
     0
280
     1
281
     0
  0
BLOCK_RECORD
  5
202
330
1
100
AcDbSymbolTableRecord
100
AcDbBlockTableRecord
  2
*D32
340
0
 70
     0
280
     1
281
     0
  0
BLOCK_RECORD
  5
20B
330
1
100
AcDbSymbolTableRecord
100
AcDbBlockTableRecord
  2
*D33
340
0
 70
     0
280
     1
281
     0
  0
BLOCK_RECORD
  5
214
330
1
100
AcDbSymbolTableRecord
100
AcDbBlockTableRecord
  2
*D34
340
0
 70
     0
280
     1
281
     0
  0
BLOCK_RECORD
  5
21D
330
1
100
AcDbSymbolTableRecord
100
AcDbBlockTableRecord
  2
*D35
340
0
 70
     0
280
     1
281
     0
  0
BLOCK_RECORD
  5
226
330
1
100
AcDbSymbolTableRecord
100
AcDbBlockTableRecord
  2
*D36
340
0
 70
     0
280
     1
281
     0
  0
BLOCK_RECORD
  5
22F
330
1
100
AcDbSymbolTableRecord
100
AcDbBlockTableRecord
  2
*D37
340
0
 70
     0
280
     1
281
     0
  0
ENDTAB
  0
ENDSEC
  0
SECTION
  2
BLOCKS
  0
BLOCK
  5
20
330
1F
100
AcDbEntity
  8
0
100
AcDbBlockBegin
  2
*Model_Space
 70
     0
 10
0.0
 20
0.0
 30
0.0
  3
*Model_Space
  1

  0
ENDBLK
  5
21
330
1F
100
AcDbEntity
  8
0
100
AcDbBlockEnd
  0
BLOCK
  5
1C
330
1B
100
AcDbEntity
 67
     1
  8
0
100
AcDbBlockBegin
  2
*Paper_Space
 70
     0
 10
0.0
 20
0.0
 30
0.0
  3
*Paper_Space
  1

  0
ENDBLK
  5
1D
330
1B
100
AcDbEntity
 67
     1
  8
0
100
AcDbBlockEnd
  0
BLOCK
  5
24
330
23
100
AcDbEntity
  8
0
100
AcDbBlockBegin
  2
*Paper_Space0
 70
     0
 10
0.0
 20
0.0
 30
0.0
  3
*Paper_Space0
  1

  0
ENDBLK
  5
25
330
23
100
AcDbEntity
  8
0
100
AcDbBlockEnd
  0
BLOCK
  5
DC
330
DB
100
AcDbEntity
  8
0
100
AcDbBlockBegin
  2
*D1
 70
     1
 10
0.0
 20
0.0
 30
0.0
  3
*D1
  1

  0
LINE
  5
DE
330
DB
100
AcDbEntity
  8
Dimensions
 62
   140
370
    -2
100
AcDbLine
 10
362.8497721522543
 20
121.0404312400681
 30
0.0
 11
362.8497721522543
 21
122.424279321308
 31
0.0
  0
LINE
  5
DF
330
DB
100
AcDbEntity
  8
Dimensions
 62
   140
370
    -2
100
AcDbLine
 10
372.155550930944
 20
121.0404312400681
 30
0.0
 11
372.155550930944
 21
122.424279321308
 31
0.0
  0
LINE
  5
E0
330
DB
100
AcDbEntity
  8
Dimensions
 62
   140
370
    -2
100
AcDbLine
 10
364.6628529657378
 20
121.5177389145662
 30
0.0
 11
370.3424701174604
 21
121.5177389145662
 31
0.0
  0
SOLID
  5
E1
330
DB
100
AcDbEntity
  8
Dimensions
 62
   140
100
AcDbTrace
 10
364.6628529657378
 20
121.8199190501468
 30
0.0
 11
364.6628529657378
 21
121.2155587789856
 31
0.0
 12
362.8497721522543
 22
121.5177389145662
 32
0.0
 13
362.8497721522543
 23
121.5177389145662
 33
0.0
  0
SOLID
  5
E2
330
DB
100
AcDbEntity
  8
Dimensions
 62
   140
100
AcDbTrace
 10
370.3424701174604
 20
121.2155587789856
 30
0.0
 11
370.3424701174604
 21
121.8199190501468
 31
0.0
 12
372.155550930944
 22
121.5177389145662
 32
0.0
 13
372.155550930944
 23
121.5177389145662
 33
0.0
  0
MTEXT
  5
E3
330
DB
100
AcDbEntity
  8
Dimensions
 62
   140
100
AcDbMText
 10
367.5026615415991
 20
123.0502238878678
 30
0.0
 40
1.813080813483582
 41
0.0
 46
0.0
 71
     5
 72
     1
  1
9,306
 73
     1
 44
1.0
  0
POINT
  5
E4
330
DB
100
AcDbEntity
  8
Defpoints
 62
     0
100
AcDbPoint
 10
362.8497721522543
 20
120.5871610366972
 30
0.0
  0
POINT
  5
E5
330
DB
100
AcDbEntity
  8
Defpoints
 62
     0
100
AcDbPoint
 10
372.155550930944
 20
120.5871610366972
 30
0.0
  0
POINT
  5
E6
330
DB
100
AcDbEntity
  8
Defpoints
 62
     0
100
AcDbPoint
 10
372.155550930944
 20
121.5177389145662
 30
0.0
  0
ENDBLK
  5
DD
330
DB
100
AcDbEntity
  8
0
100
AcDbBlockEnd
  0
BLOCK
  5
E9
330
E8
100
AcDbEntity
  8
0
100
AcDbBlockBegin
  2
*D2
 70
     1
 10
0.0
 20
0.0
 30
0.0
  3
*D2
  1

  0
LINE
  5
EB
330
E8
100
AcDbEntity
  8
Dimensions
 62
   140
370
    -2
100
AcDbLine
 10
371.4672002571255
 20
59.43341657027154
 30
0.0
 11
371.4672002571255
 21
60.68168173651713
 31
0.0
  0
LINE
  5
EC
330
E8
100
AcDbEntity
  8
Dimensions
 62
   140
370
    -2
100
AcDbLine
 10
379.4171498858725
 20
59.43341657027154
 30
0.0
 11
379.4171498858725
 21
60.68168173651713
 31
0.0
  0
LINE
  5
ED
330
E8
100
AcDbEntity
  8
Dimensions
 62
   140
370
    -2
100
AcDbLine
 10
373.280281070609
 20
59.77514132977534
 30
0.0
 11
377.6040690723889
 21
59.77514132977534
 31
0.0
  0
SOLID
  5
EE
330
E8
100
AcDbEntity
  8
Dimensions
 62
   140
100
AcDbTrace
 10
373.280281070609
 20
60.07732146535594
 30
0.0
 11
373.280281070609
 21
59.47296119419475
 31
0.0
 12
371.4672002571255
 22
59.77514132977534
 32
0.0
 13
371.4672002571255
 23
59.77514132977534
 33
0.0
  0
SOLID
  5
EF
330
E8
100
AcDbEntity
  8
Dimensions
 62
   140
100
AcDbTrace
 10
377.6040690723889
 20
59.47296119419475
 30
0.0
 11
377.6040690723889
 21
60.07732146535594
 31
0.0
 12
379.4171498858725
 22
59.77514132977534
 32
0.0
 13
379.4171498858725
 23
59.77514132977534
 33
0.0
  0
MTEXT
  5
F0
330
E8
100
AcDbEntity
  8
Dimensions
 62
   140
100
AcDbMText
 10
375.442175071499
 20
61.30762630307694
 30
0.0
 40
1.813080813483582
 41
0.0
 46
0.0
 71
     5
 72
     1
  1
7,95
 73
     1
 44
1.0
  0
POINT
  5
F1
330
E8
100
AcDbEntity
  8
Defpoints
 62
     0
100
AcDbPoint
 10
371.4672002571255
 20
58.98014636690064
 30
0.0
  0
POINT
  5
F2
330
E8
100
AcDbEntity
  8
Defpoints
 62
     0
100
AcDbPoint
 10
379.4171498858725
 20
58.98014636690064
 30
0.0
  0
POINT
  5
F3
330
E8
100
AcDbEntity
  8
Defpoints
 62
     0
100
AcDbPoint
 10
379.4171498858725
 20
59.77514132977534
 30
0.0
  0
ENDBLK
  5
EA
330
E8
100
AcDbEntity
  8
0
100
AcDbBlockEnd
  0
BLOCK
  5
F6
330
F5
100
AcDbEntity
  8
0
100
AcDbBlockBegin
  2
*D3
 70
     1
 10
0.0
 20
0.0
 30
0.0
  3
*D3
  1

  0
LINE
  5
F8
330
F5
100
AcDbEntity
  8
Dimensions
 62
   140
370
    -2
100
AcDbLine
 10
362.3965019488834
 20
120.5871610366972
 30
0.0
 11
361.363127337466
 21
120.5871610366972
 31
0.0
  0
LINE
  5
F9
330
F5
100
AcDbEntity
  8
Dimensions
 62
   140
370
    -2
100
AcDbLine
 10
362.3965019488834
 20
126.3882051171618
 30
0.0
 11
361.363127337466
 21
126.3882051171618
 31
0.0
  0
LINE
  5
FA
330
F5
100
AcDbEntity
  8
Dimensions
 62
   140
370
    -2
100
AcDbLine
 10
362.2696677442078
 20
122.4002418501808
 30
0.0
 11
362.2696677442078
 21
124.5751243036782
 31
0.0
  0
SOLID
  5
FB
330
F5
100
AcDbEntity
  8
Dimensions
 62
   140
100
AcDbTrace
 10
361.9674876086272
 20
122.4002418501808
 30
0.0
 11
362.5718478797884
 21
122.4002418501808
 31
0.0
 12
362.2696677442078
 22
120.5871610366972
 32
0.0
 13
362.2696677442078
 23
120.5871610366972
 33
0.0
  0
SOLID
  5
FC
330
F5
100
AcDbEntity
  8
Dimensions
 62
   140
100
AcDbTrace
 10
362.5718478797884
 20
124.5751243036782
 30
0.0
 11
361.9674876086272
 21
124.5751243036782
 31
0.0
 12
362.2696677442078
 22
126.3882051171618
 32
0.0
 13
362.2696677442078
 23
126.3882051171618
 33
0.0
  0
MTEXT
  5
FD
330
F5
100
AcDbEntity
  8
Dimensions
 62
   140
100
AcDbMText
 10
360.7371827709062
 20
123.4876830769295
 30
0.0
 40
1.813080813483582
 41
0.0
 46
0.0
 71
     5
 72
     1
  1
5,801
 11
0.0
 21
1.0
 31
0.0
 73
     1
 44
1.0
  0
POINT
  5
FE
330
F5
100
AcDbEntity
  8
Defpoints
 62
     0
100
AcDbPoint
 10
362.8497721522543
 20
120.5871610366972
 30
0.0
  0
POINT
  5
FF
330
F5
100
AcDbEntity
  8
Defpoints
 62
     0
100
AcDbPoint
 10
362.8497721522543
 20
126.3882051171618
 30
0.0
  0
POINT
  5
100
330
F5
100
AcDbEntity
  8
Defpoints
 62
     0
100
AcDbPoint
 10
362.2696677442078
 20
126.3882051171618
 30
0.0
  0
ENDBLK
  5
F7
330
F5
100
AcDbEntity
  8
0
100
AcDbBlockEnd
  0
BLOCK
  5
103
330
102
100
AcDbEntity
  8
0
100
AcDbBlockBegin
  2
*D4
 70
     1
 10
0.0
 20
0.0
 30
0.0
  3
*D4
  1

  0
LINE
  5
105
330
102
100
AcDbEntity
  8
Dimensions
 62
   140
370
    -2
100
AcDbLine
 10
371.0139300537546
 20
58.98014636690064
 30
0.0
 11
370.040815380594
 21
58.98014636690064
 31
0.0
  0
LINE
  5
106
330
102
100
AcDbEntity
  8
Dimensions
 62
   140
370
    -2
100
AcDbLine
 10
371.0139300537546
 20
64.17859106479676
 30
0.0
 11
370.040815380594
 21
64.17859106479676
 31
0.0
  0
LINE
  5
107
330
102
100
AcDbEntity
  8
Dimensions
 62
   140
370
    -2
100
AcDbLine
 10
370.9473557873358
 20
60.79322718038422
 30
0.0
 11
370.9473557873358
 21
62.36551025131318
 31
0.0
  0
SOLID
  5
108
330
102
100
AcDbEntity
  8
Dimensions
 62
   140
100
AcDbTrace
 10
370.6451756517552
 20
60.79322718038422
 30
0.0
 11
371.2495359229164
 21
60.79322718038422
 31
0.0
 12
370.9473557873358
 22
58.98014636690064
 32
0.0
 13
370.9473557873358
 23
58.98014636690064
 33
0.0
  0
SOLID
  5
109
330
102
100
AcDbEntity
  8
Dimensions
 62
   140
100
AcDbTrace
 10
371.2495359229164
 20
62.36551025131318
 30
0.0
 11
370.6451756517552
 21
62.36551025131318
 31
0.0
 12
370.9473557873358
 22
64.17859106479676
 32
0.0
 13
370.9473557873358
 23
64.17859106479676
 33
0.0
  0
MTEXT
  5
10A
330
102
100
AcDbEntity
  8
Dimensions
 62
   140
100
AcDbMText
 10
369.4148708140342
 20
61.5793687158487
 30
0.0
 40
1.813080813483582
 41
0.0
 46
0.0
 71
     5
 72
     1
  1
5,198
 11
0.0
 21
1.0
 31
0.0
 73
     1
 44
1.0
  0
POINT
  5
10B
330
102
100
AcDbEntity
  8
Defpoints
 62
     0
100
AcDbPoint
 10
371.4672002571255
 20
58.98014636690064
 30
0.0
  0
POINT
  5
10C
330
102
100
AcDbEntity
  8
Defpoints
 62
     0
100
AcDbPoint
 10
371.4672002571255
 20
64.17859106479676
 30
0.0
  0
POINT
  5
10D
330
102
100
AcDbEntity
  8
Defpoints
 62
     0
100
AcDbPoint
 10
370.9473557873358
 20
64.17859106479676
 30
0.0
  0
ENDBLK
  5
104
330
102
100
AcDbEntity
  8
0
100
AcDbBlockEnd
  0
BLOCK
  5
110
330
10F
100
AcDbEntity
  8
0
100
AcDbBlockBegin
  2
*D5
 70
     1
 10
0.0
 20
0.0
 30
0.0
  3
*D5
  1

  0
LINE
  5
112
330
10F
100
AcDbEntity
  8
Dimensions
 62
   140
370
    -2
100
AcDbLine
 10
344.6261768402764
 20
94.67579435543148
 30
0.0
 11
339.057428627434
 21
94.67579435543148
 31
0.0
  0
MTEXT
  5
113
330
10F
100
AcDbEntity
  8
Dimensions
 62
   140
100
AcDbMText
 10
340.9352623271134
 20
96.03560496554417
 30
0.0
 40
1.813080813483582
 41
0.0
 46
0.0
 71
     5
 72
     1
  1
%%c3
 73
     1
 44
1.0
  0
SOLID
  5
114
330
10F
100
AcDbEntity
  8
Dimensions
 62
   140
100
AcDbTrace
 10
344.6261768402764
 20
94.37361421985088
 30
0.0
 11
344.6261768402764
 21
94.97797449101208
 31
0.0
 12
346.43925765376
 22
94.67579435543148
 32
0.0
 13
346.43925765376
 23
94.67579435543148
 33
0.0
  0
POINT
  5
115
330
10F
100
AcDbEntity
  8
Defpoints
 62
     0
100
AcDbPoint
 10
346.43925765376
 20
94.67579435543148
 30
0.0
  0
POINT
  5
116
330
10F
100
AcDbEntity
  8
Defpoints
 62
     0
100
AcDbPoint
 10
343.43925765376
 20
94.67579435543148
 30
0.0
  0
ENDBLK
  5
111
330
10F
100
AcDbEntity
  8
0
100
AcDbBlockEnd
  0
BLOCK
  5
119
330
118
100
AcDbEntity
  8
0
100
AcDbBlockBegin
  2
*D6
 70
     1
 10
0.0
 20
0.0
 30
0.0
  3
*D6
  1

  0
LINE
  5
11B
330
118
100
AcDbEntity
  8
Dimensions
 62
   140
370
    -2
100
AcDbLine
 10
397.2952239580777
 20
84.56915952010792
 30
0.0
 11
391.7264757452353
 21
84.56915952010792
 31
0.0
  0
MTEXT
  5
11C
330
118
100
AcDbEntity
  8
Dimensions
 62
   140
100
AcDbMText
 10
393.6043094449147
 20
85.9289701302206
 30
0.0
 40
1.813080813483582
 41
0.0
 46
0.0
 71
     5
 72
     1
  1
%%c3
 73
     1
 44
1.0
  0
SOLID
  5
11D
330
118
100
AcDbEntity
  8
Dimensions
 62
   140
100
AcDbTrace
 10
397.2952239580777
 20
84.26697938452732
 30
0.0
 11
397.2952239580777
 21
84.87133965568852
 31
0.0
 12
399.1083047715613
 22
84.56915952010792
 32
0.0
 13
399.1083047715613
 23
84.56915952010792
 33
0.0
  0
POINT
  5
11E
330
118
100
AcDbEntity
  8
Defpoints
 62
     0
100
AcDbPoint
 10
399.1083047715613
 20
84.56915952010792
 30
0.0
  0
POINT
  5
11F
330
118
100
AcDbEntity
  8
Defpoints
 62
     0
100
AcDbPoint
 10
396.1083047715613
 20
84.56915952010792
 30
0.0
  0
ENDBLK
  5
11A
330
118
100
AcDbEntity
  8
0
100
AcDbBlockEnd
  0
BLOCK
  5
122
330
121
100
AcDbEntity
  8
0
100
AcDbBlockBegin
  2
*D7
 70
     1
 10
0.0
 20
0.0
 30
0.0
  3
*D7
  1

  0
LINE
  5
124
330
121
100
AcDbEntity
  8
Dimensions
 62
   140
370
    -2
100
AcDbLine
 10
375.1960392097119
 20
135.5116648444806
 30
0.0
 11
367.0371755490358
 21
135.5116648444806
 31
0.0
  0
MTEXT
  5
125
330
121
100
AcDbEntity
  8
Dimensions
 62
   140
100
AcDbMText
 10
370.210066972632
 20
137.0441498177822
 30
0.0
 40
1.813080813483582
 41
0.0
 46
0.0
 71
     5
 72
     1
  1
%%c3,2
 73
     1
 44
1.0
  0
SOLID
  5
126
330
121
100
AcDbEntity
  8
Dimensions
 62
   140
100
AcDbTrace
 10
375.1960392097119
 20
135.2094847089
 30
0.0
 11
375.1960392097119
 21
135.8138449800612
 31
0.0
 12
377.0091200231955
 22
135.5116648444806
 32
0.0
 13
377.0091200231955
 23
135.5116648444806
 33
0.0
  0
POINT
  5
127
330
121
100
AcDbEntity
  8
Defpoints
 62
     0
100
AcDbPoint
 10
377.0091200231955
 20
135.5116648444806
 30
0.0
  0
POINT
  5
128
330
121
100
AcDbEntity
  8
Defpoints
 62
     0
100
AcDbPoint
 10
373.8091200231955
 20
135.5116648444806
 30
0.0
  0
ENDBLK
  5
123
330
121
100
AcDbEntity
  8
0
100
AcDbBlockEnd
  0
BLOCK
  5
12B
330
12A
100
AcDbEntity
  8
0
100
AcDbBlockBegin
  2
*D8
 70
     1
 10
0.0
 20
0.0
 30
0.0
  3
*D8
  1

  0
LINE
  5
12D
330
12A
100
AcDbEntity
  8
Dimensions
 62
   140
370
    -2
100
AcDbLine
 10
363.2376501022999
 20
36.28121135956494
 30
0.0
 11
355.0787864416238
 21
36.28121135956494
 31
0.0
  0
MTEXT
  5
12E
330
12A
100
AcDbEntity
  8
Dimensions
 62
   140
100
AcDbMText
 10
358.2516778652201
 20
37.81369633286654
 30
0.0
 40
1.813080813483582
 41
0.0
 46
0.0
 71
     5
 72
     1
  1
%%c3,3
 73
     1
 44
1.0
  0
SOLID
  5
12F
330
12A
100
AcDbEntity
  8
Dimensions
 62
   140
100
AcDbTrace
 10
363.2376501022999
 20
35.97903122398434
 30
0.0
 11
363.2376501022999
 21
36.58339149514554
 31
0.0
 12
365.0507309157835
 22
36.28121135956494
 32
0.0
 13
365.0507309157835
 23
36.28121135956494
 33
0.0
  0
POINT
  5
130
330
12A
100
AcDbEntity
  8
Defpoints
 62
     0
100
AcDbPoint
 10
365.0507309157835
 20
36.28121135956494
 30
0.0
  0
POINT
  5
131
330
12A
100
AcDbEntity
  8
Defpoints
 62
     0
100
AcDbPoint
 10
361.7507309157835
 20
36.28121135956494
 30
0.0
  0
ENDBLK
  5
12C
330
12A
100
AcDbEntity
  8
0
100
AcDbBlockEnd
  0
BLOCK
  5
134
330
133
100
AcDbEntity
  8
0
100
AcDbBlockBegin
  2
*D9
 70
     1
 10
0.0
 20
0.0
 30
0.0
  3
*D9
  1

  0
LINE
  5
136
330
133
100
AcDbEntity
  8
Dimensions
 62
   140
370
    -2
100
AcDbLine
 10
328.6093419646142
 20
99.67579435543115
 30
0.0
 11
323.0405937517718
 21
99.67579435543115
 31
0.0
  0
MTEXT
  5
137
330
133
100
AcDbEntity
  8
Dimensions
 62
   140
100
AcDbMText
 10
324.9184274514512
 20
101.0356049655438
 30
0.0
 40
1.813080813483582
 41
0.0
 46
0.0
 71
     5
 72
     1
  1
%%c3
 73
     1
 44
1.0
  0
SOLID
  5
138
330
133
100
AcDbEntity
  8
Dimensions
 62
   140
100
AcDbTrace
 10
328.6093419646142
 20
99.37361421985055
 30
0.0
 11
328.6093419646142
 21
99.97797449101175
 31
0.0
 12
330.4224227780978
 22
99.67579435543115
 32
0.0
 13
330.4224227780978
 23
99.67579435543115
 33
0.0
  0
POINT
  5
139
330
133
100
AcDbEntity
  8
Defpoints
 62
     0
100
AcDbPoint
 10
330.4224227780978
 20
99.67579435543115
 30
0.0
  0
POINT
  5
13A
330
133
100
AcDbEntity
  8
Defpoints
 62
     0
100
AcDbPoint
 10
327.4224227780978
 20
99.67579435543115
 30
0.0
  0
ENDBLK
  5
135
330
133
100
AcDbEntity
  8
0
100
AcDbBlockEnd
  0
BLOCK
  5
13D
330
13C
100
AcDbEntity
  8
0
100
AcDbBlockBegin
  2
*D10
 70
     1
 10
0.0
 20
0.0
 30
0.0
  3
*D10
  1

  0
LINE
  5
13F
330
13C
100
AcDbEntity
  8
Dimensions
 62
   140
370
    -2
100
AcDbLine
 10
327.2952239580789
 20
84.56915952010792
 30
0.0
 11
321.7264757452365
 21
84.56915952010792
 31
0.0
  0
MTEXT
  5
140
330
13C
100
AcDbEntity
  8
Dimensions
 62
   140
100
AcDbMText
 10
323.6043094449159
 20
85.9289701302206
 30
0.0
 40
1.813080813483582
 41
0.0
 46
0.0
 71
     5
 72
     1
  1
%%c3
 73
     1
 44
1.0
  0
SOLID
  5
141
330
13C
100
AcDbEntity
  8
Dimensions
 62
   140
100
AcDbTrace
 10
327.2952239580789
 20
84.26697938452732
 30
0.0
 11
327.2952239580789
 21
84.87133965568852
 31
0.0
 12
329.1083047715625
 22
84.56915952010792
 32
0.0
 13
329.1083047715625
 23
84.56915952010792
 33
0.0
  0
POINT
  5
142
330
13C
100
AcDbEntity
  8
Defpoints
 62
     0
100
AcDbPoint
 10
329.1083047715625
 20
84.56915952010792
 30
0.0
  0
POINT
  5
143
330
13C
100
AcDbEntity
  8
Defpoints
 62
     0
100
AcDbPoint
 10
326.1083047715625
 20
84.56915952010792
 30
0.0
  0
ENDBLK
  5
13E
330
13C
100
AcDbEntity
  8
0
100
AcDbBlockEnd
  0
BLOCK
  5
146
330
145
100
AcDbEntity
  8
0
100
AcDbBlockBegin
  2
*D11
 70
     1
 10
0.0
 20
0.0
 30
0.0
  3
*D11
  1

  0
LINE
  5
148
330
145
100
AcDbEntity
  8
Dimensions
 62
   140
370
    -2
100
AcDbLine
 10
340.7287544660677
 20
81.35710768065142
 30
0.0
 11
332.5698908053916
 21
81.35710768065142
 31
0.0
  0
MTEXT
  5
149
330
145
100
AcDbEntity
  8
Dimensions
 62
   140
100
AcDbMText
 10
335.7427822289878
 20
82.88959265395302
 30
0.0
 40
1.813080813483582
 41
0.0
 46
0.0
 71
     5
 72
     1
  1
%%c3,3
 73
     1
 44
1.0
  0
SOLID
  5
14A
330
145
100
AcDbEntity
  8
Dimensions
 62
   140
100
AcDbTrace
 10
340.7287544660677
 20
81.05492754507083
 30
0.0
 11
340.7287544660677
 21
81.65928781623202
 31
0.0
 12
342.5418352795513
 22
81.35710768065142
 32
0.0
 13
342.5418352795513
 23
81.35710768065142
 33
0.0
  0
POINT
  5
14B
330
145
100
AcDbEntity
  8
Defpoints
 62
     0
100
AcDbPoint
 10
342.5418352795513
 20
81.35710768065142
 30
0.0
  0
POINT
  5
14C
330
145
100
AcDbEntity
  8
Defpoints
 62
     0
100
AcDbPoint
 10
339.2418352795513
 20
81.35710768065142
 30
0.0
  0
ENDBLK
  5
147
330
145
100
AcDbEntity
  8
0
100
AcDbBlockEnd
  0
BLOCK
  5
14F
330
14E
100
AcDbEntity
  8
0
100
AcDbBlockBegin
  2
*D12
 70
     1
 10
0.0
 20
0.0
 30
0.0
  3
*D12
  1

  0
LINE
  5
151
330
14E
100
AcDbEntity
  8
Dimensions
 62
   140
370
    -2
100
AcDbLine
 10
387.0366913387712
 20
174.3506419690432
 30
0.0
 11
381.4679431259287
 21
174.3506419690432
 31
0.0
  0
MTEXT
  5
152
330
14E
100
AcDbEntity
  8
Dimensions
 62
   140
100
AcDbMText
 10
383.3457768256081
 20
175.7104525791559
 30
0.0
 40
1.813080813483582
 41
0.0
 46
0.0
 71
     5
 72
     1
  1
%%c3
 73
     1
 44
1.0
  0
SOLID
  5
153
330
14E
100
AcDbEntity
  8
Dimensions
 62
   140
100
AcDbTrace
 10
387.0366913387712
 20
174.0484618334626
 30
0.0
 11
387.0366913387712
 21
174.6528221046238
 31
0.0
 12
388.8497721522547
 22
174.3506419690432
 32
0.0
 13
388.8497721522547
 23
174.3506419690432
 33
0.0
  0
POINT
  5
154
330
14E
100
AcDbEntity
  8
Defpoints
 62
     0
100
AcDbPoint
 10
388.8497721522547
 20
174.3506419690432
 30
0.0
  0
POINT
  5
155
330
14E
100
AcDbEntity
  8
Defpoints
 62
     0
100
AcDbPoint
 10
385.8497721522547
 20
174.3506419690432
 30
0.0
  0
ENDBLK
  5
150
330
14E
100
AcDbEntity
  8
0
100
AcDbBlockEnd
  0
BLOCK
  5
158
330
157
100
AcDbEntity
  8
0
100
AcDbBlockBegin
  2
*D13
 70
     1
 10
0.0
 20
0.0
 30
0.0
  3
*D13
  1

  0
LINE
  5
15A
330
157
100
AcDbEntity
  8
Dimensions
 62
   140
370
    -2
100
AcDbLine
 10
391.3534424684854
 20
97.26915952010799
 30
0.0
 11
383.1945788078093
 21
97.26915952010799
 31
0.0
  0
MTEXT
  5
15B
330
157
100
AcDbEntity
  8
Dimensions
 62
   140
100
AcDbMText
 10
386.3674702314055
 20
98.80164449340958
 30
0.0
 40
1.813080813483582
 41
0.0
 46
0.0
 71
     5
 72
     1
  1
%%c3,2
 73
     1
 44
1.0
  0
SOLID
  5
15C
330
157
100
AcDbEntity
  8
Dimensions
 62
   140
100
AcDbTrace
 10
391.3534424684854
 20
96.96697938452739
 30
0.0
 11
391.3534424684854
 21
97.57133965568859
 31
0.0
 12
393.166523281969
 22
97.26915952010799
 32
0.0
 13
393.166523281969
 23
97.26915952010799
 33
0.0
  0
POINT
  5
15D
330
157
100
AcDbEntity
  8
Defpoints
 62
     0
100
AcDbPoint
 10
393.166523281969
 20
97.26915952010799
 30
0.0
  0
POINT
  5
15E
330
157
100
AcDbEntity
  8
Defpoints
 62
     0
100
AcDbPoint
 10
389.966523281969
 20
97.26915952010799
 30
0.0
  0
ENDBLK
  5
159
330
157
100
AcDbEntity
  8
0
100
AcDbBlockEnd
  0
BLOCK
  5
161
330
160
100
AcDbEntity
  8
0
100
AcDbBlockBegin
  2
*D14
 70
     1
 10
0.0
 20
0.0
 30
0.0
  3
*D14
  1

  0
LINE
  5
163
330
160
100
AcDbEntity
  8
Dimensions
 62
   140
370
    -2
100
AcDbLine
 10
362.3645618127837
 20
152.9044910700266
 30
0.0
 11
356.7958135999413
 21
152.9044910700266
 31
0.0
  0
MTEXT
  5
164
330
160
100
AcDbEntity
  8
Dimensions
 62
   140
100
AcDbMText
 10
358.6736472996207
 20
154.2643016801393
 30
0.0
 40
1.813080813483582
 41
0.0
 46
0.0
 71
     5
 72
     1
  1
%%c3
 73
     1
 44
1.0
  0
SOLID
  5
165
330
160
100
AcDbEntity
  8
Dimensions
 62
   140
100
AcDbTrace
 10
362.3645618127837
 20
152.602310934446
 30
0.0
 11
362.3645618127837
 21
153.2066712056072
 31
0.0
 12
364.1776426262673
 22
152.9044910700266
 32
0.0
 13
364.1776426262673
 23
152.9044910700266
 33
0.0
  0
POINT
  5
166
330
160
100
AcDbEntity
  8
Defpoints
 62
     0
100
AcDbPoint
 10
364.1776426262673
 20
152.9044910700266
 30
0.0
  0
POINT
  5
167
330
160
100
AcDbEntity
  8
Defpoints
 62
     0
100
AcDbPoint
 10
361.1776426262673
 20
152.9044910700266
 30
0.0
  0
ENDBLK
  5
162
330
160
100
AcDbEntity
  8
0
100
AcDbBlockEnd
  0
BLOCK
  5
16A
330
169
100
AcDbEntity
  8
0
100
AcDbBlockBegin
  2
*D15
 70
     1
 10
0.0
 20
0.0
 30
0.0
  3
*D15
  1

  0
LINE
  5
16C
330
169
100
AcDbEntity
  8
Dimensions
 62
   140
370
    -2
100
AcDbLine
 10
350.0773434678295
 20
135.5116648444806
 30
0.0
 11
341.9184798071533
 21
135.5116648444806
 31
0.0
  0
MTEXT
  5
16D
330
169
100
AcDbEntity
  8
Dimensions
 62
   140
100
AcDbMText
 10
345.0913712307496
 20
137.0441498177822
 30
0.0
 40
1.813080813483582
 41
0.0
 46
0.0
 71
     5
 72
     1
  1
%%c3,2
 73
     1
 44
1.0
  0
SOLID
  5
16E
330
169
100
AcDbEntity
  8
Dimensions
 62
   140
100
AcDbTrace
 10
350.0773434678295
 20
135.2094847089
 30
0.0
 11
350.0773434678295
 21
135.8138449800612
 31
0.0
 12
351.890424281313
 22
135.5116648444806
 32
0.0
 13
351.890424281313
 23
135.5116648444806
 33
0.0
  0
POINT
  5
16F
330
169
100
AcDbEntity
  8
Defpoints
 62
     0
100
AcDbPoint
 10
351.890424281313
 20
135.5116648444806
 30
0.0
  0
POINT
  5
170
330
169
100
AcDbEntity
  8
Defpoints
 62
     0
100
AcDbPoint
 10
348.690424281313
 20
135.5116648444806
 30
0.0
  0
ENDBLK
  5
16B
330
169
100
AcDbEntity
  8
0
100
AcDbBlockEnd
  0
BLOCK
  5
173
330
172
100
AcDbEntity
  8
0
100
AcDbBlockBegin
  2
*D16
 70
     1
 10
0.0
 20
0.0
 30
0.0
  3
*D16
  1

  0
LINE
  5
175
330
172
100
AcDbEntity
  8
Dimensions
 62
   140
370
    -2
100
AcDbLine
 10
328.6093419646142
 20
127.4605867540989
 30
0.0
 11
323.0405937517718
 21
127.4605867540989
 31
0.0
  0
MTEXT
  5
176
330
172
100
AcDbEntity
  8
Dimensions
 62
   140
100
AcDbMText
 10
324.9184274514512
 20
128.8203973642116
 30
0.0
 40
1.813080813483582
 41
0.0
 46
0.0
 71
     5
 72
     1
  1
%%c3
 73
     1
 44
1.0
  0
SOLID
  5
177
330
172
100
AcDbEntity
  8
Dimensions
 62
   140
100
AcDbTrace
 10
328.6093419646142
 20
127.1584066185183
 30
0.0
 11
328.6093419646142
 21
127.7627668896795
 31
0.0
 12
330.4224227780978
 22
127.4605867540989
 32
0.0
 13
330.4224227780978
 23
127.4605867540989
 33
0.0
  0
POINT
  5
178
330
172
100
AcDbEntity
  8
Defpoints
 62
     0
100
AcDbPoint
 10
330.4224227780978
 20
127.4605867540989
 30
0.0
  0
POINT
  5
179
330
172
100
AcDbEntity
  8
Defpoints
 62
     0
100
AcDbPoint
 10
327.4224227780978
 20
127.4605867540989
 30
0.0
  0
ENDBLK
  5
174
330
172
100
AcDbEntity
  8
0
100
AcDbBlockEnd
  0
BLOCK
  5
17C
330
17B
100
AcDbEntity
  8
0
100
AcDbBlockBegin
  2
*D17
 70
     1
 10
0.0
 20
0.0
 30
0.0
  3
*D17
  1

  0
LINE
  5
17E
330
17B
100
AcDbEntity
  8
Dimensions
 62
   140
370
    -2
100
AcDbLine
 10
333.9199402090562
 20
97.26915952010799
 30
0.0
 11
325.7610765483801
 21
97.26915952010799
 31
0.0
  0
MTEXT
  5
17F
330
17B
100
AcDbEntity
  8
Dimensions
 62
   140
100
AcDbMText
 10
328.9339679719763
 20
98.80164449340958
 30
0.0
 40
1.813080813483582
 41
0.0
 46
0.0
 71
     5
 72
     1
  1
%%c3,2
 73
     1
 44
1.0
  0
SOLID
  5
180
330
17B
100
AcDbEntity
  8
Dimensions
 62
   140
100
AcDbTrace
 10
333.9199402090562
 20
96.96697938452739
 30
0.0
 11
333.9199402090562
 21
97.57133965568859
 31
0.0
 12
335.7330210225397
 22
97.26915952010799
 32
0.0
 13
335.7330210225397
 23
97.26915952010799
 33
0.0
  0
POINT
  5
181
330
17B
100
AcDbEntity
  8
Defpoints
 62
     0
100
AcDbPoint
 10
335.7330210225397
 20
97.26915952010799
 30
0.0
  0
POINT
  5
182
330
17B
100
AcDbEntity
  8
Defpoints
 62
     0
100
AcDbPoint
 10
332.5330210225397
 20
97.26915952010799
 30
0.0
  0
ENDBLK
  5
17D
330
17B
100
AcDbEntity
  8
0
100
AcDbBlockEnd
  0
BLOCK
  5
185
330
184
100
AcDbEntity
  8
0
100
AcDbBlockBegin
  2
*D18
 70
     1
 10
0.0
 20
0.0
 30
0.0
  3
*D18
  1

  0
LINE
  5
187
330
184
100
AcDbEntity
  8
Dimensions
 62
   140
370
    -2
100
AcDbLine
 10
345.7261768402761
 20
143.0257943554312
 30
0.0
 11
337.5673131796
 21
143.0257943554312
 31
0.0
  0
MTEXT
  5
188
330
184
100
AcDbEntity
  8
Dimensions
 62
   140
100
AcDbMText
 10
340.7402046031962
 20
144.5582793287328
 30
0.0
 40
1.813080813483582
 41
0.0
 46
0.0
 71
     5
 72
     1
  1
%%c3,2
 73
     1
 44
1.0
  0
SOLID
  5
189
330
184
100
AcDbEntity
  8
Dimensions
 62
   140
100
AcDbTrace
 10
345.7261768402761
 20
142.7236142198506
 30
0.0
 11
345.7261768402761
 21
143.3279744910118
 31
0.0
 12
347.5392576537596
 22
143.0257943554312
 32
0.0
 13
347.5392576537596
 23
143.0257943554312
 33
0.0
  0
POINT
  5
18A
330
184
100
AcDbEntity
  8
Defpoints
 62
     0
100
AcDbPoint
 10
347.5392576537596
 20
143.0257943554312
 30
0.0
  0
POINT
  5
18B
330
184
100
AcDbEntity
  8
Defpoints
 62
     0
100
AcDbPoint
 10
344.3392576537597
 20
143.0257943554312
 30
0.0
  0
ENDBLK
  5
186
330
184
100
AcDbEntity
  8
0
100
AcDbBlockEnd
  0
BLOCK
  5
18E
330
18D
100
AcDbEntity
  8
0
100
AcDbBlockBegin
  2
*D19
 70
     1
 10
0.0
 20
0.0
 30
0.0
  3
*D19
  1

  0
LINE
  5
190
330
18D
100
AcDbEntity
  8
Dimensions
 62
   140
370
    -2
100
AcDbLine
 10
336.3493433130108
 20
46.83573754587013
 30
0.0
 11
326.4637360204456
 21
46.83573754587013
 31
0.0
  0
MTEXT
  5
191
330
18D
100
AcDbEntity
  8
Dimensions
 62
   140
100
AcDbMText
 10
330.4999992599864
 20
48.36822251917173
 30
0.0
 40
1.813080813483582
 41
0.0
 46
0.0
 71
     5
 72
     1
  1
%%c3,05
 73
     1
 44
1.0
  0
SOLID
  5
192
330
18D
100
AcDbEntity
  8
Dimensions
 62
   140
100
AcDbTrace
 10
336.3493433130108
 20
46.53355741028953
 30
0.0
 11
336.3493433130108
 21
47.13791768145073
 31
0.0
 12
338.1624241264944
 22
46.83573754587013
 32
0.0
 13
338.1624241264944
 23
46.83573754587013
 33
0.0
  0
POINT
  5
193
330
18D
100
AcDbEntity
  8
Defpoints
 62
     0
100
AcDbPoint
 10
338.1624241264944
 20
46.83573754587013
 30
0.0
  0
POINT
  5
194
330
18D
100
AcDbEntity
  8
Defpoints
 62
     0
100
AcDbPoint
 10
335.1124241264944
 20
46.83573754587013
 30
0.0
  0
ENDBLK
  5
18F
330
18D
100
AcDbEntity
  8
0
100
AcDbBlockEnd
  0
BLOCK
  5
197
330
196
100
AcDbEntity
  8
0
100
AcDbBlockBegin
  2
*D20
 70
     1
 10
0.0
 20
0.0
 30
0.0
  3
*D20
  1

  0
LINE
  5
199
330
196
100
AcDbEntity
  8
Dimensions
 62
   140
370
    -2
100
AcDbLine
 10
387.1366913387712
 20
116.3506419690433
 30
0.0
 11
378.9778276780951
 21
116.3506419690433
 31
0.0
  0
MTEXT
  5
19A
330
196
100
AcDbEntity
  8
Dimensions
 62
   140
100
AcDbMText
 10
382.1507191016914
 20
117.8831269423449
 30
0.0
 40
1.813080813483582
 41
0.0
 46
0.0
 71
     5
 72
     1
  1
%%c3,2
 73
     1
 44
1.0
  0
SOLID
  5
19B
330
196
100
AcDbEntity
  8
Dimensions
 62
   140
100
AcDbTrace
 10
387.1366913387712
 20
116.0484618334627
 30
0.0
 11
387.1366913387712
 21
116.6528221046239
 31
0.0
 12
388.9497721522548
 22
116.3506419690433
 32
0.0
 13
388.9497721522548
 23
116.3506419690433
 33
0.0
  0
POINT
  5
19C
330
196
100
AcDbEntity
  8
Defpoints
 62
     0
100
AcDbPoint
 10
388.9497721522548
 20
116.3506419690433
 30
0.0
  0
POINT
  5
19D
330
196
100
AcDbEntity
  8
Defpoints
 62
     0
100
AcDbPoint
 10
385.7497721522549
 20
116.3506419690433
 30
0.0
  0
ENDBLK
  5
198
330
196
100
AcDbEntity
  8
0
100
AcDbBlockEnd
  0
BLOCK
  5
1A0
330
19F
100
AcDbEntity
  8
0
100
AcDbBlockBegin
  2
*D21
 70
     1
 10
0.0
 20
0.0
 30
0.0
  3
*D21
  1

  0
LINE
  5
1A2
330
19F
100
AcDbEntity
  8
Dimensions
 62
   140
370
    -2
100
AcDbLine
 10
338.1366913387711
 20
116.3506419690433
 30
0.0
 11
329.977827678095
 21
116.3506419690433
 31
0.0
  0
MTEXT
  5
1A3
330
19F
100
AcDbEntity
  8
Dimensions
 62
   140
100
AcDbMText
 10
333.1507191016913
 20
117.8831269423449
 30
0.0
 40
1.813080813483582
 41
0.0
 46
0.0
 71
     5
 72
     1
  1
%%c3,2
 73
     1
 44
1.0
  0
SOLID
  5
1A4
330
19F
100
AcDbEntity
  8
Dimensions
 62
   140
100
AcDbTrace
 10
338.1366913387711
 20
116.0484618334627
 30
0.0
 11
338.1366913387711
 21
116.6528221046239
 31
0.0
 12
339.9497721522547
 22
116.3506419690433
 32
0.0
 13
339.9497721522547
 23
116.3506419690433
 33
0.0
  0
POINT
  5
1A5
330
19F
100
AcDbEntity
  8
Defpoints
 62
     0
100
AcDbPoint
 10
339.9497721522547
 20
116.3506419690433
 30
0.0
  0
POINT
  5
1A6
330
19F
100
AcDbEntity
  8
Defpoints
 62
     0
100
AcDbPoint
 10
336.7497721522547
 20
116.3506419690433
 30
0.0
  0
ENDBLK
  5
1A1
330
19F
100
AcDbEntity
  8
0
100
AcDbBlockEnd
  0
BLOCK
  5
1A9
330
1A8
100
AcDbEntity
  8
0
100
AcDbBlockBegin
  2
*D22
 70
     1
 10
0.0
 20
0.0
 30
0.0
  3
*D22
  1

  0
LINE
  5
1AB
330
1A8
100
AcDbEntity
  8
Dimensions
 62
   140
370
    -2
100
AcDbLine
 10
338.0366913387712
 20
174.3506419690432
 30
0.0
 11
332.4679431259287
 21
174.3506419690432
 31
0.0
  0
MTEXT
  5
1AC
330
1A8
100
AcDbEntity
  8
Dimensions
 62
   140
100
AcDbMText
 10
334.3457768256081
 20
175.7104525791559
 30
0.0
 40
1.813080813483582
 41
0.0
 46
0.0
 71
     5
 72
     1
  1
%%c3
 73
     1
 44
1.0
  0
SOLID
  5
1AD
330
1A8
100
AcDbEntity
  8
Dimensions
 62
   140
100
AcDbTrace
 10
338.0366913387712
 20
174.0484618334626
 30
0.0
 11
338.0366913387712
 21
174.6528221046238
 31
0.0
 12
339.8497721522547
 22
174.3506419690432
 32
0.0
 13
339.8497721522547
 23
174.3506419690432
 33
0.0
  0
POINT
  5
1AE
330
1A8
100
AcDbEntity
  8
Defpoints
 62
     0
100
AcDbPoint
 10
339.8497721522547
 20
174.3506419690432
 30
0.0
  0
POINT
  5
1AF
330
1A8
100
AcDbEntity
  8
Defpoints
 62
     0
100
AcDbPoint
 10
336.8497721522547
 20
174.3506419690432
 30
0.0
  0
ENDBLK
  5
1AA
330
1A8
100
AcDbEntity
  8
0
100
AcDbBlockEnd
  0
BLOCK
  5
1B2
330
1B1
100
AcDbEntity
  8
0
100
AcDbBlockBegin
  2
*D23
 70
     1
 10
0.0
 20
0.0
 30
0.0
  3
*D23
  1

  0
LINE
  5
1B4
330
1B1
100
AcDbEntity
  8
Dimensions
 62
   140
370
    -2
100
AcDbLine
 10
396.6261768402762
 20
99.67579435543115
 30
0.0
 11
391.0574286274338
 21
99.67579435543115
 31
0.0
  0
MTEXT
  5
1B5
330
1B1
100
AcDbEntity
  8
Dimensions
 62
   140
100
AcDbMText
 10
392.9352623271132
 20
101.0356049655438
 30
0.0
 40
1.813080813483582
 41
0.0
 46
0.0
 71
     5
 72
     1
  1
%%c3
 73
     1
 44
1.0
  0
SOLID
  5
1B6
330
1B1
100
AcDbEntity
  8
Dimensions
 62
   140
100
AcDbTrace
 10
396.6261768402762
 20
99.37361421985055
 30
0.0
 11
396.6261768402762
 21
99.97797449101175
 31
0.0
 12
398.4392576537597
 22
99.67579435543115
 32
0.0
 13
398.4392576537597
 23
99.67579435543115
 33
0.0
  0
POINT
  5
1B7
330
1B1
100
AcDbEntity
  8
Defpoints
 62
     0
100
AcDbPoint
 10
398.4392576537597
 20
99.67579435543115
 30
0.0
  0
POINT
  5
1B8
330
1B1
100
AcDbEntity
  8
Defpoints
 62
     0
100
AcDbPoint
 10
395.4392576537597
 20
99.67579435543115
 30
0.0
  0
ENDBLK
  5
1B3
330
1B1
100
AcDbEntity
  8
0
100
AcDbBlockEnd
  0
BLOCK
  5
1BB
330
1BA
100
AcDbEntity
  8
0
100
AcDbBlockBegin
  2
*D24
 70
     1
 10
0.0
 20
0.0
 30
0.0
  3
*D24
  1

  0
LINE
  5
1BD
330
1BA
100
AcDbEntity
  8
Dimensions
 62
   140
370
    -2
100
AcDbLine
 10
397.2952239580777
 20
33.56915952010843
 30
0.0
 11
391.7264757452353
 21
33.56915952010843
 31
0.0
  0
MTEXT
  5
1BE
330
1BA
100
AcDbEntity
  8
Dimensions
 62
   140
100
AcDbMText
 10
393.6043094449147
 20
34.92897013022112
 30
0.0
 40
1.813080813483582
 41
0.0
 46
0.0
 71
     5
 72
     1
  1
%%c3
 73
     1
 44
1.0
  0
SOLID
  5
1BF
330
1BA
100
AcDbEntity
  8
Dimensions
 62
   140
100
AcDbTrace
 10
397.2952239580777
 20
33.26697938452783
 30
0.0
 11
397.2952239580777
 21
33.87133965568903
 31
0.0
 12
399.1083047715613
 22
33.56915952010843
 32
0.0
 13
399.1083047715613
 23
33.56915952010843
 33
0.0
  0
POINT
  5
1C0
330
1BA
100
AcDbEntity
  8
Defpoints
 62
     0
100
AcDbPoint
 10
399.1083047715613
 20
33.56915952010843
 30
0.0
  0
POINT
  5
1C1
330
1BA
100
AcDbEntity
  8
Defpoints
 62
     0
100
AcDbPoint
 10
396.1083047715613
 20
33.56915952010843
 30
0.0
  0
ENDBLK
  5
1BC
330
1BA
100
AcDbEntity
  8
0
100
AcDbBlockEnd
  0
BLOCK
  5
1C4
330
1C3
100
AcDbEntity
  8
0
100
AcDbBlockBegin
  2
*D25
 70
     1
 10
0.0
 20
0.0
 30
0.0
  3
*D25
  1

  0
LINE
  5
1C6
330
1C3
100
AcDbEntity
  8
Dimensions
 62
   140
370
    -2
100
AcDbLine
 10
340.7287544660677
 20
36.28121135956491
 30
0.0
 11
332.5698908053916
 21
36.28121135956491
 31
0.0
  0
MTEXT
  5
1C7
330
1C3
100
AcDbEntity
  8
Dimensions
 62
   140
100
AcDbMText
 10
335.7427822289878
 20
37.81369633286651
 30
0.0
 40
1.813080813483582
 41
0.0
 46
0.0
 71
     5
 72
     1
  1
%%c3,3
 73
     1
 44
1.0
  0
SOLID
  5
1C8
330
1C3
100
AcDbEntity
  8
Dimensions
 62
   140
100
AcDbTrace
 10
340.7287544660677
 20
35.97903122398431
 30
0.0
 11
340.7287544660677
 21
36.58339149514551
 31
0.0
 12
342.5418352795513
 22
36.28121135956491
 32
0.0
 13
342.5418352795513
 23
36.28121135956491
 33
0.0
  0
POINT
  5
1C9
330
1C3
100
AcDbEntity
  8
Defpoints
 62
     0
100
AcDbPoint
 10
342.5418352795513
 20
36.28121135956491
 30
0.0
  0
POINT
  5
1CA
330
1C3
100
AcDbEntity
  8
Defpoints
 62
     0
100
AcDbPoint
 10
339.2418352795513
 20
36.28121135956491
 30
0.0
  0
ENDBLK
  5
1C5
330
1C3
100
AcDbEntity
  8
0
100
AcDbBlockEnd
  0
BLOCK
  5
1CD
330
1CC
100
AcDbEntity
  8
0
100
AcDbBlockBegin
  2
*D26
 70
     1
 10
0.0
 20
0.0
 30
0.0
  3
*D26
  1

  0
LINE
  5
1CF
330
1CC
100
AcDbEntity
  8
Dimensions
 62
   140
370
    -2
100
AcDbLine
 10
348.0432178329194
 20
58.81915952010817
 30
0.0
 11
339.8843541722433
 21
58.81915952010817
 31
0.0
  0
MTEXT
  5
1D0
330
1CC
100
AcDbEntity
  8
Dimensions
 62
   140
100
AcDbMText
 10
343.0572455958396
 20
60.35164449340977
 30
0.0
 40
1.813080813483582
 41
0.0
 46
0.0
 71
     5
 72
     1
  1
%%c3,3
 73
     1
 44
1.0
  0
SOLID
  5
1D1
330
1CC
100
AcDbEntity
  8
Dimensions
 62
   140
100
AcDbTrace
 10
348.0432178329194
 20
58.51697938452757
 30
0.0
 11
348.0432178329194
 21
59.12133965568877
 31
0.0
 12
349.856298646403
 22
58.81915952010817
 32
0.0
 13
349.856298646403
 23
58.81915952010817
 33
0.0
  0
POINT
  5
1D2
330
1CC
100
AcDbEntity
  8
Defpoints
 62
     0
100
AcDbPoint
 10
349.856298646403
 20
58.81915952010817
 30
0.0
  0
POINT
  5
1D3
330
1CC
100
AcDbEntity
  8
Defpoints
 62
     0
100
AcDbPoint
 10
346.556298646403
 20
58.81915952010817
 30
0.0
  0
ENDBLK
  5
1CE
330
1CC
100
AcDbEntity
  8
0
100
AcDbBlockEnd
  0
BLOCK
  5
1D6
330
1D5
100
AcDbEntity
  8
0
100
AcDbBlockBegin
  2
*D27
 70
     1
 10
0.0
 20
0.0
 30
0.0
  3
*D27
  1

  0
LINE
  5
1D8
330
1D5
100
AcDbEntity
  8
Dimensions
 62
   140
370
    -2
100
AcDbLine
 10
337.3534424684855
 20
138.9210238418284
 30
0.0
 11
329.1945788078094
 21
138.9210238418284
 31
0.0
  0
MTEXT
  5
1D9
330
1D5
100
AcDbEntity
  8
Dimensions
 62
   140
100
AcDbMText
 10
332.3674702314056
 20
140.45350881513
 30
0.0
 40
1.813080813483582
 41
0.0
 46
0.0
 71
     5
 72
     1
  1
%%c3,2
 73
     1
 44
1.0
  0
SOLID
  5
1DA
330
1D5
100
AcDbEntity
  8
Dimensions
 62
   140
100
AcDbTrace
 10
337.3534424684855
 20
138.6188437062478
 30
0.0
 11
337.3534424684855
 21
139.223203977409
 31
0.0
 12
339.166523281969
 22
138.9210238418284
 32
0.0
 13
339.166523281969
 23
138.9210238418284
 33
0.0
  0
POINT
  5
1DB
330
1D5
100
AcDbEntity
  8
Defpoints
 62
     0
100
AcDbPoint
 10
339.166523281969
 20
138.9210238418284
 30
0.0
  0
POINT
  5
1DC
330
1D5
100
AcDbEntity
  8
Defpoints
 62
     0
100
AcDbPoint
 10
335.966523281969
 20
138.9210238418284
 30
0.0
  0
ENDBLK
  5
1D7
330
1D5
100
AcDbEntity
  8
0
100
AcDbBlockEnd
  0
BLOCK
  5
1DF
330
1DE
100
AcDbEntity
  8
0
100
AcDbBlockBegin
  2
*D28
 70
     1
 10
0.0
 20
0.0
 30
0.0
  3
*D28
  1

  0
LINE
  5
1E1
330
1DE
100
AcDbEntity
  8
Dimensions
 62
   140
370
    -2
100
AcDbLine
 10
336.3493433130108
 20
71.28573754587033
 30
0.0
 11
326.4637360204456
 21
71.28573754587033
 31
0.0
  0
MTEXT
  5
1E2
330
1DE
100
AcDbEntity
  8
Dimensions
 62
   140
100
AcDbMText
 10
330.4999992599864
 20
72.81822251917193
 30
0.0
 40
1.813080813483582
 41
0.0
 46
0.0
 71
     5
 72
     1
  1
%%c3,05
 73
     1
 44
1.0
  0
SOLID
  5
1E3
330
1DE
100
AcDbEntity
  8
Dimensions
 62
   140
100
AcDbTrace
 10
336.3493433130108
 20
70.98355741028973
 30
0.0
 11
336.3493433130108
 21
71.58791768145093
 31
0.0
 12
338.1624241264944
 22
71.28573754587033
 32
0.0
 13
338.1624241264944
 23
71.28573754587033
 33
0.0
  0
POINT
  5
1E4
330
1DE
100
AcDbEntity
  8
Defpoints
 62
     0
100
AcDbPoint
 10
338.1624241264944
 20
71.28573754587033
 30
0.0
  0
POINT
  5
1E5
330
1DE
100
AcDbEntity
  8
Defpoints
 62
     0
100
AcDbPoint
 10
335.1124241264944
 20
71.28573754587033
 30
0.0
  0
ENDBLK
  5
1E0
330
1DE
100
AcDbEntity
  8
0
100
AcDbBlockEnd
  0
BLOCK
  5
1E8
330
1E7
100
AcDbEntity
  8
0
100
AcDbBlockBegin
  2
*D29
 70
     1
 10
0.0
 20
0.0
 30
0.0
  3
*D29
  1

  0
LINE
  5
1EA
330
1E7
100
AcDbEntity
  8
Dimensions
 62
   140
370
    -2
100
AcDbLine
 10
350.0773434678295
 20
105.5091656804971
 30
0.0
 11
341.9184798071533
 21
105.5091656804971
 31
0.0
  0
MTEXT
  5
1EB
330
1E7
100
AcDbEntity
  8
Dimensions
 62
   140
100
AcDbMText
 10
345.0913712307496
 20
107.0416506537987
 30
0.0
 40
1.813080813483582
 41
0.0
 46
0.0
 71
     5
 72
     1
  1
%%c3,2
 73
     1
 44
1.0
  0
SOLID
  5
1EC
330
1E7
100
AcDbEntity
  8
Dimensions
 62
   140
100
AcDbTrace
 10
350.0773434678295
 20
105.2069855449165
 30
0.0
 11
350.0773434678295
 21
105.8113458160777
 31
0.0
 12
351.890424281313
 22
105.5091656804971
 32
0.0
 13
351.890424281313
 23
105.5091656804971
 33
0.0
  0
POINT
  5
1ED
330
1E7
100
AcDbEntity
  8
Defpoints
 62
     0
100
AcDbPoint
 10
351.890424281313
 20
105.5091656804971
 30
0.0
  0
POINT
  5
1EE
330
1E7
100
AcDbEntity
  8
Defpoints
 62
     0
100
AcDbPoint
 10
348.690424281313
 20
105.5091656804971
 30
0.0
  0
ENDBLK
  5
1E9
330
1E7
100
AcDbEntity
  8
0
100
AcDbBlockEnd
  0
BLOCK
  5
1F1
330
1F0
100
AcDbEntity
  8
0
100
AcDbBlockBegin
  2
*D30
 70
     1
 10
0.0
 20
0.0
 30
0.0
  3
*D30
  1

  0
LINE
  5
1F3
330
1F0
100
AcDbEntity
  8
Dimensions
 62
   140
370
    -2
100
AcDbLine
 10
396.6261768402762
 20
127.4605867540989
 30
0.0
 11
391.0574286274338
 21
127.4605867540989
 31
0.0
  0
MTEXT
  5
1F4
330
1F0
100
AcDbEntity
  8
Dimensions
 62
   140
100
AcDbMText
 10
392.9352623271132
 20
128.8203973642116
 30
0.0
 40
1.813080813483582
 41
0.0
 46
0.0
 71
     5
 72
     1
  1
%%c3
 73
     1
 44
1.0
  0
SOLID
  5
1F5
330
1F0
100
AcDbEntity
  8
Dimensions
 62
   140
100
AcDbTrace
 10
396.6261768402762
 20
127.1584066185183
 30
0.0
 11
396.6261768402762
 21
127.7627668896795
 31
0.0
 12
398.4392576537597
 22
127.4605867540989
 32
0.0
 13
398.4392576537597
 23
127.4605867540989
 33
0.0
  0
POINT
  5
1F6
330
1F0
100
AcDbEntity
  8
Defpoints
 62
     0
100
AcDbPoint
 10
398.4392576537597
 20
127.4605867540989
 30
0.0
  0
POINT
  5
1F7
330
1F0
100
AcDbEntity
  8
Defpoints
 62
     0
100
AcDbPoint
 10
395.4392576537597
 20
127.4605867540989
 30
0.0
  0
ENDBLK
  5
1F2
330
1F0
100
AcDbEntity
  8
0
100
AcDbBlockEnd
  0
BLOCK
  5
1FA
330
1F9
100
AcDbEntity
  8
0
100
AcDbBlockBegin
  2
*D31
 70
     1
 10
0.0
 20
0.0
 30
0.0
  3
*D31
  1

  0
LINE
  5
1FC
330
1F9
100
AcDbEntity
  8
Dimensions
 62
   140
370
    -2
100
AcDbLine
 10
363.2376501022999
 20
81.35710768065142
 30
0.0
 11
355.0787864416238
 21
81.35710768065142
 31
0.0
  0
MTEXT
  5
1FD
330
1F9
100
AcDbEntity
  8
Dimensions
 62
   140
100
AcDbMText
 10
358.2516778652201
 20
82.88959265395302
 30
0.0
 40
1.813080813483582
 41
0.0
 46
0.0
 71
     5
 72
     1
  1
%%c3,3
 73
     1
 44
1.0
  0
SOLID
  5
1FE
330
1F9
100
AcDbEntity
  8
Dimensions
 62
   140
100
AcDbTrace
 10
363.2376501022999
 20
81.05492754507083
 30
0.0
 11
363.2376501022999
 21
81.65928781623202
 31
0.0
 12
365.0507309157835
 22
81.35710768065142
 32
0.0
 13
365.0507309157835
 23
81.35710768065142
 33
0.0
  0
POINT
  5
1FF
330
1F9
100
AcDbEntity
  8
Defpoints
 62
     0
100
AcDbPoint
 10
365.0507309157835
 20
81.35710768065142
 30
0.0
  0
POINT
  5
200
330
1F9
100
AcDbEntity
  8
Defpoints
 62
     0
100
AcDbPoint
 10
361.7507309157835
 20
81.35710768065142
 30
0.0
  0
ENDBLK
  5
1FB
330
1F9
100
AcDbEntity
  8
0
100
AcDbBlockEnd
  0
BLOCK
  5
203
330
202
100
AcDbEntity
  8
0
100
AcDbBlockBegin
  2
*D32
 70
     1
 10
0.0
 20
0.0
 30
0.0
  3
*D32
  1

  0
LINE
  5
205
330
202
100
AcDbEntity
  8
Dimensions
 62
   140
370
    -2
100
AcDbLine
 10
380.6093419646139
 20
94.67579435543148
 30
0.0
 11
375.0405937517715
 21
94.67579435543148
 31
0.0
  0
MTEXT
  5
206
330
202
100
AcDbEntity
  8
Dimensions
 62
   140
100
AcDbMText
 10
376.9184274514509
 20
96.03560496554417
 30
0.0
 40
1.813080813483582
 41
0.0
 46
0.0
 71
     5
 72
     1
  1
%%c3
 73
     1
 44
1.0
  0
SOLID
  5
207
330
202
100
AcDbEntity
  8
Dimensions
 62
   140
100
AcDbTrace
 10
380.6093419646139
 20
94.37361421985088
 30
0.0
 11
380.6093419646139
 21
94.97797449101208
 31
0.0
 12
382.4224227780975
 22
94.67579435543148
 32
0.0
 13
382.4224227780975
 23
94.67579435543148
 33
0.0
  0
POINT
  5
208
330
202
100
AcDbEntity
  8
Defpoints
 62
     0
100
AcDbPoint
 10
382.4224227780975
 20
94.67579435543148
 30
0.0
  0
POINT
  5
209
330
202
100
AcDbEntity
  8
Defpoints
 62
     0
100
AcDbPoint
 10
379.4224227780975
 20
94.67579435543148
 30
0.0
  0
ENDBLK
  5
204
330
202
100
AcDbEntity
  8
0
100
AcDbBlockEnd
  0
BLOCK
  5
20C
330
20B
100
AcDbEntity
  8
0
100
AcDbBlockBegin
  2
*D33
 70
     1
 10
0.0
 20
0.0
 30
0.0
  3
*D33
  1

  0
LINE
  5
20E
330
20B
100
AcDbEntity
  8
Dimensions
 62
   140
370
    -2
100
AcDbLine
 10
327.2952239580789
 20
33.56915952010843
 30
0.0
 11
321.7264757452365
 21
33.56915952010843
 31
0.0
  0
MTEXT
  5
20F
330
20B
100
AcDbEntity
  8
Dimensions
 62
   140
100
AcDbMText
 10
323.6043094449159
 20
34.92897013022112
 30
0.0
 40
1.813080813483582
 41
0.0
 46
0.0
 71
     5
 72
     1
  1
%%c3
 73
     1
 44
1.0
  0
SOLID
  5
210
330
20B
100
AcDbEntity
  8
Dimensions
 62
   140
100
AcDbTrace
 10
327.2952239580789
 20
33.26697938452783
 30
0.0
 11
327.2952239580789
 21
33.87133965568903
 31
0.0
 12
329.1083047715625
 22
33.56915952010843
 32
0.0
 13
329.1083047715625
 23
33.56915952010843
 33
0.0
  0
POINT
  5
211
330
20B
100
AcDbEntity
  8
Defpoints
 62
     0
100
AcDbPoint
 10
329.1083047715625
 20
33.56915952010843
 30
0.0
  0
POINT
  5
212
330
20B
100
AcDbEntity
  8
Defpoints
 62
     0
100
AcDbPoint
 10
326.1083047715625
 20
33.56915952010843
 30
0.0
  0
ENDBLK
  5
20D
330
20B
100
AcDbEntity
  8
0
100
AcDbBlockEnd
  0
BLOCK
  5
215
330
214
100
AcDbEntity
  8
0
100
AcDbBlockBegin
  2
*D34
 70
     1
 10
0.0
 20
0.0
 30
0.0
  3
*D34
  1

  0
LINE
  5
217
330
214
100
AcDbEntity
  8
Dimensions
 62
   140
370
    -2
100
AcDbLine
 10
387.9199402090558
 20
138.9210238418284
 30
0.0
 11
379.7610765483797
 21
138.9210238418284
 31
0.0
  0
MTEXT
  5
218
330
214
100
AcDbEntity
  8
Dimensions
 62
   140
100
AcDbMText
 10
382.9339679719759
 20
140.45350881513
 30
0.0
 40
1.813080813483582
 41
0.0
 46
0.0
 71
     5
 72
     1
  1
%%c3,2
 73
     1
 44
1.0
  0
SOLID
  5
219
330
214
100
AcDbEntity
  8
Dimensions
 62
   140
100
AcDbTrace
 10
387.9199402090558
 20
138.6188437062478
 30
0.0
 11
387.9199402090558
 21
139.223203977409
 31
0.0
 12
389.7330210225393
 22
138.9210238418284
 32
0.0
 13
389.7330210225393
 23
138.9210238418284
 33
0.0
  0
POINT
  5
21A
330
214
100
AcDbEntity
  8
Defpoints
 62
     0
100
AcDbPoint
 10
389.7330210225393
 20
138.9210238418284
 30
0.0
  0
POINT
  5
21B
330
214
100
AcDbEntity
  8
Defpoints
 62
     0
100
AcDbPoint
 10
386.5330210225394
 20
138.9210238418284
 30
0.0
  0
ENDBLK
  5
216
330
214
100
AcDbEntity
  8
0
100
AcDbBlockEnd
  0
BLOCK
  5
21E
330
21D
100
AcDbEntity
  8
0
100
AcDbBlockBegin
  2
*D35
 70
     1
 10
0.0
 20
0.0
 30
0.0
  3
*D35
  1

  0
LINE
  5
220
330
21D
100
AcDbEntity
  8
Dimensions
 62
   140
370
    -2
100
AcDbLine
 10
375.1960392097119
 20
105.5091656804971
 30
0.0
 11
367.0371755490358
 21
105.5091656804971
 31
0.0
  0
MTEXT
  5
221
330
21D
100
AcDbEntity
  8
Dimensions
 62
   140
100
AcDbMText
 10
370.210066972632
 20
107.0416506537987
 30
0.0
 40
1.813080813483582
 41
0.0
 46
0.0
 71
     5
 72
     1
  1
%%c3,2
 73
     1
 44
1.0
  0
SOLID
  5
222
330
21D
100
AcDbEntity
  8
Dimensions
 62
   140
100
AcDbTrace
 10
375.1960392097119
 20
105.2069855449165
 30
0.0
 11
375.1960392097119
 21
105.8113458160777
 31
0.0
 12
377.0091200231955
 22
105.5091656804971
 32
0.0
 13
377.0091200231955
 23
105.5091656804971
 33
0.0
  0
POINT
  5
223
330
21D
100
AcDbEntity
  8
Defpoints
 62
     0
100
AcDbPoint
 10
377.0091200231955
 20
105.5091656804971
 30
0.0
  0
POINT
  5
224
330
21D
100
AcDbEntity
  8
Defpoints
 62
     0
100
AcDbPoint
 10
373.8091200231955
 20
105.5091656804971
 30
0.0
  0
ENDBLK
  5
21F
330
21D
100
AcDbEntity
  8
0
100
AcDbBlockEnd
  0
BLOCK
  5
227
330
226
100
AcDbEntity
  8
0
100
AcDbBlockBegin
  2
*D36
 70
     1
 10
0.0
 20
0.0
 30
0.0
  3
*D36
  1

  0
LINE
  5
229
330
226
100
AcDbEntity
  8
Dimensions
 62
   140
370
    -2
100
AcDbLine
 10
379.8381114166622
 20
143.0257943554312
 30
0.0
 11
371.6792477559861
 21
143.0257943554312
 31
0.0
  0
MTEXT
  5
22A
330
226
100
AcDbEntity
  8
Dimensions
 62
   140
100
AcDbMText
 10
374.8521391795823
 20
144.5582793287328
 30
0.0
 40
1.813080813483582
 41
0.0
 46
0.0
 71
     5
 72
     1
  1
%%c3,2
 73
     1
 44
1.0
  0
SOLID
  5
22B
330
226
100
AcDbEntity
  8
Dimensions
 62
   140
100
AcDbTrace
 10
379.8381114166622
 20
142.7236142198506
 30
0.0
 11
379.8381114166622
 21
143.3279744910118
 31
0.0
 12
381.6511922301457
 22
143.0257943554312
 32
0.0
 13
381.6511922301457
 23
143.0257943554312
 33
0.0
  0
POINT
  5
22C
330
226
100
AcDbEntity
  8
Defpoints
 62
     0
100
AcDbPoint
 10
381.6511922301457
 20
143.0257943554312
 30
0.0
  0
POINT
  5
22D
330
226
100
AcDbEntity
  8
Defpoints
 62
     0
100
AcDbPoint
 10
378.4511922301458
 20
143.0257943554312
 30
0.0
  0
ENDBLK
  5
228
330
226
100
AcDbEntity
  8
0
100
AcDbBlockEnd
  0
BLOCK
  5
230
330
22F
100
AcDbEntity
  8
0
100
AcDbBlockBegin
  2
*D37
 70
     1
 10
0.0
 20
0.0
 30
0.0
  3
*D37
  1

  0
LINE
  5
232
330
22F
100
AcDbEntity
  8
Dimensions
 62
   140
370
    -2
100
AcDbLine
 10
394.5650210543643
 20
58.81915952010817
 30
0.0
 11
386.4061573936882
 21
58.81915952010817
 31
0.0
  0
MTEXT
  5
233
330
22F
100
AcDbEntity
  8
Dimensions
 62
   140
100
AcDbMText
 10
389.5790488172844
 20
60.35164449340977
 30
0.0
 40
1.813080813483582
 41
0.0
 46
0.0
 71
     5
 72
     1
  1
%%c3,3
 73
     1
 44
1.0
  0
SOLID
  5
234
330
22F
100
AcDbEntity
  8
Dimensions
 62
   140
100
AcDbTrace
 10
394.5650210543643
 20
58.51697938452757
 30
0.0
 11
394.5650210543643
 21
59.12133965568877
 31
0.0
 12
396.3781018678479
 22
58.81915952010817
 32
0.0
 13
396.3781018678479
 23
58.81915952010817
 33
0.0
  0
POINT
  5
235
330
22F
100
AcDbEntity
  8
Defpoints
 62
     0
100
AcDbPoint
 10
396.3781018678479
 20
58.81915952010817
 30
0.0
  0
POINT
  5
236
330
22F
100
AcDbEntity
  8
Defpoints
 62
     0
100
AcDbPoint
 10
393.0781018678479
 20
58.81915952010817
 30
0.0
  0
ENDBLK
  5
231
330
22F
100
AcDbEntity
  8
0
100
AcDbBlockEnd
  0
ENDSEC
  0
SECTION
  2
ENTITIES
  0
LINE
  5
5F
330
1F
100
AcDbEntity
  8
Sketch 10
100
AcDbLine
 10
387.2618028947242
 20
147.0561130735962
 30
2.0
 11
371.2534496323885
 21
147.056113073596
 31
2.0
  0
LINE
  5
60
330
1F
100
AcDbEntity
  8
Sketch 10
100
AcDbLine
 10
387.2618028947242
 20
170.3980829210281
 30
2.0
 11
371.2534496323885
 21
170.3980829210282
 31
2.0
  0
LINE
  5
61
330
1F
100
AcDbEntity
  8
Sketch 10
100
AcDbLine
 10
348.0000000000001
 20
132.0
 30
2.0
 11
345.0000000000001
 21
132.0
 31
2.0
  0
LINE
  5
62
330
1F
100
AcDbEntity
  8
Sketch 10
100
AcDbLine
 10
323.7484547080965
 20
89.0691595201079
 30
2.0
 11
327.6083047715625
 21
89.0691595201079
 31
2.0
  0
LINE
  5
63
330
1F
100
AcDbEntity
  8
Sketch 10
100
AcDbLine
 10
387.261802894724
 20
157.1270979973123
 30
2.0
 11
371.2534496323887
 21
157.1270979973121
 31
2.0
  0
LINE
  5
64
330
1F
100
AcDbEntity
  8
Sketch 10
100
AcDbLine
 10
323.4671302477821
 20
41.41327347707414
 30
2.0
 11
323.4671302477821
 21
54.91327347707403
 31
2.0
  0
LINE
  5
65
330
1F
100
AcDbEntity
  8
Sketch 10
100
AcDbLine
 10
332.6671302477819
 20
54.91327347707403
 30
2.0
 11
332.6671302477819
 21
41.41327347707414
 31
2.0
  0
LINE
  5
66
330
1F
100
AcDbEntity
  8
Sketch 10
100
AcDbLine
 10
378.8454594401263
 20
83.0653911617517
 30
2.0
 11
381.8454594401263
 21
83.0653911617517
 31
2.0
  0
LINE
  5
67
330
1F
100
AcDbEntity
  8
Sketch 10
100
AcDbLine
 10
392.698063671122
 20
38.88371891981149
 30
2.0
 11
379.5532280548153
 21
49.95709738723325
 31
2.0
  0
LINE
  5
68
330
1F
100
AcDbEntity
  8
Sketch 10
100
AcDbLine
 10
379.0
 20
111.0
 30
2.0
 11
379.0
 21
132.0
 31
2.0
  0
LINE
  5
69
330
1F
100
AcDbEntity
  8
Sketch 10
100
AcDbLine
 10
363.3811724594357
 20
49.63512369364831
 30
2.0
 11
350.2363368431289
 21
38.56174522622666
 31
2.0
  0
LINE
  5
6A
330
1F
100
AcDbEntity
  8
Sketch 10
100
AcDbLine
 10
387.261802894724
 20
167.1980829210281
 30
2.0
 11
371.2534496323887
 21
167.1980829210281
 31
2.0
  0
LINE
  5
6B
330
1F
100
AcDbEntity
  8
Sketch 10
100
AcDbLine
 10
376.0
 20
111.0
 30
2.0
 11
379.0
 21
111.0
 31
2.0
  0
LINE
  5
6C
330
1F
100
AcDbEntity
  8
Sketch 10
100
AcDbLine
 10
376.0
 20
132.0
 30
2.0
 11
376.0
 21
111.0
 31
2.0
  0
LINE
  5
6D
330
1F
100
AcDbEntity
  8
Sketch 10
100
AcDbLine
 10
361.4785350515934
 20
65.6837189198115
 30
2.0
 11
348.3336994352866
 21
76.75709738723316
 31
2.0
  0
LINE
  5
6E
330
1F
100
AcDbEntity
  8
Sketch 10
100
AcDbLine
 10
379.0
 20
132.0
 30
2.0
 11
376.0
 21
132.0
 31
2.0
  0
LINE
  5
6F
330
1F
100
AcDbEntity
  8
Sketch 10
100
AcDbLine
 10
345.0000000000001
 20
132.0
 30
2.0
 11
345.0000000000001
 21
111.0
 31
2.0
  0
LINE
  5
70
330
1F
100
AcDbEntity
  8
Sketch 10
100
AcDbLine
 10
348.0000000000001
 20
111.0
 30
2.0
 11
348.0000000000001
 21
132.0
 31
2.0
  0
LINE
  5
71
330
1F
100
AcDbEntity
  8
Sketch 10
100
AcDbLine
 10
345.0000000000001
 20
111.0
 30
2.0
 11
348.0000000000001
 21
111.0
 31
2.0
  0
LINE
  5
72
330
1F
100
AcDbEntity
  8
Sketch 10
100
AcDbLine
 10
323.7975856891467
 20
94.7909720104558
 30
2.0
 11
326.269152639669
 21
131.9682118394815
 31
2.0
  0
LINE
  5
73
330
1F
100
AcDbEntity
  8
Sketch 10
100
AcDbLine
 10
361.4785350515934
 20
51.95460012040496
 30
2.0
 11
348.3336994352866
 21
40.88122165298318
 31
2.0
  0
LINE
  5
74
330
1F
100
AcDbEntity
  8
Sketch 10
100
AcDbLine
 10
338.4377414097852
 20
147.0561130735962
 30
2.0
 11
354.4460946721207
 21
147.056113073596
 31
2.0
  0
LINE
  5
75
330
1F
100
AcDbEntity
  8
Sketch 10
100
AcDbLine
 10
332.6671302477819
 20
54.91327347707403
 30
2.0
 11
323.4671302477821
 21
54.91327347707404
 31
2.0
  0
LINE
  5
76
330
1F
100
AcDbEntity
  8
Sketch 10
100
AcDbLine
 10
392.698063671122
 20
79.07657381398968
 30
2.0
 11
379.5532280548153
 21
68.00319534656785
 31
2.0
  0
LINE
  5
77
330
1F
100
AcDbEntity
  8
Sketch 10
100
AcDbLine
 10
394.6007010789643
 20
76.75709738723309
 30
2.0
 11
381.4558654626575
 21
65.68371891981138
 31
2.0
  0
LINE
  5
78
330
1F
100
AcDbEntity
  8
Sketch 10
100
AcDbLine
 10
363.3811724594357
 20
68.00319534656798
 30
2.0
 11
350.2363368431289
 21
79.07657381398968
 31
2.0
  0
LINE
  5
79
330
1F
100
AcDbEntity
  8
Sketch 10
100
AcDbLine
 10
394.6007010789643
 20
41.20319534656811
 30
2.0
 11
381.4558654626575
 21
52.27657381398978
 31
2.0
  0
LINE
  5
7A
330
1F
100
AcDbEntity
  8
Sketch 10
100
AcDbLine
 10
401.9019586153619
 20
94.7909720104558
 30
2.0
 11
399.4303916648398
 21
131.9682118394815
 31
2.0
  0
LINE
  5
7B
330
1F
100
AcDbEntity
  8
Sketch 10
100
AcDbLine
 10
332.8497721522543
 20
145.1091595201083
 30
2.0
 11
332.8497721522543
 21
164.3354395868233
 31
2.0
  0
LINE
  5
7C
330
1F
100
AcDbEntity
  8
Sketch 10
100
AcDbLine
 10
378.8454594401263
 20
34.90255216625053
 30
2.0
 11
381.8454594401263
 21
34.90255216625053
 31
2.0
  0
LINE
  5
7D
330
1F
100
AcDbEntity
  8
Sketch 10
100
AcDbLine
 10
387.261802894724
 20
150.256113073596
 30
2.0
 11
371.2534496323887
 21
150.2561130735962
 31
2.0
  0
LINE
  5
7E
330
1F
100
AcDbEntity
  8
Sketch 10
100
AcDbLine
 10
338.4377414097852
 20
170.3980829210281
 30
2.0
 11
354.4460946721207
 21
170.3980829210282
 31
2.0
  0
LINE
  5
7F
330
1F
100
AcDbEntity
  8
Sketch 10
100
AcDbLine
 10
321.6083047715624
 20
81.56915952010837
 30
2.0
 11
321.6083047715624
 21
33.56915952010843
 31
2.0
  0
LINE
  5
80
330
1F
100
AcDbEntity
  8
Sketch 10
100
AcDbLine
 10
338.4377414097854
 20
150.256113073596
 30
2.0
 11
354.4460946721205
 21
150.2561130735962
 31
2.0
  0
LINE
  5
81
330
1F
100
AcDbEntity
  8
Sketch 10
100
AcDbLine
 10
338.4377414097854
 20
157.1270979973123
 30
2.0
 11
354.4460946721205
 21
157.1270979973121
 31
2.0
  0
LINE
  5
82
330
1F
100
AcDbEntity
  8
Sketch 10
100
AcDbLine
 10
392.8497721522544
 20
177.867947852729
 30
2.0
 11
392.8497721522547
 21
164.3358691219132
 31
2.0
  0
LINE
  5
83
330
1F
100
AcDbEntity
  8
Sketch 10
100
AcDbLine
 10
322.7631112190135
 20
88.23974149020408
 30
2.0
 11
321.6083047715624
 21
81.56915952010837
 31
2.0
  0
LINE
  5
84
330
1F
100
AcDbEntity
  8
Sketch 10
100
AcDbLine
 10
338.4377414097852
 20
160.3270979973123
 30
2.0
 11
354.4460946721207
 21
160.3270979973124
 31
2.0
  0
LINE
  5
85
330
1F
100
AcDbEntity
  8
Sketch 10
100
AcDbLine
 10
399.4303916648398
 20
131.9682118394815
 30
2.0
 11
392.8497721522544
 21
145.1091595201083
 31
2.0
  0
LINE
  5
86
330
1F
100
AcDbEntity
  8
Sketch 10
100
AcDbLine
 10
338.4377414097854
 20
167.1980829210281
 30
2.0
 11
354.4460946721205
 21
167.1980829210281
 31
2.0
  0
LINE
  5
87
330
1F
100
AcDbEntity
  8
Sketch 10
100
AcDbLine
 10
392.8497721522547
 20
145.1091595201083
 30
2.0
 11
392.8497721522547
 21
164.3358691219132
 31
2.0
  0
LINE
  5
88
330
1F
100
AcDbEntity
  8
Sketch 10
100
AcDbLine
 10
327.6083047715625
 20
89.0691595201079
 30
2.0
 11
397.6083047715613
 21
89.06915952010796
 31
2.0
  0
LINE
  5
89
330
1F
100
AcDbEntity
  8
Sketch 10
100
AcDbLine
 10
332.8497721522547
 20
164.3354395868233
 30
2.0
 11
332.8497721522547
 21
177.8679478527293
 31
2.0
  0
LINE
  5
8A
330
1F
100
AcDbEntity
  8
Sketch 10
100
AcDbLine
 10
335.8497721522547
 20
180.8679478527293
 30
2.0
 11
389.8497721522546
 21
180.867947852729
 31
2.0
  0
LINE
  5
8B
330
1F
100
AcDbEntity
  8
Sketch 10
100
AcDbLine
 10
378.8454594401263
 20
31.9025521662503
 30
2.0
 11
381.8454594401263
 21
31.9025521662503
 31
2.0
  0
LINE
  5
8C
330
1F
100
AcDbEntity
  8
Sketch 10
100
AcDbLine
 10
401.468154835027
 20
89.06915952010796
 30
2.0
 11
397.6083047715613
 21
89.06915952010796
 31
2.0
  0
LINE
  5
8D
330
1F
100
AcDbEntity
  8
Sketch 10
100
AcDbLine
 10
332.6671302477819
 20
41.41327347707414
 30
2.0
 11
323.4671302477821
 21
41.41327347707414
 31
2.0
  0
LINE
  5
8E
330
1F
100
AcDbEntity
  8
Sketch 10
100
AcDbLine
 10
398.9085662353554
 20
91.59196934887053
 30
2.0
 11
326.7909780691532
 21
91.59196934887053
 31
2.0
  0
LINE
  5
8F
330
1F
100
AcDbEntity
  8
Sketch 10
100
AcDbLine
 10
403.6083047715613
 20
81.56915952010837
 30
2.0
 11
403.6083047715613
 21
33.56915952010843
 31
2.0
  0
LINE
  5
90
330
1F
100
AcDbEntity
  8
Sketch 10
100
AcDbLine
 10
378.8454594401263
 20
86.06539116175198
 30
2.0
 11
381.8454594401263
 21
86.06539116175198
 31
2.0
  0
LINE
  5
91
330
1F
100
AcDbEntity
  8
Sketch 10
100
AcDbLine
 10
326.6083047715624
 20
28.56915952010843
 30
2.0
 11
398.6083047715613
 21
28.56915952010843
 31
2.0
  0
LINE
  5
92
330
1F
100
AcDbEntity
  8
Sketch 10
100
AcDbLine
 10
402.4534983241102
 20
88.23974149020417
 30
2.0
 11
403.6083047715613
 21
81.56915952010837
 31
2.0
  0
LINE
  5
93
330
1F
100
AcDbEntity
  8
Sketch 10
100
AcDbLine
 10
387.2618028947242
 20
160.3270979973123
 30
2.0
 11
371.2534496323885
 21
160.3270979973124
 31
2.0
  0
LINE
  5
94
330
1F
100
AcDbEntity
  8
Sketch 10
100
AcDbLine
 10
326.269152639669
 20
131.9682118394815
 30
2.0
 11
332.8497721522543
 21
145.1091595201083
 31
2.0
  0
ARC
  5
95
330
1F
100
AcDbEntity
  8
Sketch 10
100
AcDbCircle
 10
393.6493823750431
 20
40.04345713318989
 30
2.0
 40
1.499999999999971
100
AcDbArc
 50
230.6384007703657
 51
50.63840077036578
  0
ARC
  5
96
330
1F
100
AcDbEntity
  8
Sketch 10
100
AcDbCircle
 10
387.261802894724
 20
158.7270979973121
 30
2.0
 40
1.600000000000046
100
AcDbArc
 50
270.0
 51
89.99999999999604
  0
ARC
  5
97
330
1F
100
AcDbEntity
  8
Sketch 10
100
AcDbCircle
 10
362.4298537555146
 20
50.79486190702667
 30
2.0
 40
1.499999999999977
100
AcDbArc
 50
309.3615992296341
 51
129.361599229634
  0
ARC
  5
98
330
1F
100
AcDbEntity
  8
Sketch 10
100
AcDbCircle
 10
393.6493823750431
 20
77.91683560061152
 30
2.0
 40
1.499999999999982
100
AcDbArc
 50
309.3615992296338
 51
129.3615992296339
  0
ARC
  5
99
330
1F
100
AcDbEntity
  8
Sketch 10
100
AcDbCircle
 10
380.5045467587364
 20
51.11683560061161
 30
2.0
 40
1.499999999999971
100
AcDbArc
 50
50.6384007703658
 51
230.6384007703658
  0
ARC
  5
9A
330
1F
100
AcDbEntity
  8
Sketch 10
100
AcDbCircle
 10
338.4377414097854
 20
148.6561130735962
 30
2.0
 40
1.600000000000046
100
AcDbArc
 50
90.0
 51
269.999999999996
  0
ARC
  5
9B
330
1F
100
AcDbEntity
  8
Sketch 10
100
AcDbCircle
 10
349.2850181392079
 20
77.91683560061152
 30
2.0
 40
1.499999999999982
100
AcDbArc
 50
50.63840077036613
 51
230.6384007703662
  0
ARC
  5
9C
330
1F
100
AcDbEntity
  8
Sketch 10
100
AcDbCircle
 10
401.468154835027
 20
88.06915952010795
 30
2.0
 40
0.9999999999999922
100
AcDbArc
 50
9.821657741478473
 51
89.99999999999997
  0
ARC
  5
9D
330
1F
100
AcDbEntity
  8
Sketch 10
100
AcDbCircle
 10
335.8497721522547
 20
177.8679478527293
 30
2.0
 40
2.999999999999975
100
AcDbArc
 50
90.0
 51
180.0
  0
ARC
  5
9E
330
1F
100
AcDbEntity
  8
Sketch 10
100
AcDbCircle
 10
338.4377414097854
 20
158.7270979973121
 30
2.0
 40
1.600000000000074
100
AcDbArc
 50
90.00000000000398
 51
270.0
  0
ARC
  5
9F
330
1F
100
AcDbEntity
  8
Sketch 10
100
AcDbCircle
 10
323.7484547080965
 20
88.0691595201079
 30
2.0
 40
1.000000000000001
100
AcDbArc
 50
90.0
 51
170.1783422585223
  0
ARC
  5
A0
330
1F
100
AcDbEntity
  8
Sketch 10
100
AcDbCircle
 10
371.2534496323885
 20
168.7980829210282
 30
2.0
 40
1.600000000000074
100
AcDbArc
 50
89.99999999999204
 51
270.000000000008
  0
ARC
  5
A1
330
1F
100
AcDbEntity
  8
Sketch 10
100
AcDbCircle
 10
354.4460946721207
 20
148.6561130735961
 30
2.0
 40
1.600000000000074
100
AcDbArc
 50
269.999999999992
 51
90.00000000000796
  0
ARC
  5
A2
330
1F
100
AcDbEntity
  8
Sketch 10
100
AcDbCircle
 10
381.8454594401263
 20
33.4025521662506
 30
2.0
 40
1.499999999999994
100
AcDbArc
 50
270.0
 51
90.0
  0
ARC
  5
A3
330
1F
100
AcDbEntity
  8
Sketch 10
100
AcDbCircle
 10
354.4460946721207
 20
158.7270979973123
 30
2.0
 40
1.600000000000101
100
AcDbArc
 50
269.999999999992
 51
90.00000000000796
  0
ARC
  5
A4
330
1F
100
AcDbEntity
  8
Sketch 10
100
AcDbCircle
 10
389.8497721522546
 20
177.867947852729
 30
2.0
 40
3.000000000000003
100
AcDbArc
 50
0.0000000000005301
 51
90.00000000000001
  0
ARC
  5
A5
330
1F
100
AcDbEntity
  8
Sketch 10
100
AcDbCircle
 10
326.7909780691532
 20
94.59196934887052
 30
2.0
 40
2.999999999999952
100
AcDbArc
 50
176.1965362892033
 51
270.0
  0
ARC
  5
A6
330
1F
100
AcDbEntity
  8
Sketch 10
100
AcDbCircle
 10
362.4298537555146
 20
66.84345713318967
 30
2.0
 40
1.499999999999982
100
AcDbArc
 50
230.6384007703662
 51
50.63840077036613
  0
ARC
  5
A7
330
1F
100
AcDbEntity
  8
Sketch 10
100
AcDbCircle
 10
338.4377414097854
 20
168.7980829210281
 30
2.0
 40
1.600000000000074
100
AcDbArc
 50
90.00000000000398
 51
270.0
  0
ARC
  5
A8
330
1F
100
AcDbEntity
  8
Sketch 10
100
AcDbCircle
 10
398.9085662353554
 20
94.59196934887052
 30
2.0
 40
3.000000000000003
100
AcDbArc
 50
270.0
 51
3.803463710796667
  0
ARC
  5
A9
330
1F
100
AcDbEntity
  8
Sketch 10
100
AcDbCircle
 10
387.261802894724
 20
168.7980829210281
 30
2.0
 40
1.600000000000046
100
AcDbArc
 50
270.0
 51
89.99999999999604
  0
ARC
  5
AA
330
1F
100
AcDbEntity
  8
Sketch 10
100
AcDbCircle
 10
378.8454594401263
 20
84.565391161752
 30
2.0
 40
1.500000000000001
100
AcDbArc
 50
90.0
 51
270.0
  0
ARC
  5
AB
330
1F
100
AcDbEntity
  8
Sketch 10
100
AcDbCircle
 10
354.4460946721207
 20
168.7980829210282
 30
2.0
 40
1.600000000000101
100
AcDbArc
 50
269.999999999992
 51
90.00000000000796
  0
ARC
  5
AC
330
1F
100
AcDbEntity
  8
Sketch 10
100
AcDbCircle
 10
349.2850181392079
 20
39.72148343960478
 30
2.0
 40
1.499999999999977
100
AcDbArc
 50
129.361599229634
 51
309.3615992296341
  0
ARC
  5
AD
330
1F
100
AcDbEntity
  8
Sketch 10
100
AcDbCircle
 10
380.5045467587364
 20
66.84345713318967
 30
2.0
 40
1.499999999999971
100
AcDbArc
 50
129.3615992296342
 51
309.3615992296342
  0
ARC
  5
AE
330
1F
100
AcDbEntity
  8
Sketch 10
100
AcDbCircle
 10
371.2534496323885
 20
158.7270979973123
 30
2.0
 40
1.600000000000074
100
AcDbArc
 50
89.99999999999204
 51
270.000000000008
  0
ARC
  5
AF
330
1F
100
AcDbEntity
  8
Sketch 10
100
AcDbCircle
 10
378.8454594401263
 20
33.4025521662506
 30
2.0
 40
1.500000000000001
100
AcDbArc
 50
90.0
 51
270.0
  0
ARC
  5
B0
330
1F
100
AcDbEntity
  8
Sketch 10
100
AcDbCircle
 10
398.6083047715613
 20
33.56915952010843
 30
2.0
 40
5.000000000000001
100
AcDbArc
 50
270.0
 51
0.0
  0
ARC
  5
B1
330
1F
100
AcDbEntity
  8
Sketch 10
100
AcDbCircle
 10
371.2534496323885
 20
148.6561130735961
 30
2.0
 40
1.600000000000101
100
AcDbArc
 50
89.99999999999204
 51
270.000000000008
  0
ARC
  5
B2
330
1F
100
AcDbEntity
  8
Sketch 10
100
AcDbCircle
 10
387.261802894724
 20
148.6561130735962
 30
2.0
 40
1.600000000000074
100
AcDbArc
 50
270.000000000004
 51
90.0
  0
ARC
  5
B3
330
1F
100
AcDbEntity
  8
Sketch 10
100
AcDbCircle
 10
381.8454594401263
 20
84.565391161752
 30
2.0
 40
1.500000000000001
100
AcDbArc
 50
270.0
 51
90.0
  0
ARC
  5
B4
330
1F
100
AcDbEntity
  8
Sketch 10
100
AcDbCircle
 10
326.6083047715624
 20
33.56915952010843
 30
2.0
 40
5.000000000000004
100
AcDbArc
 50
180.0
 51
270.0
  0
CIRCLE
  5
B5
330
1F
100
AcDbEntity
  8
Sketch 10
100
AcDbCircle
 10
345.9392576537597
 20
143.0257943554312
 30
2.0
 40
1.59999999999999
  0
CIRCLE
  5
B6
330
1F
100
AcDbEntity
  8
Sketch 10
100
AcDbCircle
 10
375.4091200231955
 20
105.5091656804971
 30
2.0
 40
1.59999999999999
  0
CIRCLE
  5
B7
330
1F
100
AcDbEntity
  8
Sketch 10
100
AcDbCircle
 10
340.8918352795513
 20
81.35710768065142
 30
2.0
 40
1.649999999999985
  0
CIRCLE
  5
B8
330
1F
100
AcDbEntity
  8
Sketch 10
100
AcDbCircle
 10
363.4007309157835
 20
81.35710768065142
 30
2.0
 40
1.649999999999985
  0
CIRCLE
  5
B9
330
1F
100
AcDbEntity
  8
Sketch 10
100
AcDbCircle
 10
394.7281018678479
 20
58.81915952010817
 30
2.0
 40
1.649999999999985
  0
CIRCLE
  5
BA
330
1F
100
AcDbEntity
  8
Sketch 10
100
AcDbCircle
 10
328.9224227780978
 20
127.4605867540989
 30
2.0
 40
1.500000000000001
  0
CIRCLE
  5
BB
330
1F
100
AcDbEntity
  8
Sketch 10
100
AcDbCircle
 10
396.9392576537597
 20
127.4605867540989
 30
2.0
 40
1.500000000000001
  0
CIRCLE
  5
BC
330
1F
100
AcDbEntity
  8
Sketch 10
100
AcDbCircle
 10
340.8918352795513
 20
36.28121135956491
 30
2.0
 40
1.649999999999985
  0
CIRCLE
  5
BD
330
1F
100
AcDbEntity
  8
Sketch 10
100
AcDbCircle
 10
380.9224227780975
 20
94.67579435543148
 30
2.0
 40
1.500000000000001
  0
CIRCLE
  5
BE
330
1F
100
AcDbEntity
  8
Sketch 10
100
AcDbCircle
 10
396.9392576537597
 20
99.67579435543115
 30
2.0
 40
1.500000000000001
  0
CIRCLE
  5
BF
330
1F
100
AcDbEntity
  8
Sketch 10
100
AcDbCircle
 10
338.3497721522547
 20
116.3506419690433
 30
2.0
 40
1.59999999999999
  0
CIRCLE
  5
C0
330
1F
100
AcDbEntity
  8
Sketch 10
100
AcDbCircle
 10
387.3497721522548
 20
116.3506419690433
 30
2.0
 40
1.59999999999999
  0
CIRCLE
  5
C1
330
1F
100
AcDbEntity
  8
Sketch 10
100
AcDbCircle
 10
336.6374241264944
 20
46.83573754587013
 30
2.0
 40
1.524999999999999
  0
CIRCLE
  5
C2
330
1F
100
AcDbEntity
  8
Sketch 10
100
AcDbCircle
 10
350.2904242813131
 20
135.5116648444806
 30
2.0
 40
1.59999999999999
  0
CIRCLE
  5
C3
330
1F
100
AcDbEntity
  8
Sketch 10
100
AcDbCircle
 10
387.3497721522547
 20
174.3506419690432
 30
2.0
 40
1.500000000000001
  0
CIRCLE
  5
C4
330
1F
100
AcDbEntity
  8
Sketch 10
100
AcDbCircle
 10
327.6083047715625
 20
84.56915952010792
 30
2.0
 40
1.500000000000001
  0
CIRCLE
  5
C5
330
1F
100
AcDbEntity
  8
Sketch 10
100
AcDbCircle
 10
334.1330210225397
 20
97.26915952010799
 30
2.0
 40
1.59999999999999
  0
CIRCLE
  5
C6
330
1F
100
AcDbEntity
  8
Sketch 10
100
AcDbCircle
 10
388.1330210225394
 20
138.9210238418284
 30
2.0
 40
1.59999999999999
  0
CIRCLE
  5
C7
330
1F
100
AcDbEntity
  8
Sketch 10
100
AcDbCircle
 10
336.6374241264944
 20
71.28573754587033
 30
2.0
 40
1.524999999999999
  0
CIRCLE
  5
C8
330
1F
100
AcDbEntity
  8
Sketch 10
100
AcDbCircle
 10
397.6083047715613
 20
33.56915952010843
 30
2.0
 40
1.500000000000001
  0
CIRCLE
  5
C9
330
1F
100
AcDbEntity
  8
Sketch 10
100
AcDbCircle
 10
348.206298646403
 20
58.81915952010817
 30
2.0
 40
1.649999999999985
  0
CIRCLE
  5
CA
330
1F
100
AcDbEntity
  8
Sketch 10
100
AcDbCircle
 10
380.0511922301458
 20
143.0257943554312
 30
2.0
 40
1.59999999999999
  0
CIRCLE
  5
CB
330
1F
100
AcDbEntity
  8
Sketch 10
100
AcDbCircle
 10
391.566523281969
 20
97.26915952010799
 30
2.0
 40
1.59999999999999
  0
CIRCLE
  5
CC
330
1F
100
AcDbEntity
  8
Sketch 10
100
AcDbCircle
 10
363.4007309157835
 20
36.28121135956494
 30
2.0
 40
1.649999999999985
  0
CIRCLE
  5
CD
330
1F
100
AcDbEntity
  8
Sketch 10
100
AcDbCircle
 10
338.3497721522547
 20
174.3506419690432
 30
2.0
 40
1.500000000000001
  0
CIRCLE
  5
CE
330
1F
100
AcDbEntity
  8
Sketch 10
100
AcDbCircle
 10
375.4091200231955
 20
135.5116648444806
 30
2.0
 40
1.59999999999999
  0
CIRCLE
  5
CF
330
1F
100
AcDbEntity
  8
Sketch 10
100
AcDbCircle
 10
328.9224227780978
 20
99.67579435543115
 30
2.0
 40
1.500000000000001
  0
CIRCLE
  5
D0
330
1F
100
AcDbEntity
  8
Sketch 10
100
AcDbCircle
 10
397.6083047715613
 20
84.56915952010792
 30
2.0
 40
1.500000000000001
  0
CIRCLE
  5
D1
330
1F
100
AcDbEntity
  8
Sketch 10
100
AcDbCircle
 10
350.2904242813131
 20
105.5091656804971
 30
2.0
 40
1.59999999999999
  0
CIRCLE
  5
D2
330
1F
100
AcDbEntity
  8
Sketch 10
100
AcDbCircle
 10
344.93925765376
 20
94.67579435543148
 30
2.0
 40
1.500000000000001
  0
CIRCLE
  5
D3
330
1F
100
AcDbEntity
  8
Sketch 10
100
AcDbCircle
 10
362.6776426262673
 20
152.9044910700266
 30
2.0
 40
1.500000000000001
  0
CIRCLE
  5
D4
330
1F
100
AcDbEntity
  8
Sketch 10
100
AcDbCircle
 10
327.6083047715625
 20
33.56915952010843
 30
2.0
 40
1.500000000000001
  0
CIRCLE
  5
D5
330
1F
100
AcDbEntity
  8
Sketch 10
100
AcDbCircle
 10
337.566523281969
 20
138.9210238418284
 30
2.0
 40
1.59999999999999
  0
ELLIPSE
  5
D6
330
1F
100
AcDbEntity
  8
Sketch 10
100
AcDbEllipse
 10
371.4672002571255
 20
58.98014636690064
 30
2.0
 11
7.949949628747049
 21
0.0
 31
0.0
210
0.0
220
0.0
230
1.0
 40
0.6538965579226474
 41
0.0
 42
6.283185307179586
  0
ELLIPSE
  5
D7
330
1F
100
AcDbEntity
  8
Sketch 10
100
AcDbEllipse
 10
362.8497721522543
 20
120.5871610366972
 30
2.0
 11
9.305778778689728
 21
0.0
 31
0.0
210
0.0
220
0.0
230
1.0
 40
0.6233808280236617
 41
0.0
 42
6.283185307179586
  0
DIMENSION
  5
D9
330
1F
100
AcDbEntity
  8
Dimensions
100
AcDbDimension
280
     0
  2
*D1
 10
372.155550930944
 20
121.5177389145662
 30
2.0
 11
367.5026615415991
 21
121.5177389145662
 31
2.0
 70
   161
 71
     5
 42
9.305778778689728
 73
     0
 74
     0
 75
     0
  3
ISO-25
100
AcDbAlignedDimension
 13
362.8497721522543
 23
120.5871610366972
 33
2.0
 14
372.155550930944
 24
120.5871610366972
 34
2.0
1001
ACAD
1000
DSTYLE
1002
{
1070
   271
1070
     3
1070
    78
1070
     8
1070
   177
1070
   140
1070
   176
1070
   140
1070
   178
1070
   140
1070
    40
1040
0.7252323253934326
1070
   277
1070
     2
1002
}
  0
DIMENSION
  5
E7
330
1F
100
AcDbEntity
  8
Dimensions
100
AcDbDimension
280
     0
  2
*D2
 10
379.4171498858725
 20
59.77514132977534
 30
2.0
 11
375.442175071499
 21
59.77514132977534
 31
2.0
 70
   161
 71
     5
 42
7.949949628747049
 73
     0
 74
     0
 75
     0
  3
ISO-25
100
AcDbAlignedDimension
 13
371.4672002571255
 23
58.98014636690064
 33
2.0
 14
379.4171498858725
 24
58.98014636690064
 34
2.0
1001
ACAD
1000
DSTYLE
1002
{
1070
   271
1070
     3
1070
    78
1070
     8
1070
   177
1070
   140
1070
   176
1070
   140
1070
   178
1070
   140
1070
    40
1040
0.7252323253934326
1070
   277
1070
     2
1002
}
  0
DIMENSION
  5
F4
330
1F
100
AcDbEntity
  8
Dimensions
100
AcDbDimension
280
     0
  2
*D3
 10
362.2696677442078
 20
126.3882051171618
 30
2.0
 11
362.2696677442078
 21
123.4876830769295
 31
2.0
 70
   161
 71
     5
 42
5.801044080464621
 73
     0
 74
     0
 75
     0
  3
ISO-25
100
AcDbAlignedDimension
 13
362.8497721522543
 23
120.5871610366972
 33
2.0
 14
362.8497721522543
 24
126.3882051171618
 34
2.0
1001
ACAD
1000
DSTYLE
1002
{
1070
   271
1070
     3
1070
    78
1070
     8
1070
   177
1070
   140
1070
   176
1070
   140
1070
   178
1070
   140
1070
    40
1040
0.7252323253934326
1070
   277
1070
     2
1002
}
  0
DIMENSION
  5
101
330
1F
100
AcDbEntity
  8
Dimensions
100
AcDbDimension
280
     0
  2
*D4
 10
370.9473557873358
 20
64.17859106479676
 30
2.0
 11
370.9473557873358
 21
61.5793687158487
 31
2.0
 70
   161
 71
     5
 42
5.198444697896122
 73
     0
 74
     0
 75
     0
  3
ISO-25
100
AcDbAlignedDimension
 13
371.4672002571255
 23
58.98014636690064
 33
2.0
 14
371.4672002571255
 24
64.17859106479676
 34
2.0
1001
ACAD
1000
DSTYLE
1002
{
1070
   271
1070
     3
1070
    78
1070
     8
1070
   177
1070
   140
1070
   176
1070
   140
1070
   178
1070
   140
1070
    40
1040
0.7252323253934326
1070
   277
1070
     2
1002
}
  0
DIMENSION
  5
10E
330
1F
100
AcDbEntity
  8
Dimensions
100
AcDbDimension
280
     0
  2
*D5
 10
343.43925765376
 20
94.67579435543148
 30
2.0
 11
340.9352623271134
 21
94.67579435543148
 31
2.0
 70
   163
 71
     5
 42
3.0
 73
     0
 74
     0
 75
     0
  3
ISO-25
100
AcDbDiametricDimension
 15
346.43925765376
 25
94.67579435543148
 35
2.0
 40
0.0
1001
ACAD
1000
DSTYLE
1002
{
1070
   271
1070
     3
1070
    78
1070
     8
1070
   177
1070
   140
1070
   176
1070
   140
1070
   178
1070
   140
1070
    40
1040
0.7252323253934326
1070
   277
1070
     2
1002
}
  0
DIMENSION
  5
117
330
1F
100
AcDbEntity
  8
Dimensions
100
AcDbDimension
280
     0
  2
*D6
 10
396.1083047715613
 20
84.56915952010792
 30
2.0
 11
393.6043094449147
 21
84.56915952010792
 31
2.0
 70
   163
 71
     5
 42
3.0
 73
     0
 74
     0
 75
     0
  3
ISO-25
100
AcDbDiametricDimension
 15
399.1083047715613
 25
84.56915952010792
 35
2.0
 40
0.0
1001
ACAD
1000
DSTYLE
1002
{
1070
   271
1070
     3
1070
    78
1070
     8
1070
   177
1070
   140
1070
   176
1070
   140
1070
   178
1070
   140
1070
    40
1040
0.7252323253934326
1070
   277
1070
     2
1002
}
  0
DIMENSION
  5
120
330
1F
100
AcDbEntity
  8
Dimensions
100
AcDbDimension
280
     0
  2
*D7
 10
373.8091200231955
 20
135.5116648444806
 30
2.0
 11
370.210066972632
 21
135.5116648444806
 31
2.0
 70
   163
 71
     5
 42
3.199999999999932
 73
     0
 74
     0
 75
     0
  3
ISO-25
100
AcDbDiametricDimension
 15
377.0091200231955
 25
135.5116648444806
 35
2.0
 40
0.0
1001
ACAD
1000
DSTYLE
1002
{
1070
   271
1070
     3
1070
    78
1070
     8
1070
   177
1070
   140
1070
   176
1070
   140
1070
   178
1070
   140
1070
    40
1040
0.7252323253934326
1070
   277
1070
     2
1002
}
  0
DIMENSION
  5
129
330
1F
100
AcDbEntity
  8
Dimensions
100
AcDbDimension
280
     0
  2
*D8
 10
361.7507309157835
 20
36.28121135956494
 30
2.0
 11
358.2516778652201
 21
36.28121135956494
 31
2.0
 70
   163
 71
     5
 42
3.299999999999955
 73
     0
 74
     0
 75
     0
  3
ISO-25
100
AcDbDiametricDimension
 15
365.0507309157835
 25
36.28121135956494
 35
2.0
 40
0.0
1001
ACAD
1000
DSTYLE
1002
{
1070
   271
1070
     3
1070
    78
1070
     8
1070
   177
1070
   140
1070
   176
1070
   140
1070
   178
1070
   140
1070
    40
1040
0.7252323253934326
1070
   277
1070
     2
1002
}
  0
DIMENSION
  5
132
330
1F
100
AcDbEntity
  8
Dimensions
100
AcDbDimension
280
     0
  2
*D9
 10
327.4224227780978
 20
99.67579435543115
 30
2.0
 11
324.9184274514512
 21
99.67579435543115
 31
2.0
 70
   163
 71
     5
 42
3.0
 73
     0
 74
     0
 75
     0
  3
ISO-25
100
AcDbDiametricDimension
 15
330.4224227780978
 25
99.67579435543115
 35
2.0
 40
0.0
1001
ACAD
1000
DSTYLE
1002
{
1070
   271
1070
     3
1070
    78
1070
     8
1070
   177
1070
   140
1070
   176
1070
   140
1070
   178
1070
   140
1070
    40
1040
0.7252323253934326
1070
   277
1070
     2
1002
}
  0
DIMENSION
  5
13B
330
1F
100
AcDbEntity
  8
Dimensions
100
AcDbDimension
280
     0
  2
*D10
 10
326.1083047715625
 20
84.56915952010792
 30
2.0
 11
323.6043094449159
 21
84.56915952010792
 31
2.0
 70
   163
 71
     5
 42
3.0
 73
     0
 74
     0
 75
     0
  3
ISO-25
100
AcDbDiametricDimension
 15
329.1083047715625
 25
84.56915952010792
 35
2.0
 40
0.0
1001
ACAD
1000
DSTYLE
1002
{
1070
   271
1070
     3
1070
    78
1070
     8
1070
   177
1070
   140
1070
   176
1070
   140
1070
   178
1070
   140
1070
    40
1040
0.7252323253934326
1070
   277
1070
     2
1002
}
  0
DIMENSION
  5
144
330
1F
100
AcDbEntity
  8
Dimensions
100
AcDbDimension
280
     0
  2
*D11
 10
339.2418352795513
 20
81.35710768065142
 30
2.0
 11
335.7427822289878
 21
81.35710768065142
 31
2.0
 70
   163
 71
     5
 42
3.299999999999955
 73
     0
 74
     0
 75
     0
  3
ISO-25
100
AcDbDiametricDimension
 15
342.5418352795513
 25
81.35710768065142
 35
2.0
 40
0.0
1001
ACAD
1000
DSTYLE
1002
{
1070
   271
1070
     3
1070
    78
1070
     8
1070
   177
1070
   140
1070
   176
1070
   140
1070
   178
1070
   140
1070
    40
1040
0.7252323253934326
1070
   277
1070
     2
1002
}
  0
DIMENSION
  5
14D
330
1F
100
AcDbEntity
  8
Dimensions
100
AcDbDimension
280
     0
  2
*D12
 10
385.8497721522547
 20
174.3506419690432
 30
2.0
 11
383.3457768256081
 21
174.3506419690432
 31
2.0
 70
   163
 71
     5
 42
3.0
 73
     0
 74
     0
 75
     0
  3
ISO-25
100
AcDbDiametricDimension
 15
388.8497721522547
 25
174.3506419690432
 35
2.0
 40
0.0
1001
ACAD
1000
DSTYLE
1002
{
1070
   271
1070
     3
1070
    78
1070
     8
1070
   177
1070
   140
1070
   176
1070
   140
1070
   178
1070
   140
1070
    40
1040
0.7252323253934326
1070
   277
1070
     2
1002
}
  0
DIMENSION
  5
156
330
1F
100
AcDbEntity
  8
Dimensions
100
AcDbDimension
280
     0
  2
*D13
 10
389.966523281969
 20
97.26915952010799
 30
2.0
 11
386.3674702314055
 21
97.26915952010799
 31
2.0
 70
   163
 71
     5
 42
3.199999999999932
 73
     0
 74
     0
 75
     0
  3
ISO-25
100
AcDbDiametricDimension
 15
393.166523281969
 25
97.26915952010799
 35
2.0
 40
0.0
1001
ACAD
1000
DSTYLE
1002
{
1070
   271
1070
     3
1070
    78
1070
     8
1070
   177
1070
   140
1070
   176
1070
   140
1070
   178
1070
   140
1070
    40
1040
0.7252323253934326
1070
   277
1070
     2
1002
}
  0
DIMENSION
  5
15F
330
1F
100
AcDbEntity
  8
Dimensions
100
AcDbDimension
280
     0
  2
*D14
 10
361.1776426262673
 20
152.9044910700266
 30
2.0
 11
358.6736472996207
 21
152.9044910700266
 31
2.0
 70
   163
 71
     5
 42
3.0
 73
     0
 74
     0
 75
     0
  3
ISO-25
100
AcDbDiametricDimension
 15
364.1776426262673
 25
152.9044910700266
 35
2.0
 40
0.0
1001
ACAD
1000
DSTYLE
1002
{
1070
   271
1070
     3
1070
    78
1070
     8
1070
   177
1070
   140
1070
   176
1070
   140
1070
   178
1070
   140
1070
    40
1040
0.7252323253934326
1070
   277
1070
     2
1002
}
  0
DIMENSION
  5
168
330
1F
100
AcDbEntity
  8
Dimensions
100
AcDbDimension
280
     0
  2
*D15
 10
348.690424281313
 20
135.5116648444806
 30
2.0
 11
345.0913712307496
 21
135.5116648444806
 31
2.0
 70
   163
 71
     5
 42
3.199999999999989
 73
     0
 74
     0
 75
     0
  3
ISO-25
100
AcDbDiametricDimension
 15
351.890424281313
 25
135.5116648444806
 35
2.0
 40
0.0
1001
ACAD
1000
DSTYLE
1002
{
1070
   271
1070
     3
1070
    78
1070
     8
1070
   177
1070
   140
1070
   176
1070
   140
1070
   178
1070
   140
1070
    40
1040
0.7252323253934326
1070
   277
1070
     2
1002
}
  0
DIMENSION
  5
171
330
1F
100
AcDbEntity
  8
Dimensions
100
AcDbDimension
280
     0
  2
*D16
 10
327.4224227780978
 20
127.4605867540989
 30
2.0
 11
324.9184274514512
 21
127.4605867540989
 31
2.0
 70
   163
 71
     5
 42
3.0
 73
     0
 74
     0
 75
     0
  3
ISO-25
100
AcDbDiametricDimension
 15
330.4224227780978
 25
127.4605867540989
 35
2.0
 40
0.0
1001
ACAD
1000
DSTYLE
1002
{
1070
   271
1070
     3
1070
    78
1070
     8
1070
   177
1070
   140
1070
   176
1070
   140
1070
   178
1070
   140
1070
    40
1040
0.7252323253934326
1070
   277
1070
     2
1002
}
  0
DIMENSION
  5
17A
330
1F
100
AcDbEntity
  8
Dimensions
100
AcDbDimension
280
     0
  2
*D17
 10
332.5330210225397
 20
97.26915952010799
 30
2.0
 11
328.9339679719763
 21
97.26915952010799
 31
2.0
 70
   163
 71
     5
 42
3.199999999999989
 73
     0
 74
     0
 75
     0
  3
ISO-25
100
AcDbDiametricDimension
 15
335.7330210225397
 25
97.26915952010799
 35
2.0
 40
0.0
1001
ACAD
1000
DSTYLE
1002
{
1070
   271
1070
     3
1070
    78
1070
     8
1070
   177
1070
   140
1070
   176
1070
   140
1070
   178
1070
   140
1070
    40
1040
0.7252323253934326
1070
   277
1070
     2
1002
}
  0
DIMENSION
  5
183
330
1F
100
AcDbEntity
  8
Dimensions
100
AcDbDimension
280
     0
  2
*D18
 10
344.3392576537597
 20
143.0257943554312
 30
2.0
 11
340.7402046031962
 21
143.0257943554312
 31
2.0
 70
   163
 71
     5
 42
3.199999999999989
 73
     0
 74
     0
 75
     0
  3
ISO-25
100
AcDbDiametricDimension
 15
347.5392576537596
 25
143.0257943554312
 35
2.0
 40
0.0
1001
ACAD
1000
DSTYLE
1002
{
1070
   271
1070
     3
1070
    78
1070
     8
1070
   177
1070
   140
1070
   176
1070
   140
1070
   178
1070
   140
1070
    40
1040
0.7252323253934326
1070
   277
1070
     2
1002
}
  0
DIMENSION
  5
18C
330
1F
100
AcDbEntity
  8
Dimensions
100
AcDbDimension
280
     0
  2
*D19
 10
335.1124241264944
 20
46.83573754587013
 30
2.0
 11
330.4999992599864
 21
46.83573754587013
 31
2.0
 70
   163
 71
     5
 42
3.050000000000011
 73
     0
 74
     0
 75
     0
  3
ISO-25
100
AcDbDiametricDimension
 15
338.1624241264944
 25
46.83573754587013
 35
2.0
 40
0.0
1001
ACAD
1000
DSTYLE
1002
{
1070
   271
1070
     3
1070
    78
1070
     8
1070
   177
1070
   140
1070
   176
1070
   140
1070
   178
1070
   140
1070
    40
1040
0.7252323253934326
1070
   277
1070
     2
1002
}
  0
DIMENSION
  5
195
330
1F
100
AcDbEntity
  8
Dimensions
100
AcDbDimension
280
     0
  2
*D20
 10
385.7497721522549
 20
116.3506419690433
 30
2.0
 11
382.1507191016914
 21
116.3506419690433
 31
2.0
 70
   163
 71
     5
 42
3.199999999999932
 73
     0
 74
     0
 75
     0
  3
ISO-25
100
AcDbDiametricDimension
 15
388.9497721522548
 25
116.3506419690433
 35
2.0
 40
0.0
1001
ACAD
1000
DSTYLE
1002
{
1070
   271
1070
     3
1070
    78
1070
     8
1070
   177
1070
   140
1070
   176
1070
   140
1070
   178
1070
   140
1070
    40
1040
0.7252323253934326
1070
   277
1070
     2
1002
}
  0
DIMENSION
  5
19E
330
1F
100
AcDbEntity
  8
Dimensions
100
AcDbDimension
280
     0
  2
*D21
 10
336.7497721522547
 20
116.3506419690433
 30
2.0
 11
333.1507191016913
 21
116.3506419690433
 31
2.0
 70
   163
 71
     5
 42
3.199999999999989
 73
     0
 74
     0
 75
     0
  3
ISO-25
100
AcDbDiametricDimension
 15
339.9497721522547
 25
116.3506419690433
 35
2.0
 40
0.0
1001
ACAD
1000
DSTYLE
1002
{
1070
   271
1070
     3
1070
    78
1070
     8
1070
   177
1070
   140
1070
   176
1070
   140
1070
   178
1070
   140
1070
    40
1040
0.7252323253934326
1070
   277
1070
     2
1002
}
  0
DIMENSION
  5
1A7
330
1F
100
AcDbEntity
  8
Dimensions
100
AcDbDimension
280
     0
  2
*D22
 10
336.8497721522547
 20
174.3506419690432
 30
2.0
 11
334.3457768256081
 21
174.3506419690432
 31
2.0
 70
   163
 71
     5
 42
3.0
 73
     0
 74
     0
 75
     0
  3
ISO-25
100
AcDbDiametricDimension
 15
339.8497721522547
 25
174.3506419690432
 35
2.0
 40
0.0
1001
ACAD
1000
DSTYLE
1002
{
1070
   271
1070
     3
1070
    78
1070
     8
1070
   177
1070
   140
1070
   176
1070
   140
1070
   178
1070
   140
1070
    40
1040
0.7252323253934326
1070
   277
1070
     2
1002
}
  0
DIMENSION
  5
1B0
330
1F
100
AcDbEntity
  8
Dimensions
100
AcDbDimension
280
     0
  2
*D23
 10
395.4392576537597
 20
99.67579435543115
 30
2.0
 11
392.9352623271132
 21
99.67579435543115
 31
2.0
 70
   163
 71
     5
 42
3.0
 73
     0
 74
     0
 75
     0
  3
ISO-25
100
AcDbDiametricDimension
 15
398.4392576537597
 25
99.67579435543115
 35
2.0
 40
0.0
1001
ACAD
1000
DSTYLE
1002
{
1070
   271
1070
     3
1070
    78
1070
     8
1070
   177
1070
   140
1070
   176
1070
   140
1070
   178
1070
   140
1070
    40
1040
0.7252323253934326
1070
   277
1070
     2
1002
}
  0
DIMENSION
  5
1B9
330
1F
100
AcDbEntity
  8
Dimensions
100
AcDbDimension
280
     0
  2
*D24
 10
396.1083047715613
 20
33.56915952010843
 30
2.0
 11
393.6043094449147
 21
33.56915952010843
 31
2.0
 70
   163
 71
     5
 42
3.0
 73
     0
 74
     0
 75
     0
  3
ISO-25
100
AcDbDiametricDimension
 15
399.1083047715613
 25
33.56915952010843
 35
2.0
 40
0.0
1001
ACAD
1000
DSTYLE
1002
{
1070
   271
1070
     3
1070
    78
1070
     8
1070
   177
1070
   140
1070
   176
1070
   140
1070
   178
1070
   140
1070
    40
1040
0.7252323253934326
1070
   277
1070
     2
1002
}
  0
DIMENSION
  5
1C2
330
1F
100
AcDbEntity
  8
Dimensions
100
AcDbDimension
280
     0
  2
*D25
 10
339.2418352795513
 20
36.28121135956491
 30
2.0
 11
335.7427822289878
 21
36.28121135956491
 31
2.0
 70
   163
 71
     5
 42
3.299999999999955
 73
     0
 74
     0
 75
     0
  3
ISO-25
100
AcDbDiametricDimension
 15
342.5418352795513
 25
36.28121135956491
 35
2.0
 40
0.0
1001
ACAD
1000
DSTYLE
1002
{
1070
   271
1070
     3
1070
    78
1070
     8
1070
   177
1070
   140
1070
   176
1070
   140
1070
   178
1070
   140
1070
    40
1040
0.7252323253934326
1070
   277
1070
     2
1002
}
  0
DIMENSION
  5
1CB
330
1F
100
AcDbEntity
  8
Dimensions
100
AcDbDimension
280
     0
  2
*D26
 10
346.556298646403
 20
58.81915952010817
 30
2.0
 11
343.0572455958396
 21
58.81915952010817
 31
2.0
 70
   163
 71
     5
 42
3.299999999999955
 73
     0
 74
     0
 75
     0
  3
ISO-25
100
AcDbDiametricDimension
 15
349.856298646403
 25
58.81915952010817
 35
2.0
 40
0.0
1001
ACAD
1000
DSTYLE
1002
{
1070
   271
1070
     3
1070
    78
1070
     8
1070
   177
1070
   140
1070
   176
1070
   140
1070
   178
1070
   140
1070
    40
1040
0.7252323253934326
1070
   277
1070
     2
1002
}
  0
DIMENSION
  5
1D4
330
1F
100
AcDbEntity
  8
Dimensions
100
AcDbDimension
280
     0
  2
*D27
 10
335.966523281969
 20
138.9210238418284
 30
2.0
 11
332.3674702314056
 21
138.9210238418284
 31
2.0
 70
   163
 71
     5
 42
3.199999999999989
 73
     0
 74
     0
 75
     0
  3
ISO-25
100
AcDbDiametricDimension
 15
339.166523281969
 25
138.9210238418284
 35
2.0
 40
0.0
1001
ACAD
1000
DSTYLE
1002
{
1070
   271
1070
     3
1070
    78
1070
     8
1070
   177
1070
   140
1070
   176
1070
   140
1070
   178
1070
   140
1070
    40
1040
0.7252323253934326
1070
   277
1070
     2
1002
}
  0
DIMENSION
  5
1DD
330
1F
100
AcDbEntity
  8
Dimensions
100
AcDbDimension
280
     0
  2
*D28
 10
335.1124241264944
 20
71.28573754587033
 30
2.0
 11
330.4999992599864
 21
71.28573754587033
 31
2.0
 70
   163
 71
     5
 42
3.050000000000011
 73
     0
 74
     0
 75
     0
  3
ISO-25
100
AcDbDiametricDimension
 15
338.1624241264944
 25
71.28573754587033
 35
2.0
 40
0.0
1001
ACAD
1000
DSTYLE
1002
{
1070
   271
1070
     3
1070
    78
1070
     8
1070
   177
1070
   140
1070
   176
1070
   140
1070
   178
1070
   140
1070
    40
1040
0.7252323253934326
1070
   277
1070
     2
1002
}
  0
DIMENSION
  5
1E6
330
1F
100
AcDbEntity
  8
Dimensions
100
AcDbDimension
280
     0
  2
*D29
 10
348.690424281313
 20
105.5091656804971
 30
2.0
 11
345.0913712307496
 21
105.5091656804971
 31
2.0
 70
   163
 71
     5
 42
3.199999999999989
 73
     0
 74
     0
 75
     0
  3
ISO-25
100
AcDbDiametricDimension
 15
351.890424281313
 25
105.5091656804971
 35
2.0
 40
0.0
1001
ACAD
1000
DSTYLE
1002
{
1070
   271
1070
     3
1070
    78
1070
     8
1070
   177
1070
   140
1070
   176
1070
   140
1070
   178
1070
   140
1070
    40
1040
0.7252323253934326
1070
   277
1070
     2
1002
}
  0
DIMENSION
  5
1EF
330
1F
100
AcDbEntity
  8
Dimensions
100
AcDbDimension
280
     0
  2
*D30
 10
395.4392576537597
 20
127.4605867540989
 30
2.0
 11
392.9352623271132
 21
127.4605867540989
 31
2.0
 70
   163
 71
     5
 42
3.0
 73
     0
 74
     0
 75
     0
  3
ISO-25
100
AcDbDiametricDimension
 15
398.4392576537597
 25
127.4605867540989
 35
2.0
 40
0.0
1001
ACAD
1000
DSTYLE
1002
{
1070
   271
1070
     3
1070
    78
1070
     8
1070
   177
1070
   140
1070
   176
1070
   140
1070
   178
1070
   140
1070
    40
1040
0.7252323253934326
1070
   277
1070
     2
1002
}
  0
DIMENSION
  5
1F8
330
1F
100
AcDbEntity
  8
Dimensions
100
AcDbDimension
280
     0
  2
*D31
 10
361.7507309157835
 20
81.35710768065142
 30
2.0
 11
358.2516778652201
 21
81.35710768065142
 31
2.0
 70
   163
 71
     5
 42
3.299999999999955
 73
     0
 74
     0
 75
     0
  3
ISO-25
100
AcDbDiametricDimension
 15
365.0507309157835
 25
81.35710768065142
 35
2.0
 40
0.0
1001
ACAD
1000
DSTYLE
1002
{
1070
   271
1070
     3
1070
    78
1070
     8
1070
   177
1070
   140
1070
   176
1070
   140
1070
   178
1070
   140
1070
    40
1040
0.7252323253934326
1070
   277
1070
     2
1002
}
  0
DIMENSION
  5
201
330
1F
100
AcDbEntity
  8
Dimensions
100
AcDbDimension
280
     0
  2
*D32
 10
379.4224227780975
 20
94.67579435543148
 30
2.0
 11
376.9184274514509
 21
94.67579435543148
 31
2.0
 70
   163
 71
     5
 42
3.0
 73
     0
 74
     0
 75
     0
  3
ISO-25
100
AcDbDiametricDimension
 15
382.4224227780975
 25
94.67579435543148
 35
2.0
 40
0.0
1001
ACAD
1000
DSTYLE
1002
{
1070
   271
1070
     3
1070
    78
1070
     8
1070
   177
1070
   140
1070
   176
1070
   140
1070
   178
1070
   140
1070
    40
1040
0.7252323253934326
1070
   277
1070
     2
1002
}
  0
DIMENSION
  5
20A
330
1F
100
AcDbEntity
  8
Dimensions
100
AcDbDimension
280
     0
  2
*D33
 10
326.1083047715625
 20
33.56915952010843
 30
2.0
 11
323.6043094449159
 21
33.56915952010843
 31
2.0
 70
   163
 71
     5
 42
3.0
 73
     0
 74
     0
 75
     0
  3
ISO-25
100
AcDbDiametricDimension
 15
329.1083047715625
 25
33.56915952010843
 35
2.0
 40
0.0
1001
ACAD
1000
DSTYLE
1002
{
1070
   271
1070
     3
1070
    78
1070
     8
1070
   177
1070
   140
1070
   176
1070
   140
1070
   178
1070
   140
1070
    40
1040
0.7252323253934326
1070
   277
1070
     2
1002
}
  0
DIMENSION
  5
213
330
1F
100
AcDbEntity
  8
Dimensions
100
AcDbDimension
280
     0
  2
*D34
 10
386.5330210225394
 20
138.9210238418284
 30
2.0
 11
382.9339679719759
 21
138.9210238418284
 31
2.0
 70
   163
 71
     5
 42
3.199999999999932
 73
     0
 74
     0
 75
     0
  3
ISO-25
100
AcDbDiametricDimension
 15
389.7330210225393
 25
138.9210238418284
 35
2.0
 40
0.0
1001
ACAD
1000
DSTYLE
1002
{
1070
   271
1070
     3
1070
    78
1070
     8
1070
   177
1070
   140
1070
   176
1070
   140
1070
   178
1070
   140
1070
    40
1040
0.7252323253934326
1070
   277
1070
     2
1002
}
  0
DIMENSION
  5
21C
330
1F
100
AcDbEntity
  8
Dimensions
100
AcDbDimension
280
     0
  2
*D35
 10
373.8091200231955
 20
105.5091656804971
 30
2.0
 11
370.210066972632
 21
105.5091656804971
 31
2.0
 70
   163
 71
     5
 42
3.199999999999932
 73
     0
 74
     0
 75
     0
  3
ISO-25
100
AcDbDiametricDimension
 15
377.0091200231955
 25
105.5091656804971
 35
2.0
 40
0.0
1001
ACAD
1000
DSTYLE
1002
{
1070
   271
1070
     3
1070
    78
1070
     8
1070
   177
1070
   140
1070
   176
1070
   140
1070
   178
1070
   140
1070
    40
1040
0.7252323253934326
1070
   277
1070
     2
1002
}
  0
DIMENSION
  5
225
330
1F
100
AcDbEntity
  8
Dimensions
100
AcDbDimension
280
     0
  2
*D36
 10
378.4511922301458
 20
143.0257943554312
 30
2.0
 11
374.8521391795823
 21
143.0257943554312
 31
2.0
 70
   163
 71
     5
 42
3.199999999999932
 73
     0
 74
     0
 75
     0
  3
ISO-25
100
AcDbDiametricDimension
 15
381.6511922301457
 25
143.0257943554312
 35
2.0
 40
0.0
1001
ACAD
1000
DSTYLE
1002
{
1070
   271
1070
     3
1070
    78
1070
     8
1070
   177
1070
   140
1070
   176
1070
   140
1070
   178
1070
   140
1070
    40
1040
0.7252323253934326
1070
   277
1070
     2
1002
}
  0
DIMENSION
  5
22E
330
1F
100
AcDbEntity
  8
Dimensions
100
AcDbDimension
280
     0
  2
*D37
 10
393.0781018678479
 20
58.81915952010817
 30
2.0
 11
389.5790488172844
 21
58.81915952010817
 31
2.0
 70
   163
 71
     5
 42
3.299999999999955
 73
     0
 74
     0
 75
     0
  3
ISO-25
100
AcDbDiametricDimension
 15
396.3781018678479
 25
58.81915952010817
 35
2.0
 40
0.0
1001
ACAD
1000
DSTYLE
1002
{
1070
   271
1070
     3
1070
    78
1070
     8
1070
   177
1070
   140
1070
   176
1070
   140
1070
   178
1070
   140
1070
    40
1040
0.7252323253934326
1070
   277
1070
     2
1002
}
  0
ENDSEC
  0
SECTION
  2
OBJECTS
  0
DICTIONARY
  5
C
330
0
100
AcDbDictionary
281
     1
  3
ACAD_DETAILVIEWSTYLE
350
26E
  3
ACAD_GROUP
350
D
  3
ACAD_LAYOUT
350
1A
  3
ACAD_MATERIAL
350
43
  3
ACAD_MLEADERSTYLE
350
5B
  3
ACAD_MLINESTYLE
350
17
  3
ACAD_PLOTSETTINGS
350
19
  3
ACAD_PLOTSTYLENAME
350
E
  3
ACAD_SCALELIST
350
47
  3
ACAD_SECTIONVIEWSTYLE
350
26F
  3
ACAD_TABLESTYLE
350
59
  3
ACAD_VISUALSTYLE
350
2A
  3
AcDbVariableDictionary
350
237
  3
ACDB_RECOMPOSE_DATA
350
26B
  0
SUN
  5
5D
330
29
100
AcDbSun
 90
        1
290
     0
 63
     7
421
 16777215
 40
1.0
291
     1
 91
  2455826
 92
 54000000
292
     0
 70
     2
 71
   256
280
     1
  0
DICTIONARY
  5
26E
102
{ACAD_REACTORS
330
C
102
}
330
C
100
AcDbDictionary
281
     1
  0
DICTIONARY
  5
D
102
{ACAD_REACTORS
330
C
102
}
330
C
100
AcDbDictionary
281
     1
  0
DICTIONARY
  5
1A
102
{ACAD_REACTORS
330
C
102
}
330
C
100
AcDbDictionary
281
     1
  3
Layout1
350
1E
  3
Layout2
350
26
  3
Model
350
22
  0
DICTIONARY
  5
43
102
{ACAD_REACTORS
330
C
102
}
330
C
100
AcDbDictionary
281
     1
  3
ByBlock
350
45
  3
ByLayer
350
44
  3
Global
350
46
  0
DICTIONARY
  5
5B
102
{ACAD_REACTORS
330
C
102
}
330
C
100
AcDbDictionary
281
     1
  3
Standard
350
5C
  0
DICTIONARY
  5
17
102
{ACAD_REACTORS
330
C
102
}
330
C
100
AcDbDictionary
281
     1
  3
Standard
350
18
  0
DICTIONARY
  5
19
102
{ACAD_REACTORS
330
C
102
}
330
C
100
AcDbDictionary
281
     1
  0
ACDBDICTIONARYWDFLT
  5
E
102
{ACAD_REACTORS
330
C
102
}
330
C
100
AcDbDictionary
281
     1
  3
Normal
350
F
100
AcDbDictionaryWithDefault
340
F
  0
DICTIONARY
  5
47
102
{ACAD_REACTORS
330
C
102
}
330
C
100
AcDbDictionary
281
     1
  3
A0
350
48
  3
A1
350
49
  3
A2
350
4A
  3
A3
350
4B
  3
A4
350
4C
  3
A5
350
4D
  3
A6
350
4E
  3
A7
350
4F
  3
A8
350
50
  3
A9
350
51
  3
B0
350
52
  3
B1
350
53
  3
B2
350
54
  3
B3
350
55
  3
B4
350
56
  3
B5
350
57
  3
B6
350
58
  0
DICTIONARY
  5
26F
102
{ACAD_REACTORS
330
C
102
}
330
C
100
AcDbDictionary
281
     1
  0
DICTIONARY
  5
59
102
{ACAD_REACTORS
330
C
102
}
330
C
100
AcDbDictionary
281
     1
  3
Standard
350
5A
  0
DICTIONARY
  5
2A
102
{ACAD_REACTORS
330
C
102
}
330
C
100
AcDbDictionary
281
     1
  3
2dWireframe
350
2F
  3
Basic
350
32
  3
Brighten
350
36
  3
ColorChange
350
3A
  3
Conceptual
350
34
  3
Dim
350
35
  3
EdgeColorOff
350
3D
  3
Facepattern
350
39
  3
Flat
350
2B
  3
FlatWithEdges
350
2C
  3
Gouraud
350
2D
  3
GouraudWithEdges
350
2E
  3
Hidden
350
31
  3
JitterOff
350
3B
  3
Linepattern
350
38
  3
OverhangOff
350
3C
  3
Realistic
350
33
  3
Shaded
350
42
  3
Shaded with edges
350
41
  3
Shades of Gray
350
3E
  3
Sketchy
350
3F
  3
Thicken
350
37
  3
Wireframe
350
30
  3
X-Ray
350
40
  0
DICTIONARY
  5
237
102
{ACAD_REACTORS
330
C
102
}
330
C
100
AcDbDictionary
281
     1
  3
CANNOSCALE
350
238
  3
CENTEREXE
350
270
  3
CENTERLTYPEFILE
350
271
  3
CMLEADERSTYLE
350
26D
  3
CTABLESTYLE
350
26C
  0
XRECORD
  5
26B
102
{ACAD_REACTORS
330
C
102
}
330
C
100
AcDbXrecord
280
     1
 90
        1
330
5A
  0
LAYOUT
  5
1E
102
{ACAD_REACTORS
330
1A
102
}
330
1A
100
AcDbPlotSettings
  1

  2
none_device
  4

  6

 40
0.0
 41
0.0
 42
0.0
 43
0.0
 44
0.0
 45
0.0
 46
0.0
 47
0.0
 48
0.0
 49
0.0
140
0.0
141
0.0
142
1.0
143
1.0
 70
   688
 72
     1
 73
     0
 74
     5
  7

 75
    16
 76
     0
 77
     2
 78
   300
147
1.0
148
0.0
149
0.0
100
AcDbLayout
  1
Layout1
 70
     1
 71
     1
 10
0.0
 20
0.0
 11
420.0
 21
297.0
 12
0.0
 22
0.0
 32
0.0
 14
1.000000000000000E+20
 24
1.000000000000000E+20
 34
1.000000000000000E+20
 15
-1.000000000000000E+20
 25
-1.000000000000000E+20
 35
-1.000000000000000E+20
146
0.0
 13
0.0
 23
0.0
 33
0.0
 16
1.0
 26
0.0
 36
0.0
 17
0.0
 27
1.0
 37
0.0
 76
     0
330
1B
  0
LAYOUT
  5
26
102
{ACAD_REACTORS
330
1A
102
}
330
1A
100
AcDbPlotSettings
  1

  2
none_device
  4

  6

 40
0.0
 41
0.0
 42
0.0
 43
0.0
 44
0.0
 45
0.0
 46
0.0
 47
0.0
 48
0.0
 49
0.0
140
0.0
141
0.0
142
1.0
143
1.0
 70
   688
 72
     1
 73
     0
 74
     5
  7

 75
    16
 76
     0
 77
     2
 78
   300
147
1.0
148
0.0
149
0.0
100
AcDbLayout
  1
Layout2
 70
     1
 71
     2
 10
0.0
 20
0.0
 11
0.0
 21
0.0
 12
0.0
 22
0.0
 32
0.0
 14
0.0
 24
0.0
 34
0.0
 15
0.0
 25
0.0
 35
0.0
146
0.0
 13
0.0
 23
0.0
 33
0.0
 16
1.0
 26
0.0
 36
0.0
 17
0.0
 27
1.0
 37
0.0
 76
     0
330
23
  0
LAYOUT
  5
22
102
{ACAD_REACTORS
330
1A
102
}
330
1A
100
AcDbPlotSettings
  1

  2
none_device
  4
Letter_(8.50_x_11.00_Inches)
  6

 40
6.35
 41
6.35
 42
6.35000508
 43
6.35000508
 44
215.9
 45
279.4
 46
0.0
 47
0.0
 48
0.0
 49
0.0
140
0.0
141
0.0
142
1.0
143
1.0
 70
  1712
 72
     1
 73
     0
 74
     0
  7

 75
     0
 76
     0
 77
     2
 78
   300
147
1.0
148
0.0
149
0.0
100
AcDbLayout
  1
Model
 70
     1
 71
     0
 10
0.0
 20
0.0
 11
420.0
 21
297.0
 12
0.0
 22
0.0
 32
0.0
 14
1.000000000000000E+20
 24
1.000000000000000E+20
 34
1.000000000000000E+20
 15
-1.000000000000000E+20
 25
-1.000000000000000E+20
 35
-1.000000000000000E+20
146
0.0
 13
0.0
 23
0.0
 33
0.0
 16
1.0
 26
0.0
 36
0.0
 17
0.0
 27
1.0
 37
0.0
 76
     0
330
1F
331
29
  0
MATERIAL
  5
45
102
{ACAD_REACTORS
330
43
102
}
330
43
100
AcDbMaterial
  1
ByBlock
 72
     1
 94
      127
  0
MATERIAL
  5
44
102
{ACAD_REACTORS
330
43
102
}
330
43
100
AcDbMaterial
  1
ByLayer
 72
     1
 94
      127
  0
MATERIAL
  5
46
102
{ACAD_REACTORS
330
43
102
}
330
43
100
AcDbMaterial
  1
Global
 72
     1
 94
      127
  0
MLEADERSTYLE
  5
5C
102
{ACAD_REACTORS
330
5B
102
}
330
5B
100
AcDbMLeaderStyle
179
     2
170
     2
171
     1
172
     0
 90
        2
 40
0.0
 41
0.0
173
     1
 91
-1056964608
340
14
 92
       -2
290
     1
 42
2.0
291
     1
 43
8.0
  3
Standard
341
0
 44
4.0
300

342
11
174
     1
178
     6
175
     1
176
     0
 93
-1056964608
 45
4.0
292
     0
297
     0
 46
4.0
343
0
 94
-1056964608
 47
1.0
 49
1.0
140
1.0
293
     1
141
0.0
294
     1
177
     0
142
1.0
295
     0
296
     0
143
3.75
271
     0
272
     9
273
     9
  0
MLINESTYLE
  5
18
102
{ACAD_REACTORS
330
17
102
}
330
17
100
AcDbMlineStyle
  2
Standard
 70
     0
  3

 62
   256
 51
90.0
 52
90.0
 71
     2
 49
0.5
 62
   256
  6
BYLAYER
 49
-0.5
 62
   256
  6
BYLAYER
  0
ACDBPLACEHOLDER
  5
F
102
{ACAD_REACTORS
330
E
102
}
330
E
  0
SCALE
  5
48
102
{ACAD_REACTORS
330
47
102
}
330
47
100
AcDbScale
 70
     0
300
1:1
140
1.0
141
1.0
290
     1
  0
SCALE
  5
49
102
{ACAD_REACTORS
330
47
102
}
330
47
100
AcDbScale
 70
     0
300
1:2
140
1.0
141
2.0
290
     0
  0
SCALE
  5
4A
102
{ACAD_REACTORS
330
47
102
}
330
47
100
AcDbScale
 70
     0
300
1:4
140
1.0
141
4.0
290
     0
  0
SCALE
  5
4B
102
{ACAD_REACTORS
330
47
102
}
330
47
100
AcDbScale
 70
     0
300
1:5
140
1.0
141
5.0
290
     0
  0
SCALE
  5
4C
102
{ACAD_REACTORS
330
47
102
}
330
47
100
AcDbScale
 70
     0
300
1:8
140
1.0
141
8.0
290
     0
  0
SCALE
  5
4D
102
{ACAD_REACTORS
330
47
102
}
330
47
100
AcDbScale
 70
     0
300
1:10
140
1.0
141
10.0
290
     0
  0
SCALE
  5
4E
102
{ACAD_REACTORS
330
47
102
}
330
47
100
AcDbScale
 70
     0
300
1:16
140
1.0
141
16.0
290
     0
  0
SCALE
  5
4F
102
{ACAD_REACTORS
330
47
102
}
330
47
100
AcDbScale
 70
     0
300
1:20
140
1.0
141
20.0
290
     0
  0
SCALE
  5
50
102
{ACAD_REACTORS
330
47
102
}
330
47
100
AcDbScale
 70
     0
300
1:30
140
1.0
141
30.0
290
     0
  0
SCALE
  5
51
102
{ACAD_REACTORS
330
47
102
}
330
47
100
AcDbScale
 70
     0
300
1:40
140
1.0
141
40.0
290
     0
  0
SCALE
  5
52
102
{ACAD_REACTORS
330
47
102
}
330
47
100
AcDbScale
 70
     0
300
1:50
140
1.0
141
50.0
290
     0
  0
SCALE
  5
53
102
{ACAD_REACTORS
330
47
102
}
330
47
100
AcDbScale
 70
     0
300
1:100
140
1.0
141
100.0
290
     0
  0
SCALE
  5
54
102
{ACAD_REACTORS
330
47
102
}
330
47
100
AcDbScale
 70
     0
300
2:1
140
2.0
141
1.0
290
     0
  0
SCALE
  5
55
102
{ACAD_REACTORS
330
47
102
}
330
47
100
AcDbScale
 70
     0
300
4:1
140
4.0
141
1.0
290
     0
  0
SCALE
  5
56
102
{ACAD_REACTORS
330
47
102
}
330
47
100
AcDbScale
 70
     0
300
8:1
140
8.0
141
1.0
290
     0
  0
SCALE
  5
57
102
{ACAD_REACTORS
330
47
102
}
330
47
100
AcDbScale
 70
     0
300
10:1
140
10.0
141
1.0
290
     0
  0
SCALE
  5
58
102
{ACAD_REACTORS
330
47
102
}
330
47
100
AcDbScale
 70
     0
300
100:1
140
100.0
141
1.0
290
     0
  0
TABLESTYLE
  5
5A
102
{ACAD_REACTORS
330
59
102
}
102
{ACAD_XDICTIONARY
360
269
102
}
330
59
100
AcDbTableStyle
  3
Standard
 70
     0
 71
     0
 40
0.06
 41
0.06
280
     0
281
     0
  7
Standard
140
4.5
170
     2
 62
     0
 63
   257
283
     0
 90
        4
 91
        0
  1

274
    -2
284
     1
 64
     0
275
    -2
285
     1
 65
     0
276
    -2
286
     1
 66
     0
277
    -2
287
     1
 67
     0
278
    -2
288
     1
 68
     0
279
    -2
289
     1
 69
     0
  7
Standard
140
6.0
170
     5
 62
     0
 63
   257
283
     0
 90
        4
 91
        0
  1

274
    -2
284
     1
 64
     0
275
    -2
285
     1
 65
     0
276
    -2
286
     1
 66
     0
277
    -2
287
     1
 67
     0
278
    -2
288
     1
 68
     0
279
    -2
289
     1
 69
     0
  7
Standard
140
4.5
170
     5
 62
     0
 63
   257
283
     0
 90
        4
 91
        0
  1

274
    -2
284
     1
 64
     0
275
    -2
285
     1
 65
     0
276
    -2
286
     1
 66
     0
277
    -2
287
     1
 67
     0
278
    -2
288
     1
 68
     0
279
    -2
289
     1
 69
     0
  0
VISUALSTYLE
  5
2F
102
{ACAD_REACTORS
330
2A
102
}
102
{ACAD_XDICTIONARY
360
241
102
}
330
2A
100
AcDbVisualStyle
  2
2dWireframe
 70
     4
177
     2
291
     0
 71
     0
176
     1
 72
     2
176
     1
 73
     0
176
     1
 90
        0
176
     1
 40
0.6
176
     1
 41
30.0
176
     1
 62
     5
 63
     7
421
 16777215
176
     1
 74
     1
176
     1
 91
        4
176
     1
 64
     7
176
     1
 65
   257
176
     1
 75
     1
176
     1
175
     1
176
     1
 42
1.0
176
     1
 92
        0
176
     1
 66
   257
176
     1
 43
1.0
176
     1
 76
     1
176
     1
 77
     6
176
     1
 78
     2
176
     1
 67
     7
176
     1
 79
     5
176
     1
170
     0
176
     1
171
     0
176
     1
290
     0
176
     1
 93
        1
176
     1
 44
0.0
176
     1
173
     0
176
     1
  0
VISUALSTYLE
  5
32
102
{ACAD_REACTORS
330
2A
102
}
102
{ACAD_XDICTIONARY
360
247
102
}
330
2A
100
AcDbVisualStyle
  2
Basic
 70
     7
177
     2
291
     1
 71
     1
176
     1
 72
     0
176
     1
 73
     1
176
     1
 90
        0
176
     1
 40
0.6
176
     1
 41
30.0
176
     1
 62
     5
 63
     7
421
 16777215
176
     1
 74
     0
176
     1
 91
        4
176
     1
 64
     7
176
     1
 65
   257
176
     1
 75
     1
176
     1
175
     1
176
     1
 42
1.0
176
     1
 92
        8
176
     1
 66
     7
176
     1
 43
1.0
176
     1
 76
     1
176
     1
 77
     6
176
     1
 78
     2
176
     1
 67
     7
176
     1
 79
     5
176
     1
170
     0
176
     1
171
     0
176
     1
290
     0
176
     1
 93
        1
176
     1
 44
0.0
176
     1
173
     0
176
     1
  0
VISUALSTYLE
  5
36
102
{ACAD_REACTORS
330
2A
102
}
102
{ACAD_XDICTIONARY
360
24F
102
}
330
2A
100
AcDbVisualStyle
  2
Brighten
 70
    12
177
     2
291
     1
 71
     2
176
     1
 72
     2
176
     1
 73
     0
176
     1
 90
        0
176
     1
 40
0.6
176
     1
 41
30.0
176
     1
 62
     5
 63
     7
421
 16777215
176
     1
 74
     1
176
     1
 91
        4
176
     1
 64
     7
176
     1
 65
   257
176
     1
 75
     1
176
     1
175
     1
176
     1
 42
1.0
176
     1
 92
        8
176
     1
 66
     7
176
     1
 43
1.0
176
     1
 76
     1
176
     1
 77
     6
176
     1
 78
     2
176
     1
 67
     7
176
     1
 79
     5
176
     1
170
     0
176
     1
171
     0
176
     1
290
     0
176
     1
 93
        1
176
     1
 44
50.0
176
     1
173
     0
176
     1
  0
VISUALSTYLE
  5
3A
102
{ACAD_REACTORS
330
2A
102
}
102
{ACAD_XDICTIONARY
360
257
102
}
330
2A
100
AcDbVisualStyle
  2
ColorChange
 70
    16
177
     2
291
     1
 71
     2
176
     1
 72
     2
176
     1
 73
     3
176
     1
 90
        0
176
     1
 40
0.6
176
     1
 41
30.0
176
     1
 62
     5
 63
     8
421
  8421504
176
     1
 74
     1
176
     1
 91
        4
176
     1
 64
     7
176
     1
 65
   257
176
     1
 75
     1
176
     1
175
     1
176
     1
 42
1.0
176
     1
 92
        8
176
     1
 66
     8
424
  8421504
176
     1
 43
1.0
176
     1
 76
     1
176
     1
 77
     6
176
     1
 78
     2
176
     1
 67
     7
176
     1
 79
     5
176
     1
170
     0
176
     1
171
     0
176
     1
290
     0
176
     1
 93
        1
176
     1
 44
0.0
176
     1
173
     0
176
     1
  0
VISUALSTYLE
  5
34
102
{ACAD_REACTORS
330
2A
102
}
102
{ACAD_XDICTIONARY
360
24B
102
}
330
2A
100
AcDbVisualStyle
  2
Conceptual
 70
     9
177
     2
291
     0
 71
     3
176
     1
 72
     2
176
     1
 73
     0
176
     1
 90
        0
176
     1
 40
0.6
176
     1
 41
30.0
176
     1
 62
     5
 63
     7
421
 16777215
176
     1
 74
     2
176
     1
 91
        2
176
     1
 64
     7
176
     1
 65
   257
176
     1
 75
     1
176
     1
175
     1
176
     1
 42
179.0
176
     1
 92
        8
176
     1
 66
     7
176
     1
 43
1.0
176
     1
 76
     1
176
     1
 77
     6
176
     1
 78
     2
176
     1
 67
     7
176
     1
 79
     3
176
     1
170
     0
176
     1
171
     0
176
     1
290
     0
176
     1
 93
        1
176
     1
 44
0.0
176
     1
173
     0
176
     1
  0
VISUALSTYLE
  5
35
102
{ACAD_REACTORS
330
2A
102
}
102
{ACAD_XDICTIONARY
360
24D
102
}
330
2A
100
AcDbVisualStyle
  2
Dim
 70
    11
177
     2
291
     1
 71
     2
176
     1
 72
     2
176
     1
 73
     0
176
     1
 90
        0
176
     1
 40
0.6
176
     1
 41
30.0
176
     1
 62
     5
 63
     7
421
 16777215
176
     1
 74
     1
176
     1
 91
        4
176
     1
 64
     7
176
     1
 65
   257
176
     1
 75
     1
176
     1
175
     1
176
     1
 42
1.0
176
     1
 92
        8
176
     1
 66
     7
176
     1
 43
1.0
176
     1
 76
     1
176
     1
 77
     6
176
     1
 78
     2
176
     1
 67
     7
176
     1
 79
     5
176
     1
170
     0
176
     1
171
     0
176
     1
290
     0
176
     1
 93
        1
176
     1
 44
-50.0
176
     1
173
     0
176
     1
  0
VISUALSTYLE
  5
3D
102
{ACAD_REACTORS
330
2A
102
}
102
{ACAD_XDICTIONARY
360
25D
102
}
330
2A
100
AcDbVisualStyle
  2
EdgeColorOff
 70
    22
177
     2
291
     1
 71
     2
176
     0
 72
     2
176
     0
 73
     0
176
     0
 90
        0
176
     0
 40
0.6
176
     0
 41
30.0
176
     0
 62
     5
 63
     7
421
 16777215
176
     0
 74
     1
176
     0
 91
        4
176
     0
 64
     7
176
     0
 65
   257
176
     0
 75
     1
176
     0
175
     1
176
     0
 42
1.0
176
     0
 92
        8
176
     2
 66
     7
176
     0
 43
1.0
176
     0
 76
     1
176
     0
 77
     6
176
     0
 78
     2
176
     0
 67
     7
176
     0
 79
     5
176
     0
170
     0
176
     0
171
     0
176
     0
290
     0
176
     0
 93
        1
176
     0
 44
0.0
176
     0
173
     0
176
     0
  0
VISUALSTYLE
  5
39
102
{ACAD_REACTORS
330
2A
102
}
102
{ACAD_XDICTIONARY
360
255
102
}
330
2A
100
AcDbVisualStyle
  2
Facepattern
 70
    15
177
     2
291
     1
 71
     2
176
     1
 72
     2
176
     1
 73
     0
176
     1
 90
        0
176
     1
 40
0.6
176
     1
 41
30.0
176
     1
 62
     5
 63
     7
421
 16777215
176
     1
 74
     1
176
     1
 91
        4
176
     1
 64
     7
176
     1
 65
   257
176
     1
 75
     1
176
     1
175
     1
176
     1
 42
1.0
176
     1
 92
        8
176
     1
 66
     7
176
     1
 43
1.0
176
     1
 76
     1
176
     1
 77
     6
176
     1
 78
     2
176
     1
 67
     7
176
     1
 79
     5
176
     1
170
     0
176
     1
171
     0
176
     1
290
     0
176
     1
 93
        1
176
     1
 44
0.0
176
     1
173
     0
176
     1
  0
VISUALSTYLE
  5
2B
102
{ACAD_REACTORS
330
2A
102
}
102
{ACAD_XDICTIONARY
360
239
102
}
330
2A
100
AcDbVisualStyle
  2
Flat
 70
     0
177
     2
291
     1
 71
     2
176
     1
 72
     1
176
     1
 73
     1
176
     1
 90
        2
176
     1
 40
0.6
176
     1
 41
30.0
176
     1
 62
     5
 63
     7
421
 16777215
176
     1
 74
     0
176
     1
 91
        0
176
     1
 64
     7
176
     1
 65
   257
176
     1
 75
     1
176
     1
175
     1
176
     1
 42
1.0
176
     1
 92
        8
176
     1
 66
     7
176
     1
 43
1.0
176
     1
 76
     1
176
     1
 77
     6
176
     1
 78
     2
176
     1
 67
     7
176
     1
 79
     5
176
     1
170
     0
176
     1
171
     0
176
     1
290
     0
176
     1
 93
       13
176
     1
 44
0.0
176
     1
173
     0
176
     1
  0
VISUALSTYLE
  5
2C
102
{ACAD_REACTORS
330
2A
102
}
102
{ACAD_XDICTIONARY
360
23B
102
}
330
2A
100
AcDbVisualStyle
  2
FlatWithEdges
 70
     1
177
     2
291
     1
 71
     2
176
     1
 72
     1
176
     1
 73
     1
176
     1
 90
        2
176
     1
 40
0.6
176
     1
 41
30.0
176
     1
 62
     5
 63
     7
421
 16777215
176
     1
 74
     1
176
     1
 91
        0
176
     1
 64
     7
176
     1
 65
   257
176
     1
 75
     1
176
     1
175
     1
176
     1
 42
1.0
176
     1
 92
        0
176
     1
 66
   257
176
     1
 43
1.0
176
     1
 76
     1
176
     1
 77
     6
176
     1
 78
     2
176
     1
 67
     7
176
     1
 79
     5
176
     1
170
     0
176
     1
171
     0
176
     1
290
     0
176
     1
 93
       13
176
     1
 44
0.0
176
     1
173
     0
176
     1
  0
VISUALSTYLE
  5
2D
102
{ACAD_REACTORS
330
2A
102
}
102
{ACAD_XDICTIONARY
360
23D
102
}
330
2A
100
AcDbVisualStyle
  2
Gouraud
 70
     2
177
     2
291
     1
 71
     2
176
     1
 72
     2
176
     1
 73
     1
176
     1
 90
        2
176
     1
 40
0.6
176
     1
 41
30.0
176
     1
 62
     5
 63
     7
421
 16777215
176
     1
 74
     0
176
     1
 91
        0
176
     1
 64
     7
176
     1
 65
   257
176
     1
 75
     1
176
     1
175
     1
176
     1
 42
1.0
176
     1
 92
        0
176
     1
 66
     7
176
     1
 43
1.0
176
     1
 76
     1
176
     1
 77
     6
176
     1
 78
     2
176
     1
 67
     7
176
     1
 79
     5
176
     1
170
     0
176
     1
171
     0
176
     1
290
     0
176
     1
 93
       13
176
     1
 44
0.0
176
     1
173
     0
176
     1
  0
VISUALSTYLE
  5
2E
102
{ACAD_REACTORS
330
2A
102
}
102
{ACAD_XDICTIONARY
360
23F
102
}
330
2A
100
AcDbVisualStyle
  2
GouraudWithEdges
 70
     3
177
     2
291
     1
 71
     2
176
     1
 72
     2
176
     1
 73
     1
176
     1
 90
        2
176
     1
 40
0.6
176
     1
 41
30.0
176
     1
 62
     5
 63
     7
421
 16777215
176
     1
 74
     1
176
     1
 91
        0
176
     1
 64
     7
176
     1
 65
   257
176
     1
 75
     1
176
     1
175
     1
176
     1
 42
1.0
176
     1
 92
        0
176
     1
 66
   257
176
     1
 43
1.0
176
     1
 76
     1
176
     1
 77
     6
176
     1
 78
     2
176
     1
 67
     7
176
     1
 79
     5
176
     1
170
     0
176
     1
171
     0
176
     1
290
     0
176
     1
 93
       13
176
     1
 44
0.0
176
     1
173
     0
176
     1
  0
VISUALSTYLE
  5
31
102
{ACAD_REACTORS
330
2A
102
}
102
{ACAD_XDICTIONARY
360
245
102
}
330
2A
100
AcDbVisualStyle
  2
Hidden
 70
     6
177
     2
291
     0
 71
     1
176
     1
 72
     2
176
     1
 73
     2
176
     1
 90
        0
176
     1
 40
0.6
176
     1
 41
30.0
176
     1
 62
     5
 63
     7
421
 16777215
176
     1
 74
     2
176
     1
 91
        2
176
     1
 64
     7
176
     1
 65
   257
176
     1
 75
     2
176
     1
175
     1
176
     1
 42
40.0
176
     1
 92
        0
176
     1
 66
   257
176
     1
 43
1.0
176
     1
 76
     1
176
     1
 77
     6
176
     1
 78
     2
176
     1
 67
     7
176
     1
 79
     3
176
     1
170
     0
176
     1
171
     0
176
     1
290
     0
176
     1
 93
        1
176
     1
 44
0.0
176
     1
173
     0
176
     1
  0
VISUALSTYLE
  5
3B
102
{ACAD_REACTORS
330
2A
102
}
102
{ACAD_XDICTIONARY
360
259
102
}
330
2A
100
AcDbVisualStyle
  2
JitterOff
 70
    20
177
     2
291
     1
 71
     2
176
     0
 72
     2
176
     0
 73
     0
176
     0
 90
        0
176
     0
 40
0.6
176
     0
 41
30.0
176
     0
 62
     5
 63
     7
421
 16777215
176
     0
 74
     1
176
     0
 91
        4
176
     0
 64
     7
176
     0
 65
   257
176
     0
 75
     1
176
     0
175
     1
176
     0
 42
1.0
176
     0
 92
       10
176
     2
 66
     7
176
     0
 43
1.0
176
     0
 76
     1
176
     0
 77
     6
176
     0
 78
     2
176
     0
 67
     7
176
     0
 79
     5
176
     0
170
     0
176
     0
171
     0
176
     0
290
     0
176
     0
 93
        1
176
     0
 44
0.0
176
     0
173
     0
176
     0
  0
VISUALSTYLE
  5
38
102
{ACAD_REACTORS
330
2A
102
}
102
{ACAD_XDICTIONARY
360
253
102
}
330
2A
100
AcDbVisualStyle
  2
Linepattern
 70
    14
177
     2
291
     1
 71
     2
176
     1
 72
     2
176
     1
 73
     0
176
     1
 90
        0
176
     1
 40
0.6
176
     1
 41
30.0
176
     1
 62
     5
 63
     7
421
 16777215
176
     1
 74
     1
176
     1
 91
        4
176
     1
 64
     7
176
     1
 65
   257
176
     1
 75
     7
176
     1
175
     7
176
     1
 42
1.0
176
     1
 92
        8
176
     1
 66
     7
176
     1
 43
1.0
176
     1
 76
     1
176
     1
 77
     6
176
     1
 78
     2
176
     1
 67
     7
176
     1
 79
     5
176
     1
170
     0
176
     1
171
     0
176
     1
290
     0
176
     1
 93
        1
176
     1
 44
0.0
176
     1
173
     0
176
     1
  0
VISUALSTYLE
  5
3C
102
{ACAD_REACTORS
330
2A
102
}
102
{ACAD_XDICTIONARY
360
25B
102
}
330
2A
100
AcDbVisualStyle
  2
OverhangOff
 70
    21
177
     2
291
     1
 71
     2
176
     0
 72
     2
176
     0
 73
     0
176
     0
 90
        0
176
     0
 40
0.6
176
     0
 41
30.0
176
     0
 62
     5
 63
     7
421
 16777215
176
     0
 74
     1
176
     0
 91
        4
176
     0
 64
     7
176
     0
 65
   257
176
     0
 75
     1
176
     0
175
     1
176
     0
 42
1.0
176
     0
 92
        9
176
     2
 66
     7
176
     0
 43
1.0
176
     0
 76
     1
176
     0
 77
     6
176
     0
 78
     2
176
     0
 67
     7
176
     0
 79
     5
176
     0
170
     0
176
     0
171
     0
176
     0
290
     0
176
     0
 93
        1
176
     0
 44
0.0
176
     0
173
     0
176
     0
  0
VISUALSTYLE
  5
33
102
{ACAD_REACTORS
330
2A
102
}
102
{ACAD_XDICTIONARY
360
249
102
}
330
2A
100
AcDbVisualStyle
  2
Realistic
 70
     8
177
     2
291
     0
 71
     2
176
     1
 72
     3
176
     1
 73
     0
176
     1
 90
        2
176
     1
 40
0.6
176
     1
 41
30.0
176
     1
 62
     5
 63
     7
421
 16777215
176
     1
 74
     0
176
     1
 91
        0
176
     1
 64
     7
176
     1
 65
   257
176
     1
 75
     1
176
     1
175
     1
176
     1
 42
1.0
176
     1
 92
        8
176
     1
 66
   257
176
     1
 43
1.0
176
     1
 76
     1
176
     1
 77
     6
176
     1
 78
     2
176
     1
 67
     7
176
     1
 79
     3
176
     1
170
     0
176
     1
171
     0
176
     1
290
     0
176
     1
 93
       13
176
     1
 44
0.0
176
     1
173
     0
176
     1
  0
VISUALSTYLE
  5
42
102
{ACAD_REACTORS
330
2A
102
}
102
{ACAD_XDICTIONARY
360
267
102
}
330
2A
100
AcDbVisualStyle
  2
Shaded
 70
    27
177
     2
291
     0
 71
     2
176
     1
 72
     2
176
     1
 73
     1
176
     1
 90
        2
176
     1
 40
0.6
176
     1
 41
30.0
176
     1
 62
     5
 63
     7
421
 16777215
176
     1
 74
     0
176
     1
 91
        4
176
     1
 64
     7
176
     1
 65
   257
176
     1
 75
     1
176
     1
175
     1
176
     1
 42
1.0
176
     1
 92
        8
176
     1
 66
   257
176
     1
 43
1.0
176
     1
 76
     1
176
     1
 77
     6
176
     1
 78
     2
176
     1
 67
     8
425
  7895160
176
     1
 79
     3
176
     1
170
     0
176
     1
171
     0
176
     1
290
     0
176
     1
 93
        5
176
     1
 44
0.0
176
     1
173
     0
176
     1
  0
VISUALSTYLE
  5
41
102
{ACAD_REACTORS
330
2A
102
}
102
{ACAD_XDICTIONARY
360
265
102
}
330
2A
100
AcDbVisualStyle
  2
Shaded with edges
 70
    26
177
     2
291
     0
 71
     2
176
     1
 72
     2
176
     1
 73
     1
176
     1
 90
        2
176
     1
 40
0.6
176
     1
 41
30.0
176
     1
 62
     5
 63
     7
421
 16777215
176
     1
 74
     1
176
     1
 91
       10
176
     1
 64
     7
176
     1
 65
   257
176
     1
 75
     2
176
     1
175
     1
176
     1
 42
1.0
176
     1
 92
        8
176
     1
 66
   257
176
     1
 43
1.0
176
     1
 76
     1
176
     1
 77
     6
176
     1
 78
     2
176
     1
 67
     7
176
     1
 79
     3
176
     1
170
     0
176
     1
171
     0
176
     1
290
     0
176
     1
 93
        5
176
     1
 44
0.0
176
     1
173
     0
176
     1
  0
VISUALSTYLE
  5
3E
102
{ACAD_REACTORS
330
2A
102
}
102
{ACAD_XDICTIONARY
360
25F
102
}
330
2A
100
AcDbVisualStyle
  2
Shades of Gray
 70
    23
177
     2
291
     0
 71
     2
176
     1
 72
     2
176
     1
 73
     3
176
     1
 90
        0
176
     1
 40
0.6
176
     1
 41
30.0
176
     1
 62
     5
 63
     7
421
 16777215
176
     1
 74
     2
176
     1
 91
        2
176
     1
 64
     7
176
     1
 65
     7
176
     1
 75
     1
176
     1
175
     1
176
     1
 42
40.0
176
     1
 92
        8
176
     1
 66
     7
176
     1
 43
1.0
176
     1
 76
     1
176
     1
 77
     6
176
     1
 78
     2
176
     1
 67
     7
176
     1
 79
     3
176
     1
170
     0
176
     1
171
     0
176
     1
290
     0
176
     1
 93
        1
176
     1
 44
0.0
176
     1
173
     0
176
     1
  0
VISUALSTYLE
  5
3F
102
{ACAD_REACTORS
330
2A
102
}
102
{ACAD_XDICTIONARY
360
261
102
}
330
2A
100
AcDbVisualStyle
  2
Sketchy
 70
    24
177
     2
291
     0
 71
     1
176
     1
 72
     2
176
     1
 73
     2
176
     1
 90
        0
176
     1
 40
0.6
176
     1
 41
30.0
176
     1
 62
     5
 63
     7
421
 16777215
176
     1
 74
     2
176
     1
 91
        2
176
     1
 64
     7
176
     1
 65
     7
176
     1
 75
     1
176
     1
175
     1
176
     1
 42
40.0
176
     1
 92
       11
176
     1
 66
     7
176
     1
 43
1.0
176
     1
 76
     1
176
     1
 77
     6
176
     1
 78
     2
176
     1
 67
     7
176
     1
 79
     6
176
     1
170
     0
176
     1
171
     0
176
     1
290
     0
176
     1
 93
        1
176
     1
 44
0.0
176
     1
173
     0
176
     1
  0
VISUALSTYLE
  5
37
102
{ACAD_REACTORS
330
2A
102
}
102
{ACAD_XDICTIONARY
360
251
102
}
330
2A
100
AcDbVisualStyle
  2
Thicken
 70
    13
177
     2
291
     1
 71
     2
176
     1
 72
     2
176
     1
 73
     0
176
     1
 90
        0
176
     1
 40
0.6
176
     1
 41
30.0
176
     1
 62
     5
 63
     7
421
 16777215
176
     1
 74
     1
176
     1
 91
        4
176
     1
 64
     7
176
     1
 65
   257
176
     1
 75
     1
176
     1
175
     1
176
     1
 42
1.0
176
     1
 92
       12
176
     1
 66
     7
176
     1
 43
1.0
176
     1
 76
     1
176
     1
 77
     6
176
     1
 78
     2
176
     1
 67
     7
176
     1
 79
     5
176
     1
170
     0
176
     1
171
     0
176
     1
290
     0
176
     1
 93
        1
176
     1
 44
0.0
176
     1
173
     0
176
     1
  0
VISUALSTYLE
  5
30
102
{ACAD_REACTORS
330
2A
102
}
102
{ACAD_XDICTIONARY
360
243
102
}
330
2A
100
AcDbVisualStyle
  2
Wireframe
 70
     5
177
     2
291
     0
 71
     0
176
     1
 72
     2
176
     1
 73
     0
176
     1
 90
        0
176
     1
 40
0.6
176
     1
 41
30.0
176
     1
 62
     5
 63
     7
421
 16777215
176
     1
 74
     1
176
     1
 91
        4
176
     1
 64
     7
176
     1
 65
   257
176
     1
 75
     1
176
     1
175
     1
176
     1
 42
1.0
176
     1
 92
        0
176
     1
 66
   257
176
     1
 43
1.0
176
     1
 76
     1
176
     1
 77
     6
176
     1
 78
     2
176
     1
 67
     7
176
     1
 79
     3
176
     1
170
     0
176
     1
171
     0
176
     1
290
     0
176
     1
 93
        1
176
     1
 44
0.0
176
     1
173
     0
176
     1
  0
VISUALSTYLE
  5
40
102
{ACAD_REACTORS
330
2A
102
}
102
{ACAD_XDICTIONARY
360
263
102
}
330
2A
100
AcDbVisualStyle
  2
X-Ray
 70
    25
177
     2
291
     0
 71
     2
176
     1
 72
     2
176
     1
 73
     1
176
     1
 90
        1
176
     1
 40
0.5
176
     1
 41
30.0
176
     1
 62
     5
 63
     7
421
 16777215
176
     1
 74
     1
176
     1
 91
        0
176
     1
 64
     7
176
     1
 65
   257
176
     1
 75
     1
176
     1
175
     1
176
     1
 42
1.0
176
     1
 92
        8
176
     1
 66
     7
176
     1
 43
1.0
176
     1
 76
     1
176
     1
 77
     6
176
     1
 78
     2
176
     1
 67
     7
176
     1
 79
     3
176
     1
170
     0
176
     1
171
     0
176
     1
290
     0
176
     1
 93
       13
176
     1
 44
0.0
176
     1
173
     0
176
     1
  0
DICTIONARYVAR
  5
238
102
{ACAD_REACTORS
330
237
102
}
330
237
100
DictionaryVariables
280
     0
  1
1:1
  0
DICTIONARYVAR
  5
270
102
{ACAD_REACTORS
330
237
102
}
330
237
100
DictionaryVariables
280
     0
  1
3.500000
  0
DICTIONARYVAR
  5
271
102
{ACAD_REACTORS
330
237
102
}
330
237
100
DictionaryVariables
280
     0
  1
acadiso.lin
  0
DICTIONARYVAR
  5
26D
102
{ACAD_REACTORS
330
237
102
}
330
237
100
DictionaryVariables
280
     0
  1
Standard
  0
DICTIONARYVAR
  5
26C
102
{ACAD_REACTORS
330
237
102
}
330
237
100
DictionaryVariables
280
     0
  1
Standard
  0
DICTIONARY
  5
269
330
5A
100
AcDbDictionary
280
     1
281
     1
  3
ACAD_ROUNDTRIP_2008_TABLESTYLE_CELLSTYLEMAP
360
26A
  0
DICTIONARY
  5
241
330
2F
100
AcDbDictionary
280
     1
281
     1
  3
ACAD_XREC_ROUNDTRIP
360
242
  0
DICTIONARY
  5
247
330
32
100
AcDbDictionary
280
     1
281
     1
  3
ACAD_XREC_ROUNDTRIP
360
248
  0
DICTIONARY
  5
24F
330
36
100
AcDbDictionary
280
     1
281
     1
  3
ACAD_XREC_ROUNDTRIP
360
250
  0
DICTIONARY
  5
257
330
3A
100
AcDbDictionary
280
     1
281
     1
  3
ACAD_XREC_ROUNDTRIP
360
258
  0
DICTIONARY
  5
24B
330
34
100
AcDbDictionary
280
     1
281
     1
  3
ACAD_XREC_ROUNDTRIP
360
24C
  0
DICTIONARY
  5
24D
330
35
100
AcDbDictionary
280
     1
281
     1
  3
ACAD_XREC_ROUNDTRIP
360
24E
  0
DICTIONARY
  5
25D
330
3D
100
AcDbDictionary
280
     1
281
     1
  3
ACAD_XREC_ROUNDTRIP
360
25E
  0
DICTIONARY
  5
255
330
39
100
AcDbDictionary
280
     1
281
     1
  3
ACAD_XREC_ROUNDTRIP
360
256
  0
DICTIONARY
  5
239
330
2B
100
AcDbDictionary
280
     1
281
     1
  3
ACAD_XREC_ROUNDTRIP
360
23A
  0
DICTIONARY
  5
23B
330
2C
100
AcDbDictionary
280
     1
281
     1
  3
ACAD_XREC_ROUNDTRIP
360
23C
  0
DICTIONARY
  5
23D
330
2D
100
AcDbDictionary
280
     1
281
     1
  3
ACAD_XREC_ROUNDTRIP
360
23E
  0
DICTIONARY
  5
23F
330
2E
100
AcDbDictionary
280
     1
281
     1
  3
ACAD_XREC_ROUNDTRIP
360
240
  0
DICTIONARY
  5
245
330
31
100
AcDbDictionary
280
     1
281
     1
  3
ACAD_XREC_ROUNDTRIP
360
246
  0
DICTIONARY
  5
259
330
3B
100
AcDbDictionary
280
     1
281
     1
  3
ACAD_XREC_ROUNDTRIP
360
25A
  0
DICTIONARY
  5
253
330
38
100
AcDbDictionary
280
     1
281
     1
  3
ACAD_XREC_ROUNDTRIP
360
254
  0
DICTIONARY
  5
25B
330
3C
100
AcDbDictionary
280
     1
281
     1
  3
ACAD_XREC_ROUNDTRIP
360
25C
  0
DICTIONARY
  5
249
330
33
100
AcDbDictionary
280
     1
281
     1
  3
ACAD_XREC_ROUNDTRIP
360
24A
  0
DICTIONARY
  5
267
330
42
100
AcDbDictionary
280
     1
281
     1
  3
ACAD_XREC_ROUNDTRIP
360
268
  0
DICTIONARY
  5
265
330
41
100
AcDbDictionary
280
     1
281
     1
  3
ACAD_XREC_ROUNDTRIP
360
266
  0
DICTIONARY
  5
25F
330
3E
100
AcDbDictionary
280
     1
281
     1
  3
ACAD_XREC_ROUNDTRIP
360
260
  0
DICTIONARY
  5
261
330
3F
100
AcDbDictionary
280
     1
281
     1
  3
ACAD_XREC_ROUNDTRIP
360
262
  0
DICTIONARY
  5
251
330
37
100
AcDbDictionary
280
     1
281
     1
  3
ACAD_XREC_ROUNDTRIP
360
252
  0
DICTIONARY
  5
243
330
30
100
AcDbDictionary
280
     1
281
     1
  3
ACAD_XREC_ROUNDTRIP
360
244
  0
DICTIONARY
  5
263
330
40
100
AcDbDictionary
280
     1
281
     1
  3
ACAD_XREC_ROUNDTRIP
360
264
  0
CELLSTYLEMAP
  5
26A
102
{ACAD_REACTORS
330
269
102
}
330
269
100
AcDbCellStyleMap
 90
        3
300
CELLSTYLE
  1
TABLEFORMAT_BEGIN
 90
        5
170
     1
 91
        0
 92
    32768
 62
   257
 93
        1
300
CONTENTFORMAT
  1
CONTENTFORMAT_BEGIN
 90
        0
 91
        0
 92
        4
 93
        0
300

 40
0.0
140
1.0
 94
        5
 62
     0
340
11
144
6.0
309
CONTENTFORMAT_END
171
     1
301
MARGIN
  1
CELLMARGIN_BEGIN
 40
1.5
 40
1.5
 40
1.5
 40
1.5
 40
1.5
 40
1.5
309
CELLMARGIN_END
 94
        6
 95
        1
302
GRIDFORMAT
  1
GRIDFORMAT_BEGIN
 90
        0
 91
        1
 62
     0
 92
       -2
340
14
 93
        0
 40
0.045
309
GRIDFORMAT_END
 95
        2
302
GRIDFORMAT
  1
GRIDFORMAT_BEGIN
 90
        0
 91
        1
 62
     0
 92
       -2
340
14
 93
        0
 40
0.045
309
GRIDFORMAT_END
 95
        4
302
GRIDFORMAT
  1
GRIDFORMAT_BEGIN
 90
        0
 91
        1
 62
     0
 92
       -2
340
14
 93
        0
 40
0.045
309
GRIDFORMAT_END
 95
        8
302
GRIDFORMAT
  1
GRIDFORMAT_BEGIN
 90
        0
 91
        1
 62
     0
 92
       -2
340
14
 93
        0
 40
0.045
309
GRIDFORMAT_END
 95
       16
302
GRIDFORMAT
  1
GRIDFORMAT_BEGIN
 90
        0
 91
        1
 62
     0
 92
       -2
340
14
 93
        0
 40
0.045
309
GRIDFORMAT_END
 95
       32
302
GRIDFORMAT
  1
GRIDFORMAT_BEGIN
 90
        0
 91
        1
 62
     0
 92
       -2
340
14
 93
        0
 40
0.045
309
GRIDFORMAT_END
309
TABLEFORMAT_END
  1
CELLSTYLE_BEGIN
 90
        1
 91
        1
300
_TITLE
309
CELLSTYLE_END
300
CELLSTYLE
  1
TABLEFORMAT_BEGIN
 90
        5
170
     1
 91
        0
 92
        0
 62
   257
 93
        1
300
CONTENTFORMAT
  1
CONTENTFORMAT_BEGIN
 90
        0
 91
        0
 92
        4
 93
        0
300

 40
0.0
140
1.0
 94
        5
 62
     0
340
11
144
4.5
309
CONTENTFORMAT_END
171
     1
301
MARGIN
  1
CELLMARGIN_BEGIN
 40
1.5
 40
1.5
 40
1.5
 40
1.5
 40
1.5
 40
1.5
309
CELLMARGIN_END
 94
        6
 95
        1
302
GRIDFORMAT
  1
GRIDFORMAT_BEGIN
 90
        0
 91
        1
 62
     0
 92
       -2
340
14
 93
        0
 40
0.045
309
GRIDFORMAT_END
 95
        2
302
GRIDFORMAT
  1
GRIDFORMAT_BEGIN
 90
        0
 91
        1
 62
     0
 92
       -2
340
14
 93
        0
 40
0.045
309
GRIDFORMAT_END
 95
        4
302
GRIDFORMAT
  1
GRIDFORMAT_BEGIN
 90
        0
 91
        1
 62
     0
 92
       -2
340
14
 93
        0
 40
0.045
309
GRIDFORMAT_END
 95
        8
302
GRIDFORMAT
  1
GRIDFORMAT_BEGIN
 90
        0
 91
        1
 62
     0
 92
       -2
340
14
 93
        0
 40
0.045
309
GRIDFORMAT_END
 95
       16
302
GRIDFORMAT
  1
GRIDFORMAT_BEGIN
 90
        0
 91
        1
 62
     0
 92
       -2
340
14
 93
        0
 40
0.045
309
GRIDFORMAT_END
 95
       32
302
GRIDFORMAT
  1
GRIDFORMAT_BEGIN
 90
        0
 91
        1
 62
     0
 92
       -2
340
14
 93
        0
 40
0.045
309
GRIDFORMAT_END
309
TABLEFORMAT_END
  1
CELLSTYLE_BEGIN
 90
        2
 91
        1
300
_HEADER
309
CELLSTYLE_END
300
CELLSTYLE
  1
TABLEFORMAT_BEGIN
 90
        5
170
     1
 91
        0
 92
        0
 62
   257
 93
        1
300
CONTENTFORMAT
  1
CONTENTFORMAT_BEGIN
 90
        0
 91
        0
 92
        4
 93
        0
300

 40
0.0
140
1.0
 94
        2
 62
     0
340
11
144
4.5
309
CONTENTFORMAT_END
171
     1
301
MARGIN
  1
CELLMARGIN_BEGIN
 40
1.5
 40
1.5
 40
1.5
 40
1.5
 40
1.5
 40
1.5
309
CELLMARGIN_END
 94
        6
 95
        1
302
GRIDFORMAT
  1
GRIDFORMAT_BEGIN
 90
        0
 91
        1
 62
     0
 92
       -2
340
14
 93
        0
 40
0.045
309
GRIDFORMAT_END
 95
        2
302
GRIDFORMAT
  1
GRIDFORMAT_BEGIN
 90
        0
 91
        1
 62
     0
 92
       -2
340
14
 93
        0
 40
0.045
309
GRIDFORMAT_END
 95
        4
302
GRIDFORMAT
  1
GRIDFORMAT_BEGIN
 90
        0
 91
        1
 62
     0
 92
       -2
340
14
 93
        0
 40
0.045
309
GRIDFORMAT_END
 95
        8
302
GRIDFORMAT
  1
GRIDFORMAT_BEGIN
 90
        0
 91
        1
 62
     0
 92
       -2
340
14
 93
        0
 40
0.045
309
GRIDFORMAT_END
 95
       16
302
GRIDFORMAT
  1
GRIDFORMAT_BEGIN
 90
        0
 91
        1
 62
     0
 92
       -2
340
14
 93
        0
 40
0.045
309
GRIDFORMAT_END
 95
       32
302
GRIDFORMAT
  1
GRIDFORMAT_BEGIN
 90
        0
 91
        1
 62
     0
 92
       -2
340
14
 93
        0
 40
0.045
309
GRIDFORMAT_END
309
TABLEFORMAT_END
  1
CELLSTYLE_BEGIN
 90
        3
 91
        2
300
_DATA
309
CELLSTYLE_END
  0
XRECORD
  5
242
102
{ACAD_REACTORS
330
241
102
}
330
241
100
AcDbXrecord
280
     1
102
RTVSPost2010Prop28
280
     1
102
RTVSPost2010PropOp28
 70
     1
102
RTVSPost2010Prop29
280
     1
102
RTVSPost2010PropOp29
 70
     1
102
RTVSPost2010Prop30
280
     0
102
RTVSPost2010PropOp30
 70
     1
102
RTVSPost2010Prop31
280
     0
102
RTVSPost2010PropOp31
 70
     1
102
RTVSPost2010Prop32
280
     0
102
RTVSPost2010PropOp32
 70
     1
102
RTVSPost2010Prop33
280
     0
102
RTVSPost2010PropOp33
 70
     1
102
RTVSPost2010Prop34
280
     0
102
RTVSPost2010PropOp34
 70
     1
102
RTVSPost2010Prop35
280
     0
102
RTVSPost2010PropOp35
 70
     1
102
RTVSPost2010Prop36
280
     0
102
RTVSPost2010PropOp36
 70
     1
102
RTVSPost2010Prop37
 90
       50
102
RTVSPost2010PropOp37
 70
     1
102
RTVSPost2010Prop38
140
0.0
102
RTVSPost2010PropOp38
 70
     1
102
RTVSPost2010Prop39
140
1.0
102
RTVSPost2010PropOp39
 70
     1
102
RTVSPost2010Prop40
 90
        0
102
RTVSPost2010PropOp40
 70
     1
102
RTVSPost2010Prop41ColorIndex
 90
       18
102
RTVSPost2010Prop41ColorRGB
 90
        0
102
RTVSPost2010PropOp41
 70
     1
102
RTVSPost2010Prop42
 90
       50
102
RTVSPost2010PropOp42
 70
     1
102
RTVSPost2010Prop43
 90
        3
102
RTVSPost2010PropOp43
 70
     1
102
RTVSPost2010Prop44ColorIndex
 90
        5
102
RTVSPost2010Prop44ColorRGB
 90
      255
102
RTVSPost2010PropOp44
 70
     1
102
RTVSPost2010Prop45
280
     0
102
RTVSPost2010PropOp45
 70
     1
102
RTVSPost2010Prop46
 90
       50
102
RTVSPost2010PropOp46
 70
     1
102
RTVSPost2010Prop47
 90
       50
102
RTVSPost2010PropOp47
 70
     1
102
RTVSPost2010Prop48
 90
       50
102
RTVSPost2010PropOp48
 70
     1
102
RTVSPost2010Prop49
280
     0
102
RTVSPost2010PropOp49
 70
     1
102
RTVSPost2010Prop50
 90
       50
102
RTVSPost2010PropOp50
 70
     1
102
RTVSPost2010Prop51ColorIndex
 90
      256
102
RTVSPost2010Prop51ColorRGB
 90
-16777216
102
RTVSPost2010PropOp51
 70
     0
102
RTVSPost2010Prop52
140
1.0
102
RTVSPost2010PropOp52
 70
     0
102
RTVSPost2010Prop53
 90
        2
102
RTVSPost2010PropOp53
 70
     1
102
RTVSPost2010Prop54
  1
strokes_ogs.tif
102
RTVSPost2010PropOp54
 70
     1
102
RTVSPost2010Prop55
280
     0
102
RTVSPost2010PropOp55
 70
     1
102
RTVSPost2010Prop56
140
1.0
102
RTVSPost2010PropOp56
 70
     1
102
RTVSPost2010Prop57
140
1.0
102
RTVSPost2010PropOp57
 70
     1
  0
XRECORD
  5
248
102
{ACAD_REACTORS
330
247
102
}
330
247
100
AcDbXrecord
280
     1
102
RTVSPost2010Prop28
280
     0
102
RTVSPost2010PropOp28
 70
     1
102
RTVSPost2010Prop29
280
     1
102
RTVSPost2010PropOp29
 70
     1
102
RTVSPost2010Prop30
280
     1
102
RTVSPost2010PropOp30
 70
     1
102
RTVSPost2010Prop31
280
     0
102
RTVSPost2010PropOp31
 70
     1
102
RTVSPost2010Prop32
280
     0
102
RTVSPost2010PropOp32
 70
     1
102
RTVSPost2010Prop33
280
     0
102
RTVSPost2010PropOp33
 70
     1
102
RTVSPost2010Prop34
280
     0
102
RTVSPost2010PropOp34
 70
     1
102
RTVSPost2010Prop35
280
     0
102
RTVSPost2010PropOp35
 70
     1
102
RTVSPost2010Prop36
280
     0
102
RTVSPost2010PropOp36
 70
     1
102
RTVSPost2010Prop37
 90
       50
102
RTVSPost2010PropOp37
 70
     1
102
RTVSPost2010Prop38
140
0.0
102
RTVSPost2010PropOp38
 70
     1
102
RTVSPost2010Prop39
140
1.0
102
RTVSPost2010PropOp39
 70
     1
102
RTVSPost2010Prop40
 90
        0
102
RTVSPost2010PropOp40
 70
     1
102
RTVSPost2010Prop41ColorIndex
 90
       18
102
RTVSPost2010Prop41ColorRGB
 90
        0
102
RTVSPost2010PropOp41
 70
     1
102
RTVSPost2010Prop42
 90
       50
102
RTVSPost2010PropOp42
 70
     1
102
RTVSPost2010Prop43
 90
        3
102
RTVSPost2010PropOp43
 70
     1
102
RTVSPost2010Prop44ColorIndex
 90
        5
102
RTVSPost2010Prop44ColorRGB
 90
      255
102
RTVSPost2010PropOp44
 70
     1
102
RTVSPost2010Prop45
280
     0
102
RTVSPost2010PropOp45
 70
     1
102
RTVSPost2010Prop46
 90
       50
102
RTVSPost2010PropOp46
 70
     1
102
RTVSPost2010Prop47
 90
       50
102
RTVSPost2010PropOp47
 70
     1
102
RTVSPost2010Prop48
 90
       50
102
RTVSPost2010PropOp48
 70
     1
102
RTVSPost2010Prop49
280
     0
102
RTVSPost2010PropOp49
 70
     1
102
RTVSPost2010Prop50
 90
       50
102
RTVSPost2010PropOp50
 70
     1
102
RTVSPost2010Prop51ColorIndex
 90
      256
102
RTVSPost2010Prop51ColorRGB
 90
-16777216
102
RTVSPost2010PropOp51
 70
     0
102
RTVSPost2010Prop52
140
1.0
102
RTVSPost2010PropOp52
 70
     0
102
RTVSPost2010Prop53
 90
        2
102
RTVSPost2010PropOp53
 70
     1
102
RTVSPost2010Prop54
  1
strokes_ogs.tif
102
RTVSPost2010PropOp54
 70
     1
102
RTVSPost2010Prop55
280
     0
102
RTVSPost2010PropOp55
 70
     1
102
RTVSPost2010Prop56
140
1.0
102
RTVSPost2010PropOp56
 70
     1
102
RTVSPost2010Prop57
140
1.0
102
RTVSPost2010PropOp57
 70
     1
  0
XRECORD
  5
250
102
{ACAD_REACTORS
330
24F
102
}
330
24F
100
AcDbXrecord
280
     1
102
RTVSPost2010Prop28
280
     0
102
RTVSPost2010PropOp28
 70
     1
102
RTVSPost2010Prop29
280
     1
102
RTVSPost2010PropOp29
 70
     1
102
RTVSPost2010Prop30
280
     1
102
RTVSPost2010PropOp30
 70
     1
102
RTVSPost2010Prop31
280
     0
102
RTVSPost2010PropOp31
 70
     1
102
RTVSPost2010Prop32
280
     0
102
RTVSPost2010PropOp32
 70
     1
102
RTVSPost2010Prop33
280
     0
102
RTVSPost2010PropOp33
 70
     1
102
RTVSPost2010Prop34
280
     0
102
RTVSPost2010PropOp34
 70
     1
102
RTVSPost2010Prop35
280
     0
102
RTVSPost2010PropOp35
 70
     1
102
RTVSPost2010Prop36
280
     0
102
RTVSPost2010PropOp36
 70
     1
102
RTVSPost2010Prop37
 90
       50
102
RTVSPost2010PropOp37
 70
     1
102
RTVSPost2010Prop38
140
0.0
102
RTVSPost2010PropOp38
 70
     1
102
RTVSPost2010Prop39
140
1.0
102
RTVSPost2010PropOp39
 70
     1
102
RTVSPost2010Prop40
 90
        0
102
RTVSPost2010PropOp40
 70
     1
102
RTVSPost2010Prop41ColorIndex
 90
       18
102
RTVSPost2010Prop41ColorRGB
 90
        0
102
RTVSPost2010PropOp41
 70
     1
102
RTVSPost2010Prop42
 90
       50
102
RTVSPost2010PropOp42
 70
     1
102
RTVSPost2010Prop43
 90
        3
102
RTVSPost2010PropOp43
 70
     1
102
RTVSPost2010Prop44ColorIndex
 90
        5
102
RTVSPost2010Prop44ColorRGB
 90
      255
102
RTVSPost2010PropOp44
 70
     1
102
RTVSPost2010Prop45
280
     0
102
RTVSPost2010PropOp45
 70
     1
102
RTVSPost2010Prop46
 90
       50
102
RTVSPost2010PropOp46
 70
     1
102
RTVSPost2010Prop47
 90
       50
102
RTVSPost2010PropOp47
 70
     1
102
RTVSPost2010Prop48
 90
       50
102
RTVSPost2010PropOp48
 70
     1
102
RTVSPost2010Prop49
280
     0
102
RTVSPost2010PropOp49
 70
     1
102
RTVSPost2010Prop50
 90
       50
102
RTVSPost2010PropOp50
 70
     1
102
RTVSPost2010Prop51ColorIndex
 90
      256
102
RTVSPost2010Prop51ColorRGB
 90
-16777216
102
RTVSPost2010PropOp51
 70
     0
102
RTVSPost2010Prop52
140
1.0
102
RTVSPost2010PropOp52
 70
     0
102
RTVSPost2010Prop53
 90
        2
102
RTVSPost2010PropOp53
 70
     1
102
RTVSPost2010Prop54
  1
strokes_ogs.tif
102
RTVSPost2010PropOp54
 70
     1
102
RTVSPost2010Prop55
280
     0
102
RTVSPost2010PropOp55
 70
     1
102
RTVSPost2010Prop56
140
1.0
102
RTVSPost2010PropOp56
 70
     1
102
RTVSPost2010Prop57
140
1.0
102
RTVSPost2010PropOp57
 70
     1
  0
XRECORD
  5
258
102
{ACAD_REACTORS
330
257
102
}
330
257
100
AcDbXrecord
280
     1
102
RTVSPost2010Prop28
280
     0
102
RTVSPost2010PropOp28
 70
     1
102
RTVSPost2010Prop29
280
     1
102
RTVSPost2010PropOp29
 70
     1
102
RTVSPost2010Prop30
280
     1
102
RTVSPost2010PropOp30
 70
     1
102
RTVSPost2010Prop31
280
     0
102
RTVSPost2010PropOp31
 70
     1
102
RTVSPost2010Prop32
280
     0
102
RTVSPost2010PropOp32
 70
     1
102
RTVSPost2010Prop33
280
     0
102
RTVSPost2010PropOp33
 70
     1
102
RTVSPost2010Prop34
280
     0
102
RTVSPost2010PropOp34
 70
     1
102
RTVSPost2010Prop35
280
     0
102
RTVSPost2010PropOp35
 70
     1
102
RTVSPost2010Prop36
280
     0
102
RTVSPost2010PropOp36
 70
     1
102
RTVSPost2010Prop37
 90
       50
102
RTVSPost2010PropOp37
 70
     1
102
RTVSPost2010Prop38
140
0.0
102
RTVSPost2010PropOp38
 70
     1
102
RTVSPost2010Prop39
140
1.0
102
RTVSPost2010PropOp39
 70
     1
102
RTVSPost2010Prop40
 90
        0
102
RTVSPost2010PropOp40
 70
     1
102
RTVSPost2010Prop41ColorIndex
 90
       18
102
RTVSPost2010Prop41ColorRGB
 90
        0
102
RTVSPost2010PropOp41
 70
     1
102
RTVSPost2010Prop42
 90
       50
102
RTVSPost2010PropOp42
 70
     1
102
RTVSPost2010Prop43
 90
        3
102
RTVSPost2010PropOp43
 70
     1
102
RTVSPost2010Prop44ColorIndex
 90
        5
102
RTVSPost2010Prop44ColorRGB
 90
      255
102
RTVSPost2010PropOp44
 70
     1
102
RTVSPost2010Prop45
280
     0
102
RTVSPost2010PropOp45
 70
     1
102
RTVSPost2010Prop46
 90
       50
102
RTVSPost2010PropOp46
 70
     1
102
RTVSPost2010Prop47
 90
       50
102
RTVSPost2010PropOp47
 70
     1
102
RTVSPost2010Prop48
 90
       50
102
RTVSPost2010PropOp48
 70
     1
102
RTVSPost2010Prop49
280
     0
102
RTVSPost2010PropOp49
 70
     1
102
RTVSPost2010Prop50
 90
       50
102
RTVSPost2010PropOp50
 70
     1
102
RTVSPost2010Prop51ColorIndex
 90
      256
102
RTVSPost2010Prop51ColorRGB
 90
-16777216
102
RTVSPost2010PropOp51
 70
     0
102
RTVSPost2010Prop52
140
1.0
102
RTVSPost2010PropOp52
 70
     0
102
RTVSPost2010Prop53
 90
        2
102
RTVSPost2010PropOp53
 70
     1
102
RTVSPost2010Prop54
  1
strokes_ogs.tif
102
RTVSPost2010PropOp54
 70
     1
102
RTVSPost2010Prop55
280
     0
102
RTVSPost2010PropOp55
 70
     1
102
RTVSPost2010Prop56
140
1.0
102
RTVSPost2010PropOp56
 70
     1
102
RTVSPost2010Prop57
140
1.0
102
RTVSPost2010PropOp57
 70
     1
  0
XRECORD
  5
24C
102
{ACAD_REACTORS
330
24B
102
}
330
24B
100
AcDbXrecord
280
     1
102
RTVSPost2010Prop28
280
     0
102
RTVSPost2010PropOp28
 70
     1
102
RTVSPost2010Prop29
280
     1
102
RTVSPost2010PropOp29
 70
     1
102
RTVSPost2010Prop30
280
     1
102
RTVSPost2010PropOp30
 70
     1
102
RTVSPost2010Prop31
280
     0
102
RTVSPost2010PropOp31
 70
     1
102
RTVSPost2010Prop32
280
     0
102
RTVSPost2010PropOp32
 70
     1
102
RTVSPost2010Prop33
280
     0
102
RTVSPost2010PropOp33
 70
     1
102
RTVSPost2010Prop34
280
     0
102
RTVSPost2010PropOp34
 70
     1
102
RTVSPost2010Prop35
280
     0
102
RTVSPost2010PropOp35
 70
     1
102
RTVSPost2010Prop36
280
     0
102
RTVSPost2010PropOp36
 70
     1
102
RTVSPost2010Prop37
 90
       50
102
RTVSPost2010PropOp37
 70
     1
102
RTVSPost2010Prop38
140
0.0
102
RTVSPost2010PropOp38
 70
     1
102
RTVSPost2010Prop39
140
1.0
102
RTVSPost2010PropOp39
 70
     1
102
RTVSPost2010Prop40
 90
        0
102
RTVSPost2010PropOp40
 70
     1
102
RTVSPost2010Prop41ColorIndex
 90
       18
102
RTVSPost2010Prop41ColorRGB
 90
        0
102
RTVSPost2010PropOp41
 70
     1
102
RTVSPost2010Prop42
 90
       50
102
RTVSPost2010PropOp42
 70
     1
102
RTVSPost2010Prop43
 90
        3
102
RTVSPost2010PropOp43
 70
     1
102
RTVSPost2010Prop44ColorIndex
 90
        5
102
RTVSPost2010Prop44ColorRGB
 90
      255
102
RTVSPost2010PropOp44
 70
     1
102
RTVSPost2010Prop45
280
     0
102
RTVSPost2010PropOp45
 70
     1
102
RTVSPost2010Prop46
 90
       50
102
RTVSPost2010PropOp46
 70
     1
102
RTVSPost2010Prop47
 90
       50
102
RTVSPost2010PropOp47
 70
     1
102
RTVSPost2010Prop48
 90
       50
102
RTVSPost2010PropOp48
 70
     1
102
RTVSPost2010Prop49
280
     0
102
RTVSPost2010PropOp49
 70
     1
102
RTVSPost2010Prop50
 90
       50
102
RTVSPost2010PropOp50
 70
     1
102
RTVSPost2010Prop51ColorIndex
 90
      256
102
RTVSPost2010Prop51ColorRGB
 90
-16777216
102
RTVSPost2010PropOp51
 70
     0
102
RTVSPost2010Prop52
140
1.0
102
RTVSPost2010PropOp52
 70
     0
102
RTVSPost2010Prop53
 90
        2
102
RTVSPost2010PropOp53
 70
     1
102
RTVSPost2010Prop54
  1
strokes_ogs.tif
102
RTVSPost2010PropOp54
 70
     1
102
RTVSPost2010Prop55
280
     0
102
RTVSPost2010PropOp55
 70
     1
102
RTVSPost2010Prop56
140
1.0
102
RTVSPost2010PropOp56
 70
     1
102
RTVSPost2010Prop57
140
1.0
102
RTVSPost2010PropOp57
 70
     1
  0
XRECORD
  5
24E
102
{ACAD_REACTORS
330
24D
102
}
330
24D
100
AcDbXrecord
280
     1
102
RTVSPost2010Prop28
280
     0
102
RTVSPost2010PropOp28
 70
     1
102
RTVSPost2010Prop29
280
     1
102
RTVSPost2010PropOp29
 70
     1
102
RTVSPost2010Prop30
280
     1
102
RTVSPost2010PropOp30
 70
     1
102
RTVSPost2010Prop31
280
     0
102
RTVSPost2010PropOp31
 70
     1
102
RTVSPost2010Prop32
280
     0
102
RTVSPost2010PropOp32
 70
     1
102
RTVSPost2010Prop33
280
     0
102
RTVSPost2010PropOp33
 70
     1
102
RTVSPost2010Prop34
280
     0
102
RTVSPost2010PropOp34
 70
     1
102
RTVSPost2010Prop35
280
     0
102
RTVSPost2010PropOp35
 70
     1
102
RTVSPost2010Prop36
280
     0
102
RTVSPost2010PropOp36
 70
     1
102
RTVSPost2010Prop37
 90
       50
102
RTVSPost2010PropOp37
 70
     1
102
RTVSPost2010Prop38
140
0.0
102
RTVSPost2010PropOp38
 70
     1
102
RTVSPost2010Prop39
140
1.0
102
RTVSPost2010PropOp39
 70
     1
102
RTVSPost2010Prop40
 90
        0
102
RTVSPost2010PropOp40
 70
     1
102
RTVSPost2010Prop41ColorIndex
 90
       18
102
RTVSPost2010Prop41ColorRGB
 90
        0
102
RTVSPost2010PropOp41
 70
     1
102
RTVSPost2010Prop42
 90
       50
102
RTVSPost2010PropOp42
 70
     1
102
RTVSPost2010Prop43
 90
        3
102
RTVSPost2010PropOp43
 70
     1
102
RTVSPost2010Prop44ColorIndex
 90
        5
102
RTVSPost2010Prop44ColorRGB
 90
      255
102
RTVSPost2010PropOp44
 70
     1
102
RTVSPost2010Prop45
280
     0
102
RTVSPost2010PropOp45
 70
     1
102
RTVSPost2010Prop46
 90
       50
102
RTVSPost2010PropOp46
 70
     1
102
RTVSPost2010Prop47
 90
       50
102
RTVSPost2010PropOp47
 70
     1
102
RTVSPost2010Prop48
 90
       50
102
RTVSPost2010PropOp48
 70
     1
102
RTVSPost2010Prop49
280
     0
102
RTVSPost2010PropOp49
 70
     1
102
RTVSPost2010Prop50
 90
       50
102
RTVSPost2010PropOp50
 70
     1
102
RTVSPost2010Prop51ColorIndex
 90
      256
102
RTVSPost2010Prop51ColorRGB
 90
-16777216
102
RTVSPost2010PropOp51
 70
     0
102
RTVSPost2010Prop52
140
1.0
102
RTVSPost2010PropOp52
 70
     0
102
RTVSPost2010Prop53
 90
        2
102
RTVSPost2010PropOp53
 70
     1
102
RTVSPost2010Prop54
  1
strokes_ogs.tif
102
RTVSPost2010PropOp54
 70
     1
102
RTVSPost2010Prop55
280
     0
102
RTVSPost2010PropOp55
 70
     1
102
RTVSPost2010Prop56
140
1.0
102
RTVSPost2010PropOp56
 70
     1
102
RTVSPost2010Prop57
140
1.0
102
RTVSPost2010PropOp57
 70
     1
  0
XRECORD
  5
25E
102
{ACAD_REACTORS
330
25D
102
}
330
25D
100
AcDbXrecord
280
     1
102
RTVSPost2010Prop28
280
     0
102
RTVSPost2010PropOp28
 70
     0
102
RTVSPost2010Prop29
280
     1
102
RTVSPost2010PropOp29
 70
     0
102
RTVSPost2010Prop30
280
     1
102
RTVSPost2010PropOp30
 70
     0
102
RTVSPost2010Prop31
280
     0
102
RTVSPost2010PropOp31
 70
     0
102
RTVSPost2010Prop32
280
     0
102
RTVSPost2010PropOp32
 70
     0
102
RTVSPost2010Prop33
280
     0
102
RTVSPost2010PropOp33
 70
     0
102
RTVSPost2010Prop34
280
     0
102
RTVSPost2010PropOp34
 70
     0
102
RTVSPost2010Prop35
280
     0
102
RTVSPost2010PropOp35
 70
     0
102
RTVSPost2010Prop36
280
     0
102
RTVSPost2010PropOp36
 70
     0
102
RTVSPost2010Prop37
 90
       50
102
RTVSPost2010PropOp37
 70
     0
102
RTVSPost2010Prop38
140
0.0
102
RTVSPost2010PropOp38
 70
     0
102
RTVSPost2010Prop39
140
1.0
102
RTVSPost2010PropOp39
 70
     0
102
RTVSPost2010Prop40
 90
        0
102
RTVSPost2010PropOp40
 70
     0
102
RTVSPost2010Prop41ColorIndex
 90
       18
102
RTVSPost2010Prop41ColorRGB
 90
        0
102
RTVSPost2010PropOp41
 70
     0
102
RTVSPost2010Prop42
 90
       50
102
RTVSPost2010PropOp42
 70
     0
102
RTVSPost2010Prop43
 90
        3
102
RTVSPost2010PropOp43
 70
     0
102
RTVSPost2010Prop44ColorIndex
 90
        5
102
RTVSPost2010Prop44ColorRGB
 90
      255
102
RTVSPost2010PropOp44
 70
     0
102
RTVSPost2010Prop45
280
     0
102
RTVSPost2010PropOp45
 70
     0
102
RTVSPost2010Prop46
 90
       50
102
RTVSPost2010PropOp46
 70
     0
102
RTVSPost2010Prop47
 90
       50
102
RTVSPost2010PropOp47
 70
     0
102
RTVSPost2010Prop48
 90
       50
102
RTVSPost2010PropOp48
 70
     0
102
RTVSPost2010Prop49
280
     0
102
RTVSPost2010PropOp49
 70
     0
102
RTVSPost2010Prop50
 90
       50
102
RTVSPost2010PropOp50
 70
     0
102
RTVSPost2010Prop51ColorIndex
 90
      256
102
RTVSPost2010Prop51ColorRGB
 90
-16777216
102
RTVSPost2010PropOp51
 70
     0
102
RTVSPost2010Prop52
140
1.0
102
RTVSPost2010PropOp52
 70
     0
102
RTVSPost2010Prop53
 90
        2
102
RTVSPost2010PropOp53
 70
     0
102
RTVSPost2010Prop54
  1
strokes_ogs.tif
102
RTVSPost2010PropOp54
 70
     0
102
RTVSPost2010Prop55
280
     0
102
RTVSPost2010PropOp55
 70
     0
102
RTVSPost2010Prop56
140
1.0
102
RTVSPost2010PropOp56
 70
     0
102
RTVSPost2010Prop57
140
1.0
102
RTVSPost2010PropOp57
 70
     0
  0
XRECORD
  5
256
102
{ACAD_REACTORS
330
255
102
}
330
255
100
AcDbXrecord
280
     1
102
RTVSPost2010Prop28
280
     0
102
RTVSPost2010PropOp28
 70
     1
102
RTVSPost2010Prop29
280
     1
102
RTVSPost2010PropOp29
 70
     1
102
RTVSPost2010Prop30
280
     1
102
RTVSPost2010PropOp30
 70
     1
102
RTVSPost2010Prop31
280
     0
102
RTVSPost2010PropOp31
 70
     1
102
RTVSPost2010Prop32
280
     0
102
RTVSPost2010PropOp32
 70
     1
102
RTVSPost2010Prop33
280
     0
102
RTVSPost2010PropOp33
 70
     1
102
RTVSPost2010Prop34
280
     0
102
RTVSPost2010PropOp34
 70
     1
102
RTVSPost2010Prop35
280
     0
102
RTVSPost2010PropOp35
 70
     1
102
RTVSPost2010Prop36
280
     0
102
RTVSPost2010PropOp36
 70
     1
102
RTVSPost2010Prop37
 90
       50
102
RTVSPost2010PropOp37
 70
     1
102
RTVSPost2010Prop38
140
0.0
102
RTVSPost2010PropOp38
 70
     1
102
RTVSPost2010Prop39
140
1.0
102
RTVSPost2010PropOp39
 70
     1
102
RTVSPost2010Prop40
 90
        0
102
RTVSPost2010PropOp40
 70
     1
102
RTVSPost2010Prop41ColorIndex
 90
       18
102
RTVSPost2010Prop41ColorRGB
 90
        0
102
RTVSPost2010PropOp41
 70
     1
102
RTVSPost2010Prop42
 90
       50
102
RTVSPost2010PropOp42
 70
     1
102
RTVSPost2010Prop43
 90
        3
102
RTVSPost2010PropOp43
 70
     1
102
RTVSPost2010Prop44ColorIndex
 90
        5
102
RTVSPost2010Prop44ColorRGB
 90
      255
102
RTVSPost2010PropOp44
 70
     1
102
RTVSPost2010Prop45
280
     0
102
RTVSPost2010PropOp45
 70
     1
102
RTVSPost2010Prop46
 90
       50
102
RTVSPost2010PropOp46
 70
     1
102
RTVSPost2010Prop47
 90
       50
102
RTVSPost2010PropOp47
 70
     1
102
RTVSPost2010Prop48
 90
       50
102
RTVSPost2010PropOp48
 70
     1
102
RTVSPost2010Prop49
280
     0
102
RTVSPost2010PropOp49
 70
     1
102
RTVSPost2010Prop50
 90
       50
102
RTVSPost2010PropOp50
 70
     1
102
RTVSPost2010Prop51ColorIndex
 90
      256
102
RTVSPost2010Prop51ColorRGB
 90
-16777216
102
RTVSPost2010PropOp51
 70
     0
102
RTVSPost2010Prop52
140
1.0
102
RTVSPost2010PropOp52
 70
     0
102
RTVSPost2010Prop53
 90
        2
102
RTVSPost2010PropOp53
 70
     1
102
RTVSPost2010Prop54
  1
strokes_ogs.tif
102
RTVSPost2010PropOp54
 70
     1
102
RTVSPost2010Prop55
280
     0
102
RTVSPost2010PropOp55
 70
     1
102
RTVSPost2010Prop56
140
1.0
102
RTVSPost2010PropOp56
 70
     1
102
RTVSPost2010Prop57
140
1.0
102
RTVSPost2010PropOp57
 70
     1
  0
XRECORD
  5
23A
102
{ACAD_REACTORS
330
239
102
}
330
239
100
AcDbXrecord
280
     1
102
RTVSPost2010Prop28
280
     0
102
RTVSPost2010PropOp28
 70
     1
102
RTVSPost2010Prop29
280
     1
102
RTVSPost2010PropOp29
 70
     1
102
RTVSPost2010Prop30
280
     1
102
RTVSPost2010PropOp30
 70
     1
102
RTVSPost2010Prop31
280
     0
102
RTVSPost2010PropOp31
 70
     1
102
RTVSPost2010Prop32
280
     0
102
RTVSPost2010PropOp32
 70
     1
102
RTVSPost2010Prop33
280
     0
102
RTVSPost2010PropOp33
 70
     1
102
RTVSPost2010Prop34
280
     0
102
RTVSPost2010PropOp34
 70
     1
102
RTVSPost2010Prop35
280
     0
102
RTVSPost2010PropOp35
 70
     1
102
RTVSPost2010Prop36
280
     0
102
RTVSPost2010PropOp36
 70
     1
102
RTVSPost2010Prop37
 90
       50
102
RTVSPost2010PropOp37
 70
     1
102
RTVSPost2010Prop38
140
0.0
102
RTVSPost2010PropOp38
 70
     1
102
RTVSPost2010Prop39
140
1.0
102
RTVSPost2010PropOp39
 70
     1
102
RTVSPost2010Prop40
 90
        0
102
RTVSPost2010PropOp40
 70
     1
102
RTVSPost2010Prop41ColorIndex
 90
       18
102
RTVSPost2010Prop41ColorRGB
 90
        0
102
RTVSPost2010PropOp41
 70
     1
102
RTVSPost2010Prop42
 90
       50
102
RTVSPost2010PropOp42
 70
     1
102
RTVSPost2010Prop43
 90
        3
102
RTVSPost2010PropOp43
 70
     1
102
RTVSPost2010Prop44ColorIndex
 90
        5
102
RTVSPost2010Prop44ColorRGB
 90
      255
102
RTVSPost2010PropOp44
 70
     1
102
RTVSPost2010Prop45
280
     0
102
RTVSPost2010PropOp45
 70
     1
102
RTVSPost2010Prop46
 90
       50
102
RTVSPost2010PropOp46
 70
     1
102
RTVSPost2010Prop47
 90
       50
102
RTVSPost2010PropOp47
 70
     1
102
RTVSPost2010Prop48
 90
       50
102
RTVSPost2010PropOp48
 70
     1
102
RTVSPost2010Prop49
280
     0
102
RTVSPost2010PropOp49
 70
     1
102
RTVSPost2010Prop50
 90
       50
102
RTVSPost2010PropOp50
 70
     1
102
RTVSPost2010Prop51ColorIndex
 90
      256
102
RTVSPost2010Prop51ColorRGB
 90
-16777216
102
RTVSPost2010PropOp51
 70
     0
102
RTVSPost2010Prop52
140
1.0
102
RTVSPost2010PropOp52
 70
     0
102
RTVSPost2010Prop53
 90
        2
102
RTVSPost2010PropOp53
 70
     1
102
RTVSPost2010Prop54
  1
strokes_ogs.tif
102
RTVSPost2010PropOp54
 70
     1
102
RTVSPost2010Prop55
280
     0
102
RTVSPost2010PropOp55
 70
     1
102
RTVSPost2010Prop56
140
1.0
102
RTVSPost2010PropOp56
 70
     1
102
RTVSPost2010Prop57
140
1.0
102
RTVSPost2010PropOp57
 70
     1
  0
XRECORD
  5
23C
102
{ACAD_REACTORS
330
23B
102
}
330
23B
100
AcDbXrecord
280
     1
102
RTVSPost2010Prop28
280
     0
102
RTVSPost2010PropOp28
 70
     1
102
RTVSPost2010Prop29
280
     1
102
RTVSPost2010PropOp29
 70
     1
102
RTVSPost2010Prop30
280
     1
102
RTVSPost2010PropOp30
 70
     1
102
RTVSPost2010Prop31
280
     0
102
RTVSPost2010PropOp31
 70
     1
102
RTVSPost2010Prop32
280
     0
102
RTVSPost2010PropOp32
 70
     1
102
RTVSPost2010Prop33
280
     0
102
RTVSPost2010PropOp33
 70
     1
102
RTVSPost2010Prop34
280
     0
102
RTVSPost2010PropOp34
 70
     1
102
RTVSPost2010Prop35
280
     0
102
RTVSPost2010PropOp35
 70
     1
102
RTVSPost2010Prop36
280
     0
102
RTVSPost2010PropOp36
 70
     1
102
RTVSPost2010Prop37
 90
       50
102
RTVSPost2010PropOp37
 70
     1
102
RTVSPost2010Prop38
140
0.0
102
RTVSPost2010PropOp38
 70
     1
102
RTVSPost2010Prop39
140
1.0
102
RTVSPost2010PropOp39
 70
     1
102
RTVSPost2010Prop40
 90
        0
102
RTVSPost2010PropOp40
 70
     1
102
RTVSPost2010Prop41ColorIndex
 90
       18
102
RTVSPost2010Prop41ColorRGB
 90
        0
102
RTVSPost2010PropOp41
 70
     1
102
RTVSPost2010Prop42
 90
       50
102
RTVSPost2010PropOp42
 70
     1
102
RTVSPost2010Prop43
 90
        3
102
RTVSPost2010PropOp43
 70
     1
102
RTVSPost2010Prop44ColorIndex
 90
        5
102
RTVSPost2010Prop44ColorRGB
 90
      255
102
RTVSPost2010PropOp44
 70
     1
102
RTVSPost2010Prop45
280
     0
102
RTVSPost2010PropOp45
 70
     1
102
RTVSPost2010Prop46
 90
       50
102
RTVSPost2010PropOp46
 70
     1
102
RTVSPost2010Prop47
 90
       50
102
RTVSPost2010PropOp47
 70
     1
102
RTVSPost2010Prop48
 90
       50
102
RTVSPost2010PropOp48
 70
     1
102
RTVSPost2010Prop49
280
     0
102
RTVSPost2010PropOp49
 70
     1
102
RTVSPost2010Prop50
 90
       50
102
RTVSPost2010PropOp50
 70
     1
102
RTVSPost2010Prop51ColorIndex
 90
      256
102
RTVSPost2010Prop51ColorRGB
 90
-16777216
102
RTVSPost2010PropOp51
 70
     0
102
RTVSPost2010Prop52
140
1.0
102
RTVSPost2010PropOp52
 70
     0
102
RTVSPost2010Prop53
 90
        2
102
RTVSPost2010PropOp53
 70
     1
102
RTVSPost2010Prop54
  1
strokes_ogs.tif
102
RTVSPost2010PropOp54
 70
     1
102
RTVSPost2010Prop55
280
     0
102
RTVSPost2010PropOp55
 70
     1
102
RTVSPost2010Prop56
140
1.0
102
RTVSPost2010PropOp56
 70
     1
102
RTVSPost2010Prop57
140
1.0
102
RTVSPost2010PropOp57
 70
     1
  0
XRECORD
  5
23E
102
{ACAD_REACTORS
330
23D
102
}
330
23D
100
AcDbXrecord
280
     1
102
RTVSPost2010Prop28
280
     0
102
RTVSPost2010PropOp28
 70
     1
102
RTVSPost2010Prop29
280
     1
102
RTVSPost2010PropOp29
 70
     1
102
RTVSPost2010Prop30
280
     1
102
RTVSPost2010PropOp30
 70
     1
102
RTVSPost2010Prop31
280
     0
102
RTVSPost2010PropOp31
 70
     1
102
RTVSPost2010Prop32
280
     0
102
RTVSPost2010PropOp32
 70
     1
102
RTVSPost2010Prop33
280
     0
102
RTVSPost2010PropOp33
 70
     1
102
RTVSPost2010Prop34
280
     0
102
RTVSPost2010PropOp34
 70
     1
102
RTVSPost2010Prop35
280
     0
102
RTVSPost2010PropOp35
 70
     1
102
RTVSPost2010Prop36
280
     0
102
RTVSPost2010PropOp36
 70
     1
102
RTVSPost2010Prop37
 90
       50
102
RTVSPost2010PropOp37
 70
     1
102
RTVSPost2010Prop38
140
0.0
102
RTVSPost2010PropOp38
 70
     1
102
RTVSPost2010Prop39
140
1.0
102
RTVSPost2010PropOp39
 70
     1
102
RTVSPost2010Prop40
 90
        0
102
RTVSPost2010PropOp40
 70
     1
102
RTVSPost2010Prop41ColorIndex
 90
       18
102
RTVSPost2010Prop41ColorRGB
 90
        0
102
RTVSPost2010PropOp41
 70
     1
102
RTVSPost2010Prop42
 90
       50
102
RTVSPost2010PropOp42
 70
     1
102
RTVSPost2010Prop43
 90
        3
102
RTVSPost2010PropOp43
 70
     1
102
RTVSPost2010Prop44ColorIndex
 90
        5
102
RTVSPost2010Prop44ColorRGB
 90
      255
102
RTVSPost2010PropOp44
 70
     1
102
RTVSPost2010Prop45
280
     0
102
RTVSPost2010PropOp45
 70
     1
102
RTVSPost2010Prop46
 90
       50
102
RTVSPost2010PropOp46
 70
     1
102
RTVSPost2010Prop47
 90
       50
102
RTVSPost2010PropOp47
 70
     1
102
RTVSPost2010Prop48
 90
       50
102
RTVSPost2010PropOp48
 70
     1
102
RTVSPost2010Prop49
280
     0
102
RTVSPost2010PropOp49
 70
     1
102
RTVSPost2010Prop50
 90
       50
102
RTVSPost2010PropOp50
 70
     1
102
RTVSPost2010Prop51ColorIndex
 90
      256
102
RTVSPost2010Prop51ColorRGB
 90
-16777216
102
RTVSPost2010PropOp51
 70
     0
102
RTVSPost2010Prop52
140
1.0
102
RTVSPost2010PropOp52
 70
     0
102
RTVSPost2010Prop53
 90
        2
102
RTVSPost2010PropOp53
 70
     1
102
RTVSPost2010Prop54
  1
strokes_ogs.tif
102
RTVSPost2010PropOp54
 70
     1
102
RTVSPost2010Prop55
280
     0
102
RTVSPost2010PropOp55
 70
     1
102
RTVSPost2010Prop56
140
1.0
102
RTVSPost2010PropOp56
 70
     1
102
RTVSPost2010Prop57
140
1.0
102
RTVSPost2010PropOp57
 70
     1
  0
XRECORD
  5
240
102
{ACAD_REACTORS
330
23F
102
}
330
23F
100
AcDbXrecord
280
     1
102
RTVSPost2010Prop28
280
     0
102
RTVSPost2010PropOp28
 70
     1
102
RTVSPost2010Prop29
280
     1
102
RTVSPost2010PropOp29
 70
     1
102
RTVSPost2010Prop30
280
     1
102
RTVSPost2010PropOp30
 70
     1
102
RTVSPost2010Prop31
280
     0
102
RTVSPost2010PropOp31
 70
     1
102
RTVSPost2010Prop32
280
     0
102
RTVSPost2010PropOp32
 70
     1
102
RTVSPost2010Prop33
280
     0
102
RTVSPost2010PropOp33
 70
     1
102
RTVSPost2010Prop34
280
     0
102
RTVSPost2010PropOp34
 70
     1
102
RTVSPost2010Prop35
280
     0
102
RTVSPost2010PropOp35
 70
     1
102
RTVSPost2010Prop36
280
     0
102
RTVSPost2010PropOp36
 70
     1
102
RTVSPost2010Prop37
 90
       50
102
RTVSPost2010PropOp37
 70
     1
102
RTVSPost2010Prop38
140
0.0
102
RTVSPost2010PropOp38
 70
     1
102
RTVSPost2010Prop39
140
1.0
102
RTVSPost2010PropOp39
 70
     1
102
RTVSPost2010Prop40
 90
        0
102
RTVSPost2010PropOp40
 70
     1
102
RTVSPost2010Prop41ColorIndex
 90
       18
102
RTVSPost2010Prop41ColorRGB
 90
        0
102
RTVSPost2010PropOp41
 70
     1
102
RTVSPost2010Prop42
 90
       50
102
RTVSPost2010PropOp42
 70
     1
102
RTVSPost2010Prop43
 90
        3
102
RTVSPost2010PropOp43
 70
     1
102
RTVSPost2010Prop44ColorIndex
 90
        5
102
RTVSPost2010Prop44ColorRGB
 90
      255
102
RTVSPost2010PropOp44
 70
     1
102
RTVSPost2010Prop45
280
     0
102
RTVSPost2010PropOp45
 70
     1
102
RTVSPost2010Prop46
 90
       50
102
RTVSPost2010PropOp46
 70
     1
102
RTVSPost2010Prop47
 90
       50
102
RTVSPost2010PropOp47
 70
     1
102
RTVSPost2010Prop48
 90
       50
102
RTVSPost2010PropOp48
 70
     1
102
RTVSPost2010Prop49
280
     0
102
RTVSPost2010PropOp49
 70
     1
102
RTVSPost2010Prop50
 90
       50
102
RTVSPost2010PropOp50
 70
     1
102
RTVSPost2010Prop51ColorIndex
 90
      256
102
RTVSPost2010Prop51ColorRGB
 90
-16777216
102
RTVSPost2010PropOp51
 70
     0
102
RTVSPost2010Prop52
140
1.0
102
RTVSPost2010PropOp52
 70
     0
102
RTVSPost2010Prop53
 90
        2
102
RTVSPost2010PropOp53
 70
     1
102
RTVSPost2010Prop54
  1
strokes_ogs.tif
102
RTVSPost2010PropOp54
 70
     1
102
RTVSPost2010Prop55
280
     0
102
RTVSPost2010PropOp55
 70
     1
102
RTVSPost2010Prop56
140
1.0
102
RTVSPost2010PropOp56
 70
     1
102
RTVSPost2010Prop57
140
1.0
102
RTVSPost2010PropOp57
 70
     1
  0
XRECORD
  5
246
102
{ACAD_REACTORS
330
245
102
}
330
245
100
AcDbXrecord
280
     1
102
RTVSPost2010Prop28
280
     0
102
RTVSPost2010PropOp28
 70
     1
102
RTVSPost2010Prop29
280
     1
102
RTVSPost2010PropOp29
 70
     1
102
RTVSPost2010Prop30
280
     1
102
RTVSPost2010PropOp30
 70
     1
102
RTVSPost2010Prop31
280
     0
102
RTVSPost2010PropOp31
 70
     1
102
RTVSPost2010Prop32
280
     0
102
RTVSPost2010PropOp32
 70
     1
102
RTVSPost2010Prop33
280
     0
102
RTVSPost2010PropOp33
 70
     1
102
RTVSPost2010Prop34
280
     0
102
RTVSPost2010PropOp34
 70
     1
102
RTVSPost2010Prop35
280
     0
102
RTVSPost2010PropOp35
 70
     1
102
RTVSPost2010Prop36
280
     0
102
RTVSPost2010PropOp36
 70
     1
102
RTVSPost2010Prop37
 90
       50
102
RTVSPost2010PropOp37
 70
     1
102
RTVSPost2010Prop38
140
0.0
102
RTVSPost2010PropOp38
 70
     1
102
RTVSPost2010Prop39
140
1.0
102
RTVSPost2010PropOp39
 70
     1
102
RTVSPost2010Prop40
 90
        0
102
RTVSPost2010PropOp40
 70
     1
102
RTVSPost2010Prop41ColorIndex
 90
       18
102
RTVSPost2010Prop41ColorRGB
 90
        0
102
RTVSPost2010PropOp41
 70
     1
102
RTVSPost2010Prop42
 90
       50
102
RTVSPost2010PropOp42
 70
     1
102
RTVSPost2010Prop43
 90
        3
102
RTVSPost2010PropOp43
 70
     1
102
RTVSPost2010Prop44ColorIndex
 90
        5
102
RTVSPost2010Prop44ColorRGB
 90
      255
102
RTVSPost2010PropOp44
 70
     1
102
RTVSPost2010Prop45
280
     0
102
RTVSPost2010PropOp45
 70
     1
102
RTVSPost2010Prop46
 90
       50
102
RTVSPost2010PropOp46
 70
     1
102
RTVSPost2010Prop47
 90
       50
102
RTVSPost2010PropOp47
 70
     1
102
RTVSPost2010Prop48
 90
       50
102
RTVSPost2010PropOp48
 70
     1
102
RTVSPost2010Prop49
280
     0
102
RTVSPost2010PropOp49
 70
     1
102
RTVSPost2010Prop50
 90
       50
102
RTVSPost2010PropOp50
 70
     1
102
RTVSPost2010Prop51ColorIndex
 90
      256
102
RTVSPost2010Prop51ColorRGB
 90
-16777216
102
RTVSPost2010PropOp51
 70
     0
102
RTVSPost2010Prop52
140
1.0
102
RTVSPost2010PropOp52
 70
     0
102
RTVSPost2010Prop53
 90
        2
102
RTVSPost2010PropOp53
 70
     1
102
RTVSPost2010Prop54
  1
strokes_ogs.tif
102
RTVSPost2010PropOp54
 70
     1
102
RTVSPost2010Prop55
280
     0
102
RTVSPost2010PropOp55
 70
     1
102
RTVSPost2010Prop56
140
1.0
102
RTVSPost2010PropOp56
 70
     1
102
RTVSPost2010Prop57
140
1.0
102
RTVSPost2010PropOp57
 70
     1
  0
XRECORD
  5
25A
102
{ACAD_REACTORS
330
259
102
}
330
259
100
AcDbXrecord
280
     1
102
RTVSPost2010Prop28
280
     0
102
RTVSPost2010PropOp28
 70
     0
102
RTVSPost2010Prop29
280
     1
102
RTVSPost2010PropOp29
 70
     0
102
RTVSPost2010Prop30
280
     1
102
RTVSPost2010PropOp30
 70
     0
102
RTVSPost2010Prop31
280
     0
102
RTVSPost2010PropOp31
 70
     0
102
RTVSPost2010Prop32
280
     0
102
RTVSPost2010PropOp32
 70
     0
102
RTVSPost2010Prop33
280
     0
102
RTVSPost2010PropOp33
 70
     0
102
RTVSPost2010Prop34
280
     0
102
RTVSPost2010PropOp34
 70
     0
102
RTVSPost2010Prop35
280
     0
102
RTVSPost2010PropOp35
 70
     0
102
RTVSPost2010Prop36
280
     0
102
RTVSPost2010PropOp36
 70
     0
102
RTVSPost2010Prop37
 90
       50
102
RTVSPost2010PropOp37
 70
     0
102
RTVSPost2010Prop38
140
0.0
102
RTVSPost2010PropOp38
 70
     0
102
RTVSPost2010Prop39
140
1.0
102
RTVSPost2010PropOp39
 70
     0
102
RTVSPost2010Prop40
 90
        0
102
RTVSPost2010PropOp40
 70
     0
102
RTVSPost2010Prop41ColorIndex
 90
       18
102
RTVSPost2010Prop41ColorRGB
 90
        0
102
RTVSPost2010PropOp41
 70
     0
102
RTVSPost2010Prop42
 90
       50
102
RTVSPost2010PropOp42
 70
     0
102
RTVSPost2010Prop43
 90
        3
102
RTVSPost2010PropOp43
 70
     0
102
RTVSPost2010Prop44ColorIndex
 90
        5
102
RTVSPost2010Prop44ColorRGB
 90
      255
102
RTVSPost2010PropOp44
 70
     0
102
RTVSPost2010Prop45
280
     0
102
RTVSPost2010PropOp45
 70
     0
102
RTVSPost2010Prop46
 90
       50
102
RTVSPost2010PropOp46
 70
     0
102
RTVSPost2010Prop47
 90
       50
102
RTVSPost2010PropOp47
 70
     0
102
RTVSPost2010Prop48
 90
       50
102
RTVSPost2010PropOp48
 70
     0
102
RTVSPost2010Prop49
280
     0
102
RTVSPost2010PropOp49
 70
     0
102
RTVSPost2010Prop50
 90
       50
102
RTVSPost2010PropOp50
 70
     0
102
RTVSPost2010Prop51ColorIndex
 90
      256
102
RTVSPost2010Prop51ColorRGB
 90
-16777216
102
RTVSPost2010PropOp51
 70
     0
102
RTVSPost2010Prop52
140
1.0
102
RTVSPost2010PropOp52
 70
     0
102
RTVSPost2010Prop53
 90
        2
102
RTVSPost2010PropOp53
 70
     0
102
RTVSPost2010Prop54
  1
strokes_ogs.tif
102
RTVSPost2010PropOp54
 70
     0
102
RTVSPost2010Prop55
280
     0
102
RTVSPost2010PropOp55
 70
     0
102
RTVSPost2010Prop56
140
1.0
102
RTVSPost2010PropOp56
 70
     0
102
RTVSPost2010Prop57
140
1.0
102
RTVSPost2010PropOp57
 70
     0
  0
XRECORD
  5
254
102
{ACAD_REACTORS
330
253
102
}
330
253
100
AcDbXrecord
280
     1
102
RTVSPost2010Prop28
280
     0
102
RTVSPost2010PropOp28
 70
     1
102
RTVSPost2010Prop29
280
     1
102
RTVSPost2010PropOp29
 70
     1
102
RTVSPost2010Prop30
280
     1
102
RTVSPost2010PropOp30
 70
     1
102
RTVSPost2010Prop31
280
     0
102
RTVSPost2010PropOp31
 70
     1
102
RTVSPost2010Prop32
280
     0
102
RTVSPost2010PropOp32
 70
     1
102
RTVSPost2010Prop33
280
     0
102
RTVSPost2010PropOp33
 70
     1
102
RTVSPost2010Prop34
280
     0
102
RTVSPost2010PropOp34
 70
     1
102
RTVSPost2010Prop35
280
     0
102
RTVSPost2010PropOp35
 70
     1
102
RTVSPost2010Prop36
280
     0
102
RTVSPost2010PropOp36
 70
     1
102
RTVSPost2010Prop37
 90
       50
102
RTVSPost2010PropOp37
 70
     1
102
RTVSPost2010Prop38
140
0.0
102
RTVSPost2010PropOp38
 70
     1
102
RTVSPost2010Prop39
140
1.0
102
RTVSPost2010PropOp39
 70
     1
102
RTVSPost2010Prop40
 90
        0
102
RTVSPost2010PropOp40
 70
     1
102
RTVSPost2010Prop41ColorIndex
 90
       18
102
RTVSPost2010Prop41ColorRGB
 90
        0
102
RTVSPost2010PropOp41
 70
     1
102
RTVSPost2010Prop42
 90
       50
102
RTVSPost2010PropOp42
 70
     1
102
RTVSPost2010Prop43
 90
        3
102
RTVSPost2010PropOp43
 70
     1
102
RTVSPost2010Prop44ColorIndex
 90
        5
102
RTVSPost2010Prop44ColorRGB
 90
      255
102
RTVSPost2010PropOp44
 70
     1
102
RTVSPost2010Prop45
280
     0
102
RTVSPost2010PropOp45
 70
     1
102
RTVSPost2010Prop46
 90
       50
102
RTVSPost2010PropOp46
 70
     1
102
RTVSPost2010Prop47
 90
       50
102
RTVSPost2010PropOp47
 70
     1
102
RTVSPost2010Prop48
 90
       50
102
RTVSPost2010PropOp48
 70
     1
102
RTVSPost2010Prop49
280
     0
102
RTVSPost2010PropOp49
 70
     1
102
RTVSPost2010Prop50
 90
       50
102
RTVSPost2010PropOp50
 70
     1
102
RTVSPost2010Prop51ColorIndex
 90
      256
102
RTVSPost2010Prop51ColorRGB
 90
-16777216
102
RTVSPost2010PropOp51
 70
     0
102
RTVSPost2010Prop52
140
1.0
102
RTVSPost2010PropOp52
 70
     0
102
RTVSPost2010Prop53
 90
        2
102
RTVSPost2010PropOp53
 70
     1
102
RTVSPost2010Prop54
  1
strokes_ogs.tif
102
RTVSPost2010PropOp54
 70
     1
102
RTVSPost2010Prop55
280
     0
102
RTVSPost2010PropOp55
 70
     1
102
RTVSPost2010Prop56
140
1.0
102
RTVSPost2010PropOp56
 70
     1
102
RTVSPost2010Prop57
140
1.0
102
RTVSPost2010PropOp57
 70
     1
  0
XRECORD
  5
25C
102
{ACAD_REACTORS
330
25B
102
}
330
25B
100
AcDbXrecord
280
     1
102
RTVSPost2010Prop28
280
     0
102
RTVSPost2010PropOp28
 70
     0
102
RTVSPost2010Prop29
280
     1
102
RTVSPost2010PropOp29
 70
     0
102
RTVSPost2010Prop30
280
     1
102
RTVSPost2010PropOp30
 70
     0
102
RTVSPost2010Prop31
280
     0
102
RTVSPost2010PropOp31
 70
     0
102
RTVSPost2010Prop32
280
     0
102
RTVSPost2010PropOp32
 70
     0
102
RTVSPost2010Prop33
280
     0
102
RTVSPost2010PropOp33
 70
     0
102
RTVSPost2010Prop34
280
     0
102
RTVSPost2010PropOp34
 70
     0
102
RTVSPost2010Prop35
280
     0
102
RTVSPost2010PropOp35
 70
     0
102
RTVSPost2010Prop36
280
     0
102
RTVSPost2010PropOp36
 70
     0
102
RTVSPost2010Prop37
 90
       50
102
RTVSPost2010PropOp37
 70
     0
102
RTVSPost2010Prop38
140
0.0
102
RTVSPost2010PropOp38
 70
     0
102
RTVSPost2010Prop39
140
1.0
102
RTVSPost2010PropOp39
 70
     0
102
RTVSPost2010Prop40
 90
        0
102
RTVSPost2010PropOp40
 70
     0
102
RTVSPost2010Prop41ColorIndex
 90
       18
102
RTVSPost2010Prop41ColorRGB
 90
        0
102
RTVSPost2010PropOp41
 70
     0
102
RTVSPost2010Prop42
 90
       50
102
RTVSPost2010PropOp42
 70
     0
102
RTVSPost2010Prop43
 90
        3
102
RTVSPost2010PropOp43
 70
     0
102
RTVSPost2010Prop44ColorIndex
 90
        5
102
RTVSPost2010Prop44ColorRGB
 90
      255
102
RTVSPost2010PropOp44
 70
     0
102
RTVSPost2010Prop45
280
     0
102
RTVSPost2010PropOp45
 70
     0
102
RTVSPost2010Prop46
 90
       50
102
RTVSPost2010PropOp46
 70
     0
102
RTVSPost2010Prop47
 90
       50
102
RTVSPost2010PropOp47
 70
     0
102
RTVSPost2010Prop48
 90
       50
102
RTVSPost2010PropOp48
 70
     0
102
RTVSPost2010Prop49
280
     0
102
RTVSPost2010PropOp49
 70
     0
102
RTVSPost2010Prop50
 90
       50
102
RTVSPost2010PropOp50
 70
     0
102
RTVSPost2010Prop51ColorIndex
 90
      256
102
RTVSPost2010Prop51ColorRGB
 90
-16777216
102
RTVSPost2010PropOp51
 70
     0
102
RTVSPost2010Prop52
140
1.0
102
RTVSPost2010PropOp52
 70
     0
102
RTVSPost2010Prop53
 90
        2
102
RTVSPost2010PropOp53
 70
     0
102
RTVSPost2010Prop54
  1
strokes_ogs.tif
102
RTVSPost2010PropOp54
 70
     0
102
RTVSPost2010Prop55
280
     0
102
RTVSPost2010PropOp55
 70
     0
102
RTVSPost2010Prop56
140
1.0
102
RTVSPost2010PropOp56
 70
     0
102
RTVSPost2010Prop57
140
1.0
102
RTVSPost2010PropOp57
 70
     0
  0
XRECORD
  5
24A
102
{ACAD_REACTORS
330
249
102
}
330
249
100
AcDbXrecord
280
     1
102
RTVSPost2010Prop28
280
     0
102
RTVSPost2010PropOp28
 70
     1
102
RTVSPost2010Prop29
280
     1
102
RTVSPost2010PropOp29
 70
     1
102
RTVSPost2010Prop30
280
     1
102
RTVSPost2010PropOp30
 70
     1
102
RTVSPost2010Prop31
280
     0
102
RTVSPost2010PropOp31
 70
     1
102
RTVSPost2010Prop32
280
     0
102
RTVSPost2010PropOp32
 70
     1
102
RTVSPost2010Prop33
280
     0
102
RTVSPost2010PropOp33
 70
     1
102
RTVSPost2010Prop34
280
     0
102
RTVSPost2010PropOp34
 70
     1
102
RTVSPost2010Prop35
280
     0
102
RTVSPost2010PropOp35
 70
     1
102
RTVSPost2010Prop36
280
     0
102
RTVSPost2010PropOp36
 70
     1
102
RTVSPost2010Prop37
 90
       50
102
RTVSPost2010PropOp37
 70
     1
102
RTVSPost2010Prop38
140
0.0
102
RTVSPost2010PropOp38
 70
     1
102
RTVSPost2010Prop39
140
1.0
102
RTVSPost2010PropOp39
 70
     1
102
RTVSPost2010Prop40
 90
        0
102
RTVSPost2010PropOp40
 70
     1
102
RTVSPost2010Prop41ColorIndex
 90
       18
102
RTVSPost2010Prop41ColorRGB
 90
        0
102
RTVSPost2010PropOp41
 70
     1
102
RTVSPost2010Prop42
 90
       50
102
RTVSPost2010PropOp42
 70
     1
102
RTVSPost2010Prop43
 90
        3
102
RTVSPost2010PropOp43
 70
     1
102
RTVSPost2010Prop44ColorIndex
 90
        5
102
RTVSPost2010Prop44ColorRGB
 90
      255
102
RTVSPost2010PropOp44
 70
     1
102
RTVSPost2010Prop45
280
     0
102
RTVSPost2010PropOp45
 70
     1
102
RTVSPost2010Prop46
 90
       50
102
RTVSPost2010PropOp46
 70
     1
102
RTVSPost2010Prop47
 90
       50
102
RTVSPost2010PropOp47
 70
     1
102
RTVSPost2010Prop48
 90
       50
102
RTVSPost2010PropOp48
 70
     1
102
RTVSPost2010Prop49
280
     0
102
RTVSPost2010PropOp49
 70
     1
102
RTVSPost2010Prop50
 90
       50
102
RTVSPost2010PropOp50
 70
     1
102
RTVSPost2010Prop51ColorIndex
 90
      256
102
RTVSPost2010Prop51ColorRGB
 90
-16777216
102
RTVSPost2010PropOp51
 70
     0
102
RTVSPost2010Prop52
140
1.0
102
RTVSPost2010PropOp52
 70
     0
102
RTVSPost2010Prop53
 90
        2
102
RTVSPost2010PropOp53
 70
     1
102
RTVSPost2010Prop54
  1
strokes_ogs.tif
102
RTVSPost2010PropOp54
 70
     1
102
RTVSPost2010Prop55
280
     0
102
RTVSPost2010PropOp55
 70
     1
102
RTVSPost2010Prop56
140
1.0
102
RTVSPost2010PropOp56
 70
     1
102
RTVSPost2010Prop57
140
1.0
102
RTVSPost2010PropOp57
 70
     1
  0
XRECORD
  5
268
102
{ACAD_REACTORS
330
267
102
}
330
267
100
AcDbXrecord
280
     1
102
RTVSPost2010Prop28
280
     0
102
RTVSPost2010PropOp28
 70
     1
102
RTVSPost2010Prop29
280
     1
102
RTVSPost2010PropOp29
 70
     1
102
RTVSPost2010Prop30
280
     1
102
RTVSPost2010PropOp30
 70
     1
102
RTVSPost2010Prop31
280
     0
102
RTVSPost2010PropOp31
 70
     1
102
RTVSPost2010Prop32
280
     0
102
RTVSPost2010PropOp32
 70
     1
102
RTVSPost2010Prop33
280
     0
102
RTVSPost2010PropOp33
 70
     1
102
RTVSPost2010Prop34
280
     0
102
RTVSPost2010PropOp34
 70
     1
102
RTVSPost2010Prop35
280
     0
102
RTVSPost2010PropOp35
 70
     1
102
RTVSPost2010Prop36
280
     0
102
RTVSPost2010PropOp36
 70
     1
102
RTVSPost2010Prop37
 90
       50
102
RTVSPost2010PropOp37
 70
     1
102
RTVSPost2010Prop38
140
0.0
102
RTVSPost2010PropOp38
 70
     1
102
RTVSPost2010Prop39
140
1.0
102
RTVSPost2010PropOp39
 70
     1
102
RTVSPost2010Prop40
 90
        0
102
RTVSPost2010PropOp40
 70
     1
102
RTVSPost2010Prop41ColorIndex
 90
       18
102
RTVSPost2010Prop41ColorRGB
 90
        0
102
RTVSPost2010PropOp41
 70
     1
102
RTVSPost2010Prop42
 90
       50
102
RTVSPost2010PropOp42
 70
     1
102
RTVSPost2010Prop43
 90
        3
102
RTVSPost2010PropOp43
 70
     1
102
RTVSPost2010Prop44ColorIndex
 90
        5
102
RTVSPost2010Prop44ColorRGB
 90
      255
102
RTVSPost2010PropOp44
 70
     1
102
RTVSPost2010Prop45
280
     0
102
RTVSPost2010PropOp45
 70
     1
102
RTVSPost2010Prop46
 90
       50
102
RTVSPost2010PropOp46
 70
     1
102
RTVSPost2010Prop47
 90
       50
102
RTVSPost2010PropOp47
 70
     1
102
RTVSPost2010Prop48
 90
       50
102
RTVSPost2010PropOp48
 70
     1
102
RTVSPost2010Prop49
280
     0
102
RTVSPost2010PropOp49
 70
     1
102
RTVSPost2010Prop50
 90
       50
102
RTVSPost2010PropOp50
 70
     1
102
RTVSPost2010Prop51ColorIndex
 90
      256
102
RTVSPost2010Prop51ColorRGB
 90
-16777216
102
RTVSPost2010PropOp51
 70
     0
102
RTVSPost2010Prop52
140
1.0
102
RTVSPost2010PropOp52
 70
     0
102
RTVSPost2010Prop53
 90
        2
102
RTVSPost2010PropOp53
 70
     1
102
RTVSPost2010Prop54
  1
strokes_ogs.tif
102
RTVSPost2010PropOp54
 70
     1
102
RTVSPost2010Prop55
280
     0
102
RTVSPost2010PropOp55
 70
     1
102
RTVSPost2010Prop56
140
1.0
102
RTVSPost2010PropOp56
 70
     1
102
RTVSPost2010Prop57
140
1.0
102
RTVSPost2010PropOp57
 70
     1
  0
XRECORD
  5
266
102
{ACAD_REACTORS
330
265
102
}
330
265
100
AcDbXrecord
280
     1
102
RTVSPost2010Prop28
280
     0
102
RTVSPost2010PropOp28
 70
     1
102
RTVSPost2010Prop29
280
     1
102
RTVSPost2010PropOp29
 70
     1
102
RTVSPost2010Prop30
280
     1
102
RTVSPost2010PropOp30
 70
     1
102
RTVSPost2010Prop31
280
     0
102
RTVSPost2010PropOp31
 70
     1
102
RTVSPost2010Prop32
280
     0
102
RTVSPost2010PropOp32
 70
     1
102
RTVSPost2010Prop33
280
     0
102
RTVSPost2010PropOp33
 70
     1
102
RTVSPost2010Prop34
280
     0
102
RTVSPost2010PropOp34
 70
     1
102
RTVSPost2010Prop35
280
     0
102
RTVSPost2010PropOp35
 70
     1
102
RTVSPost2010Prop36
280
     0
102
RTVSPost2010PropOp36
 70
     1
102
RTVSPost2010Prop37
 90
       50
102
RTVSPost2010PropOp37
 70
     1
102
RTVSPost2010Prop38
140
0.0
102
RTVSPost2010PropOp38
 70
     1
102
RTVSPost2010Prop39
140
1.0
102
RTVSPost2010PropOp39
 70
     1
102
RTVSPost2010Prop40
 90
        0
102
RTVSPost2010PropOp40
 70
     1
102
RTVSPost2010Prop41ColorIndex
 90
       18
102
RTVSPost2010Prop41ColorRGB
 90
        0
102
RTVSPost2010PropOp41
 70
     1
102
RTVSPost2010Prop42
 90
       50
102
RTVSPost2010PropOp42
 70
     1
102
RTVSPost2010Prop43
 90
        3
102
RTVSPost2010PropOp43
 70
     1
102
RTVSPost2010Prop44ColorIndex
 90
        5
102
RTVSPost2010Prop44ColorRGB
 90
      255
102
RTVSPost2010PropOp44
 70
     1
102
RTVSPost2010Prop45
280
     0
102
RTVSPost2010PropOp45
 70
     1
102
RTVSPost2010Prop46
 90
       50
102
RTVSPost2010PropOp46
 70
     1
102
RTVSPost2010Prop47
 90
       50
102
RTVSPost2010PropOp47
 70
     1
102
RTVSPost2010Prop48
 90
       50
102
RTVSPost2010PropOp48
 70
     1
102
RTVSPost2010Prop49
280
     0
102
RTVSPost2010PropOp49
 70
     1
102
RTVSPost2010Prop50
 90
       50
102
RTVSPost2010PropOp50
 70
     1
102
RTVSPost2010Prop51ColorIndex
 90
      256
102
RTVSPost2010Prop51ColorRGB
 90
-16777216
102
RTVSPost2010PropOp51
 70
     0
102
RTVSPost2010Prop52
140
1.0
102
RTVSPost2010PropOp52
 70
     0
102
RTVSPost2010Prop53
 90
        2
102
RTVSPost2010PropOp53
 70
     1
102
RTVSPost2010Prop54
  1
strokes_ogs.tif
102
RTVSPost2010PropOp54
 70
     1
102
RTVSPost2010Prop55
280
     0
102
RTVSPost2010PropOp55
 70
     1
102
RTVSPost2010Prop56
140
1.0
102
RTVSPost2010PropOp56
 70
     1
102
RTVSPost2010Prop57
140
1.0
102
RTVSPost2010PropOp57
 70
     1
  0
XRECORD
  5
260
102
{ACAD_REACTORS
330
25F
102
}
330
25F
100
AcDbXrecord
280
     1
102
RTVSPost2010Prop28
280
     0
102
RTVSPost2010PropOp28
 70
     1
102
RTVSPost2010Prop29
280
     1
102
RTVSPost2010PropOp29
 70
     1
102
RTVSPost2010Prop30
280
     1
102
RTVSPost2010PropOp30
 70
     1
102
RTVSPost2010Prop31
280
     0
102
RTVSPost2010PropOp31
 70
     1
102
RTVSPost2010Prop32
280
     0
102
RTVSPost2010PropOp32
 70
     1
102
RTVSPost2010Prop33
280
     0
102
RTVSPost2010PropOp33
 70
     1
102
RTVSPost2010Prop34
280
     0
102
RTVSPost2010PropOp34
 70
     1
102
RTVSPost2010Prop35
280
     0
102
RTVSPost2010PropOp35
 70
     1
102
RTVSPost2010Prop36
280
     0
102
RTVSPost2010PropOp36
 70
     1
102
RTVSPost2010Prop37
 90
       50
102
RTVSPost2010PropOp37
 70
     1
102
RTVSPost2010Prop38
140
0.0
102
RTVSPost2010PropOp38
 70
     1
102
RTVSPost2010Prop39
140
1.0
102
RTVSPost2010PropOp39
 70
     1
102
RTVSPost2010Prop40
 90
        0
102
RTVSPost2010PropOp40
 70
     1
102
RTVSPost2010Prop41ColorIndex
 90
       18
102
RTVSPost2010Prop41ColorRGB
 90
        0
102
RTVSPost2010PropOp41
 70
     1
102
RTVSPost2010Prop42
 90
       50
102
RTVSPost2010PropOp42
 70
     1
102
RTVSPost2010Prop43
 90
        3
102
RTVSPost2010PropOp43
 70
     1
102
RTVSPost2010Prop44ColorIndex
 90
        5
102
RTVSPost2010Prop44ColorRGB
 90
      255
102
RTVSPost2010PropOp44
 70
     1
102
RTVSPost2010Prop45
280
     0
102
RTVSPost2010PropOp45
 70
     1
102
RTVSPost2010Prop46
 90
       50
102
RTVSPost2010PropOp46
 70
     1
102
RTVSPost2010Prop47
 90
       50
102
RTVSPost2010PropOp47
 70
     1
102
RTVSPost2010Prop48
 90
       50
102
RTVSPost2010PropOp48
 70
     1
102
RTVSPost2010Prop49
280
     0
102
RTVSPost2010PropOp49
 70
     1
102
RTVSPost2010Prop50
 90
       50
102
RTVSPost2010PropOp50
 70
     1
102
RTVSPost2010Prop51ColorIndex
 90
      256
102
RTVSPost2010Prop51ColorRGB
 90
-16777216
102
RTVSPost2010PropOp51
 70
     0
102
RTVSPost2010Prop52
140
1.0
102
RTVSPost2010PropOp52
 70
     0
102
RTVSPost2010Prop53
 90
        2
102
RTVSPost2010PropOp53
 70
     1
102
RTVSPost2010Prop54
  1
strokes_ogs.tif
102
RTVSPost2010PropOp54
 70
     1
102
RTVSPost2010Prop55
280
     0
102
RTVSPost2010PropOp55
 70
     1
102
RTVSPost2010Prop56
140
1.0
102
RTVSPost2010PropOp56
 70
     1
102
RTVSPost2010Prop57
140
1.0
102
RTVSPost2010PropOp57
 70
     1
  0
XRECORD
  5
262
102
{ACAD_REACTORS
330
261
102
}
330
261
100
AcDbXrecord
280
     1
102
RTVSPost2010Prop28
280
     0
102
RTVSPost2010PropOp28
 70
     1
102
RTVSPost2010Prop29
280
     1
102
RTVSPost2010PropOp29
 70
     1
102
RTVSPost2010Prop30
280
     1
102
RTVSPost2010PropOp30
 70
     1
102
RTVSPost2010Prop31
280
     0
102
RTVSPost2010PropOp31
 70
     1
102
RTVSPost2010Prop32
280
     0
102
RTVSPost2010PropOp32
 70
     1
102
RTVSPost2010Prop33
280
     0
102
RTVSPost2010PropOp33
 70
     1
102
RTVSPost2010Prop34
280
     0
102
RTVSPost2010PropOp34
 70
     1
102
RTVSPost2010Prop35
280
     0
102
RTVSPost2010PropOp35
 70
     1
102
RTVSPost2010Prop36
280
     0
102
RTVSPost2010PropOp36
 70
     1
102
RTVSPost2010Prop37
 90
       50
102
RTVSPost2010PropOp37
 70
     1
102
RTVSPost2010Prop38
140
0.0
102
RTVSPost2010PropOp38
 70
     1
102
RTVSPost2010Prop39
140
1.0
102
RTVSPost2010PropOp39
 70
     1
102
RTVSPost2010Prop40
 90
        0
102
RTVSPost2010PropOp40
 70
     1
102
RTVSPost2010Prop41ColorIndex
 90
       18
102
RTVSPost2010Prop41ColorRGB
 90
        0
102
RTVSPost2010PropOp41
 70
     1
102
RTVSPost2010Prop42
 90
       50
102
RTVSPost2010PropOp42
 70
     1
102
RTVSPost2010Prop43
 90
        3
102
RTVSPost2010PropOp43
 70
     1
102
RTVSPost2010Prop44ColorIndex
 90
        5
102
RTVSPost2010Prop44ColorRGB
 90
      255
102
RTVSPost2010PropOp44
 70
     1
102
RTVSPost2010Prop45
280
     0
102
RTVSPost2010PropOp45
 70
     1
102
RTVSPost2010Prop46
 90
       50
102
RTVSPost2010PropOp46
 70
     1
102
RTVSPost2010Prop47
 90
       50
102
RTVSPost2010PropOp47
 70
     1
102
RTVSPost2010Prop48
 90
       50
102
RTVSPost2010PropOp48
 70
     1
102
RTVSPost2010Prop49
280
     0
102
RTVSPost2010PropOp49
 70
     1
102
RTVSPost2010Prop50
 90
       50
102
RTVSPost2010PropOp50
 70
     1
102
RTVSPost2010Prop51ColorIndex
 90
      256
102
RTVSPost2010Prop51ColorRGB
 90
-16777216
102
RTVSPost2010PropOp51
 70
     0
102
RTVSPost2010Prop52
140
1.0
102
RTVSPost2010PropOp52
 70
     0
102
RTVSPost2010Prop53
 90
        2
102
RTVSPost2010PropOp53
 70
     1
102
RTVSPost2010Prop54
  1
strokes_ogs.tif
102
RTVSPost2010PropOp54
 70
     1
102
RTVSPost2010Prop55
280
     0
102
RTVSPost2010PropOp55
 70
     1
102
RTVSPost2010Prop56
140
1.0
102
RTVSPost2010PropOp56
 70
     1
102
RTVSPost2010Prop57
140
1.0
102
RTVSPost2010PropOp57
 70
     1
  0
XRECORD
  5
252
102
{ACAD_REACTORS
330
251
102
}
330
251
100
AcDbXrecord
280
     1
102
RTVSPost2010Prop28
280
     0
102
RTVSPost2010PropOp28
 70
     1
102
RTVSPost2010Prop29
280
     1
102
RTVSPost2010PropOp29
 70
     1
102
RTVSPost2010Prop30
280
     1
102
RTVSPost2010PropOp30
 70
     1
102
RTVSPost2010Prop31
280
     0
102
RTVSPost2010PropOp31
 70
     1
102
RTVSPost2010Prop32
280
     0
102
RTVSPost2010PropOp32
 70
     1
102
RTVSPost2010Prop33
280
     0
102
RTVSPost2010PropOp33
 70
     1
102
RTVSPost2010Prop34
280
     0
102
RTVSPost2010PropOp34
 70
     1
102
RTVSPost2010Prop35
280
     0
102
RTVSPost2010PropOp35
 70
     1
102
RTVSPost2010Prop36
280
     0
102
RTVSPost2010PropOp36
 70
     1
102
RTVSPost2010Prop37
 90
       50
102
RTVSPost2010PropOp37
 70
     1
102
RTVSPost2010Prop38
140
0.0
102
RTVSPost2010PropOp38
 70
     1
102
RTVSPost2010Prop39
140
1.0
102
RTVSPost2010PropOp39
 70
     1
102
RTVSPost2010Prop40
 90
        0
102
RTVSPost2010PropOp40
 70
     1
102
RTVSPost2010Prop41ColorIndex
 90
       18
102
RTVSPost2010Prop41ColorRGB
 90
        0
102
RTVSPost2010PropOp41
 70
     1
102
RTVSPost2010Prop42
 90
       50
102
RTVSPost2010PropOp42
 70
     1
102
RTVSPost2010Prop43
 90
        3
102
RTVSPost2010PropOp43
 70
     1
102
RTVSPost2010Prop44ColorIndex
 90
        5
102
RTVSPost2010Prop44ColorRGB
 90
      255
102
RTVSPost2010PropOp44
 70
     1
102
RTVSPost2010Prop45
280
     0
102
RTVSPost2010PropOp45
 70
     1
102
RTVSPost2010Prop46
 90
       50
102
RTVSPost2010PropOp46
 70
     1
102
RTVSPost2010Prop47
 90
       50
102
RTVSPost2010PropOp47
 70
     1
102
RTVSPost2010Prop48
 90
       50
102
RTVSPost2010PropOp48
 70
     1
102
RTVSPost2010Prop49
280
     0
102
RTVSPost2010PropOp49
 70
     1
102
RTVSPost2010Prop50
 90
       50
102
RTVSPost2010PropOp50
 70
     1
102
RTVSPost2010Prop51ColorIndex
 90
      256
102
RTVSPost2010Prop51ColorRGB
 90
-16777216
102
RTVSPost2010PropOp51
 70
     0
102
RTVSPost2010Prop52
140
1.0
102
RTVSPost2010PropOp52
 70
     0
102
RTVSPost2010Prop53
 90
        2
102
RTVSPost2010PropOp53
 70
     1
102
RTVSPost2010Prop54
  1
strokes_ogs.tif
102
RTVSPost2010PropOp54
 70
     1
102
RTVSPost2010Prop55
280
     0
102
RTVSPost2010PropOp55
 70
     1
102
RTVSPost2010Prop56
140
1.0
102
RTVSPost2010PropOp56
 70
     1
102
RTVSPost2010Prop57
140
1.0
102
RTVSPost2010PropOp57
 70
     1
  0
XRECORD
  5
244
102
{ACAD_REACTORS
330
243
102
}
330
243
100
AcDbXrecord
280
     1
102
RTVSPost2010Prop28
280
     0
102
RTVSPost2010PropOp28
 70
     1
102
RTVSPost2010Prop29
280
     1
102
RTVSPost2010PropOp29
 70
     1
102
RTVSPost2010Prop30
280
     1
102
RTVSPost2010PropOp30
 70
     1
102
RTVSPost2010Prop31
280
     0
102
RTVSPost2010PropOp31
 70
     1
102
RTVSPost2010Prop32
280
     0
102
RTVSPost2010PropOp32
 70
     1
102
RTVSPost2010Prop33
280
     0
102
RTVSPost2010PropOp33
 70
     1
102
RTVSPost2010Prop34
280
     0
102
RTVSPost2010PropOp34
 70
     1
102
RTVSPost2010Prop35
280
     0
102
RTVSPost2010PropOp35
 70
     1
102
RTVSPost2010Prop36
280
     0
102
RTVSPost2010PropOp36
 70
     1
102
RTVSPost2010Prop37
 90
       50
102
RTVSPost2010PropOp37
 70
     1
102
RTVSPost2010Prop38
140
0.0
102
RTVSPost2010PropOp38
 70
     1
102
RTVSPost2010Prop39
140
1.0
102
RTVSPost2010PropOp39
 70
     1
102
RTVSPost2010Prop40
 90
        0
102
RTVSPost2010PropOp40
 70
     1
102
RTVSPost2010Prop41ColorIndex
 90
       18
102
RTVSPost2010Prop41ColorRGB
 90
        0
102
RTVSPost2010PropOp41
 70
     1
102
RTVSPost2010Prop42
 90
       50
102
RTVSPost2010PropOp42
 70
     1
102
RTVSPost2010Prop43
 90
        3
102
RTVSPost2010PropOp43
 70
     1
102
RTVSPost2010Prop44ColorIndex
 90
        5
102
RTVSPost2010Prop44ColorRGB
 90
      255
102
RTVSPost2010PropOp44
 70
     1
102
RTVSPost2010Prop45
280
     0
102
RTVSPost2010PropOp45
 70
     1
102
RTVSPost2010Prop46
 90
       50
102
RTVSPost2010PropOp46
 70
     1
102
RTVSPost2010Prop47
 90
       50
102
RTVSPost2010PropOp47
 70
     1
102
RTVSPost2010Prop48
 90
       50
102
RTVSPost2010PropOp48
 70
     1
102
RTVSPost2010Prop49
280
     0
102
RTVSPost2010PropOp49
 70
     1
102
RTVSPost2010Prop50
 90
       50
102
RTVSPost2010PropOp50
 70
     1
102
RTVSPost2010Prop51ColorIndex
 90
      256
102
RTVSPost2010Prop51ColorRGB
 90
-16777216
102
RTVSPost2010PropOp51
 70
     0
102
RTVSPost2010Prop52
140
1.0
102
RTVSPost2010PropOp52
 70
     0
102
RTVSPost2010Prop53
 90
        2
102
RTVSPost2010PropOp53
 70
     1
102
RTVSPost2010Prop54
  1
strokes_ogs.tif
102
RTVSPost2010PropOp54
 70
     1
102
RTVSPost2010Prop55
280
     0
102
RTVSPost2010PropOp55
 70
     1
102
RTVSPost2010Prop56
140
1.0
102
RTVSPost2010PropOp56
 70
     1
102
RTVSPost2010Prop57
140
1.0
102
RTVSPost2010PropOp57
 70
     1
  0
XRECORD
  5
264
102
{ACAD_REACTORS
330
263
102
}
330
263
100
AcDbXrecord
280
     1
102
RTVSPost2010Prop28
280
     0
102
RTVSPost2010PropOp28
 70
     1
102
RTVSPost2010Prop29
280
     1
102
RTVSPost2010PropOp29
 70
     1
102
RTVSPost2010Prop30
280
     1
102
RTVSPost2010PropOp30
 70
     1
102
RTVSPost2010Prop31
280
     0
102
RTVSPost2010PropOp31
 70
     1
102
RTVSPost2010Prop32
280
     0
102
RTVSPost2010PropOp32
 70
     1
102
RTVSPost2010Prop33
280
     0
102
RTVSPost2010PropOp33
 70
     1
102
RTVSPost2010Prop34
280
     0
102
RTVSPost2010PropOp34
 70
     1
102
RTVSPost2010Prop35
280
     0
102
RTVSPost2010PropOp35
 70
     1
102
RTVSPost2010Prop36
280
     0
102
RTVSPost2010PropOp36
 70
     1
102
RTVSPost2010Prop37
 90
       50
102
RTVSPost2010PropOp37
 70
     1
102
RTVSPost2010Prop38
140
0.0
102
RTVSPost2010PropOp38
 70
     1
102
RTVSPost2010Prop39
140
1.0
102
RTVSPost2010PropOp39
 70
     1
102
RTVSPost2010Prop40
 90
        0
102
RTVSPost2010PropOp40
 70
     1
102
RTVSPost2010Prop41ColorIndex
 90
       18
102
RTVSPost2010Prop41ColorRGB
 90
        0
102
RTVSPost2010PropOp41
 70
     1
102
RTVSPost2010Prop42
 90
       50
102
RTVSPost2010PropOp42
 70
     1
102
RTVSPost2010Prop43
 90
        3
102
RTVSPost2010PropOp43
 70
     1
102
RTVSPost2010Prop44ColorIndex
 90
        5
102
RTVSPost2010Prop44ColorRGB
 90
      255
102
RTVSPost2010PropOp44
 70
     1
102
RTVSPost2010Prop45
280
     0
102
RTVSPost2010PropOp45
 70
     1
102
RTVSPost2010Prop46
 90
       50
102
RTVSPost2010PropOp46
 70
     1
102
RTVSPost2010Prop47
 90
       50
102
RTVSPost2010PropOp47
 70
     1
102
RTVSPost2010Prop48
 90
       50
102
RTVSPost2010PropOp48
 70
     1
102
RTVSPost2010Prop49
280
     0
102
RTVSPost2010PropOp49
 70
     1
102
RTVSPost2010Prop50
 90
       50
102
RTVSPost2010PropOp50
 70
     1
102
RTVSPost2010Prop51ColorIndex
 90
      256
102
RTVSPost2010Prop51ColorRGB
 90
-16777216
102
RTVSPost2010PropOp51
 70
     0
102
RTVSPost2010Prop52
140
1.0
102
RTVSPost2010PropOp52
 70
     0
102
RTVSPost2010Prop53
 90
        2
102
RTVSPost2010PropOp53
 70
     1
102
RTVSPost2010Prop54
  1
strokes_ogs.tif
102
RTVSPost2010PropOp54
 70
     1
102
RTVSPost2010Prop55
280
     0
102
RTVSPost2010PropOp55
 70
     1
102
RTVSPost2010Prop56
140
1.0
102
RTVSPost2010PropOp56
 70
     1
102
RTVSPost2010Prop57
140
1.0
102
RTVSPost2010PropOp57
 70
     1
  0
ENDSEC
  0
EOF
